<?xml version="1.0" encoding="UTF-8" standalone="no"?>
<svg
   xmlns:dc="http://purl.org/dc/elements/1.1/"
   xmlns:cc="http://creativecommons.org/ns#"
   xmlns:rdf="http://www.w3.org/1999/02/22-rdf-syntax-ns#"
   xmlns:svg="http://www.w3.org/2000/svg"
   xmlns="http://www.w3.org/2000/svg"
   viewBox="0 0 990 765"
   height="765"
   width="990"
   xml:space="preserve"
   version="1.1"
   id="svg2"><metadata
     id="metadata8"><rdf:RDF><cc:Work
         rdf:about=""><dc:format>image/svg+xml</dc:format><dc:type
           rdf:resource="http://purl.org/dc/dcmitype/StillImage" /></cc:Work></rdf:RDF></metadata><defs
     id="defs6"><clipPath
       id="clipPath12"
       clipPathUnits="userSpaceOnUse"><path
         id="path14"
         d="M 0,0 612,0 612,792 0,792 0,0 Z" /></clipPath></defs><g
     clip-path="url(#clipPath12)"
     transform="matrix(0,1.25,1.25,0,0,0)"
     id="g10"><g
       transform="scale(0.1,0.1)"
       id="g16"><path
         id="path18"
         style="fill:none;stroke:#000000;stroke-width:5;stroke-linecap:butt;stroke-linejoin:miter;stroke-miterlimit:3.79999995;stroke-dasharray:none;stroke-opacity:1"
         d="m 4011,1438 0,63 m 0,5678 0,-63" /><g
         transform="scale(10,10)"
         id="g20"><text
           id="text22"
           style="font-variant:normal;font-weight:normal;font-size:14px;font-family:Helvetica;-inkscape-font-specification:Helvetica;writing-mode:lr-tb;fill:#000000;fill-opacity:1;fill-rule:nonzero;stroke:none"
           transform="matrix(0,1,1,0,405.77,127.616)"><tspan
             id="tspan24"
             y="0"
             x="0">1</tspan></text>
</g><path
         id="path26"
         style="fill:none;stroke:#000000;stroke-width:5;stroke-linecap:butt;stroke-linejoin:miter;stroke-miterlimit:3.79999995;stroke-dasharray:none;stroke-opacity:1"
         d="m 3839,1438 0,31 m 0,5710 0,-31 m -171,-5710 0,63 m 0,5678 0,-63" /><g
         transform="scale(10,10)"
         id="g28"><text
           id="text30"
           style="font-variant:normal;font-weight:normal;font-size:14px;font-family:Helvetica;-inkscape-font-specification:Helvetica;writing-mode:lr-tb;fill:#000000;fill-opacity:1;fill-rule:nonzero;stroke:none"
           transform="matrix(0,1,1,0,371.47,127.616)"><tspan
             id="tspan32"
             y="0"
             x="0">4</tspan></text>
</g><path
         id="path34"
         style="fill:none;stroke:#000000;stroke-width:5;stroke-linecap:butt;stroke-linejoin:miter;stroke-miterlimit:3.79999995;stroke-dasharray:none;stroke-opacity:1"
         d="m 3496,1438 0,31 m 0,5710 0,-31 m -172,-5710 0,63 m 0,5678 0,-63" /><g
         transform="scale(10,10)"
         id="g36"><text
           id="text38"
           style="font-variant:normal;font-weight:normal;font-size:14px;font-family:Helvetica;-inkscape-font-specification:Helvetica;writing-mode:lr-tb;fill:#000000;fill-opacity:1;fill-rule:nonzero;stroke:none"
           transform="matrix(0,1,1,0,337.07,119.832)"><tspan
             id="tspan40"
             y="0"
             x="0 7.7839999">16</tspan></text>
</g><path
         id="path42"
         style="fill:none;stroke:#000000;stroke-width:5;stroke-linecap:butt;stroke-linejoin:miter;stroke-miterlimit:3.79999995;stroke-dasharray:none;stroke-opacity:1"
         d="m 3153,1438 0,31 m 0,5710 0,-31 m -172,-5710 0,63 m 0,5678 0,-63" /><g
         transform="scale(10,10)"
         id="g44"><text
           id="text46"
           style="font-variant:normal;font-weight:normal;font-size:14px;font-family:Helvetica;-inkscape-font-specification:Helvetica;writing-mode:lr-tb;fill:#000000;fill-opacity:1;fill-rule:nonzero;stroke:none"
           transform="matrix(0,1,1,0,302.77,119.832)"><tspan
             id="tspan48"
             y="0"
             x="0 7.7839999">64</tspan></text>
</g><path
         id="path50"
         style="fill:none;stroke:#000000;stroke-width:5;stroke-linecap:butt;stroke-linejoin:miter;stroke-miterlimit:3.79999995;stroke-dasharray:none;stroke-opacity:1"
         d="m 2809,1438 0,31 m 0,5710 0,-31 m -171,-5710 0,63 m 0,5678 0,-63" /><g
         transform="scale(10,10)"
         id="g52"><text
           id="text54"
           style="font-variant:normal;font-weight:normal;font-size:14px;font-family:Helvetica;-inkscape-font-specification:Helvetica;writing-mode:lr-tb;fill:#000000;fill-opacity:1;fill-rule:nonzero;stroke:none"
           transform="matrix(0,1,1,0,268.47,112.048)"><tspan
             id="tspan56"
             y="0"
             x="0 7.7839999 15.568">256</tspan></text>
</g><path
         id="path58"
         style="fill:none;stroke:#000000;stroke-width:5;stroke-linecap:butt;stroke-linejoin:miter;stroke-miterlimit:3.79999995;stroke-dasharray:none;stroke-opacity:1"
         d="m 2466,1438 0,31 m 0,5710 0,-31 m -172,-5710 0,63 m 0,5678 0,-63" /><g
         transform="scale(10,10)"
         id="g60"><text
           id="text62"
           style="font-variant:normal;font-weight:normal;font-size:14px;font-family:Helvetica;-inkscape-font-specification:Helvetica;writing-mode:lr-tb;fill:#000000;fill-opacity:1;fill-rule:nonzero;stroke:none"
           transform="matrix(0,1,1,0,234.07,104.264)"><tspan
             id="tspan64"
             y="0"
             x="0 7.7839999 15.568 23.351999">1024</tspan></text>
</g><path
         id="path66"
         style="fill:none;stroke:#000000;stroke-width:5;stroke-linecap:butt;stroke-linejoin:miter;stroke-miterlimit:3.79999995;stroke-dasharray:none;stroke-opacity:1"
         d="m 2123,1438 0,31 m 0,5710 0,-31 m -172,-5710 0,63 m 0,5678 0,-63" /><g
         transform="scale(10,10)"
         id="g68"><text
           id="text70"
           style="font-variant:normal;font-weight:normal;font-size:14px;font-family:Helvetica;-inkscape-font-specification:Helvetica;writing-mode:lr-tb;fill:#000000;fill-opacity:1;fill-rule:nonzero;stroke:none"
           transform="matrix(0,1,1,0,199.77,104.264)"><tspan
             id="tspan72"
             y="0"
             x="0 7.7839999 15.568 23.351999">4096</tspan></text>
</g><path
         id="path74"
         style="fill:none;stroke:#000000;stroke-width:5;stroke-linecap:butt;stroke-linejoin:miter;stroke-miterlimit:3.79999995;stroke-dasharray:none;stroke-opacity:1"
         d="m 1779,1438 0,31 m 0,5710 0,-31 m -171,-5710 0,63 m 0,5678 0,-63" /><g
         transform="scale(10,10)"
         id="g76"><text
           id="text78"
           style="font-variant:normal;font-weight:normal;font-size:14px;font-family:Helvetica;-inkscape-font-specification:Helvetica;writing-mode:lr-tb;fill:#000000;fill-opacity:1;fill-rule:nonzero;stroke:none"
           transform="matrix(0,1,1,0,165.47,96.4803)"><tspan
             id="tspan80"
             y="0"
             x="0 7.7839999 15.568 23.351999 31.136">16384</tspan></text>
</g><path
         id="path82"
         style="fill:none;stroke:#000000;stroke-width:5;stroke-linecap:butt;stroke-linejoin:miter;stroke-miterlimit:3.79999995;stroke-dasharray:none;stroke-opacity:1"
         d="m 1436,1438 0,31 m 0,5710 0,-31 m -172,-5710 0,63 m 0,5678 0,-63" /><g
         transform="scale(10,10)"
         id="g84"><text
           id="text86"
           style="font-variant:normal;font-weight:normal;font-size:14px;font-family:Helvetica;-inkscape-font-specification:Helvetica;writing-mode:lr-tb;fill:#000000;fill-opacity:1;fill-rule:nonzero;stroke:none"
           transform="matrix(0,1,1,0,131.07,96.4803)"><tspan
             id="tspan88"
             y="0"
             x="0 7.7839999 15.568 23.351999 31.136">65536</tspan></text>
</g><path
         id="path90"
         style="fill:none;stroke:#000000;stroke-width:5;stroke-linecap:butt;stroke-linejoin:miter;stroke-miterlimit:3.79999995;stroke-dasharray:none;stroke-opacity:1"
         d="m 1093,1438 0,31 m 0,5710 0,-31 m -172,-5710 0,63 m 0,5678 0,-63" /><g
         transform="scale(10,10)"
         id="g92"><text
           id="text94"
           style="font-variant:normal;font-weight:normal;font-size:14px;font-family:Helvetica;-inkscape-font-specification:Helvetica;writing-mode:lr-tb;fill:#000000;fill-opacity:1;fill-rule:nonzero;stroke:none"
           transform="matrix(0,1,1,0,96.7699,88.6963)"><tspan
             id="tspan96"
             y="0"
             x="0 7.7839999 15.568 23.351999 31.136 38.919998">262144</tspan></text>
<text
           id="text98"
           style="font-variant:normal;font-weight:normal;font-size:13.99999809px;font-family:Helvetica;-inkscape-font-specification:Helvetica;writing-mode:lr-tb;fill:#000000;fill-opacity:1;fill-rule:nonzero;stroke:none"
           transform="matrix(0.71934,0.694658,0.694658,-0.71934,412.744,192.641)"><tspan
             id="tspan100"
             y="0"
             x="0 9.3379993 20.999998 28.783997 35.783997 43.567993 51.351994 55.243992 66.905991 74.689995 78.581993 90.243988 98.027992 105.81199 108.91999 116.70399">Amazon m3.medium</tspan><tspan
             id="tspan102"
             y="-37.549496"
             x="36.261196 45.599194 57.261192 65.045189 72.045189 79.829193 87.61319 91.505188 98.505188 106.28918 110.18119 113.28918 121.07319 125.73518 133.51918">Amazon c3.large</tspan><tspan
             id="tspan104"
             y="-75.098991"
             x="72.522392 81.86039 93.522392 101.30639 108.30639 116.09039 123.87439 127.76639 134.76639 142.55038 146.44238 149.55038 157.33438 161.99638 169.78038">Amazon c4.large</tspan><tspan
             id="tspan106"
             y="-112.64849"
             x="108.78358 119.67558 127.45959 135.24359 143.02759 146.13559 153.91959 157.81158 165.59558 173.37958 178.04158 185.04158 188.93358 196.71758 204.50157 212.28557 220.06958 224.73157 232.51558">Google n1-standard1</tspan><tspan
             id="tspan108"
             y="-150.19798"
             x="145.04478 155.93678 163.72078 171.50478 179.28877 182.39677 190.18077 194.07278 201.85678 209.64078 214.30278 221.30278 225.19478 232.97878 240.76277 248.54677 256.33078 260.99277 268.77676">Google n1-standard2</tspan><tspan
             id="tspan110"
             y="-187.67558"
             x="181.23648 192.89848 196.00648 203.00647 207.66847 215.45247 222.45247 230.23648 234.12848 238.02048 241.91248 251.25047 258.25046 266.03448 270.69647 278.48047 282.37247 292.48047 301.81845">Microsoft Azure DS1</tspan><tspan
             id="tspan112"
             y="-225.22507"
             x="217.49768 229.15967 232.26767 239.26767 243.92967 251.71367 258.71368 266.49768 270.38968 274.28168 278.17368 287.51166 294.51166 302.29565 306.95767 314.74167 318.63367 328.74167 338.07965">Microsoft Azure DS2</tspan><tspan
             id="tspan114"
             y="-262.77457"
             x="253.75887 262.31287 266.97488 274.75888 281.75888 285.65088 293.43488 300.43488 304.32687 313.66486 316.77286 321.43488 325.32687 333.11087 340.89487 344.00287 347.89487 359.55685 367.34085 374.34085 382.12485 385.23285 393.01685">Fractus Virtual Machine</tspan><tspan
             id="tspan116"
             y="-300.32407"
             x="290.02008 298.57407 303.23605 311.02005 318.02005 321.91205 329.69608 336.69608 340.58807 349.92606 357.71005 362.37207 370.15607 374.04807 385.71005 393.49405 397.38605 405.17004">Fractus Bare Metal</tspan><tspan
             id="tspan118"
             y="-337.87357"
             x="326.28125 336.38925 344.17325 347.28125 350.38925 354.28125 365.17325 372.95724 376.84924 379.95724 387.74124 390.84924 398.63324 405.63324 409.52527 417.30927 425.09326">Dell Optiplex 760</tspan></text>
</g><path
         id="path120"
         style="fill:none;stroke:#000000;stroke-width:10;stroke-linecap:butt;stroke-linejoin:miter;stroke-miterlimit:3.79999995;stroke-dasharray:none;stroke-opacity:1"
         d="m 921,1438 3090,0 0,5741 -3090,0 0,-5741 z" /><g
         transform="scale(10,10)"
         id="g122"><text
           id="text124"
           style="font-variant:normal;font-weight:normal;font-size:14px;font-family:Helvetica;-inkscape-font-specification:Helvetica;writing-mode:lr-tb;fill:#000000;fill-opacity:1;fill-rule:nonzero;stroke:none"
           transform="matrix(-1,0,0,1,331.404,65.8699)"><tspan
             id="tspan126"
             y="0"
             x="0 11.662 19.445999 27.23 34.23 42.014 46.675999 54.459999 62.243999 66.136002 76.244003 84.028 91.028 98.811996 106.596 110.488 119.826 122.934 129.93401 137.718 141.61 146.272 155.61 164.948">Measured Cache Size (KB)</tspan></text>
<text
           id="text128"
           style="font-variant:normal;font-weight:normal;font-size:14px;font-family:Helvetica;-inkscape-font-specification:Helvetica;writing-mode:lr-tb;fill:#000000;fill-opacity:1;fill-rule:nonzero;stroke:none"
           transform="matrix(0,1,1,0,75.7699,322.266)"><tspan
             id="tspan130"
             y="0"
             x="0 10.108 17.892 29.554001 37.338001 45.122002 49.784 52.891998 59.891998 67.676003 75.459999 79.351997 91.014 98.797997 106.582 113.582 121.366 126.028 133.812 141.59599 145.48801 155.59599 163.38 170.38 178.164 185.948 189.84 199.17799 202.286 209.286">Comparison:Measured Cache Size</tspan><tspan
             id="tspan132"
             y="34.299999"
             x="237.155 244.939 252.72301 256.61499 266.72299 274.50699 278.39899 286.18301 290.07501 300.18301 307.96701 314.96701 322.75101">L1 Data Cache</tspan></text>
</g><path
         id="path134"
         style="fill:#9400d4;fill-opacity:1;fill-rule:nonzero;stroke:none"
         d="m 1019,6612 70,0 0,399 -70,0 0,-399 z" /><path
         id="path136"
         style="fill:none;stroke:#000000;stroke-width:5;stroke-linecap:butt;stroke-linejoin:miter;stroke-miterlimit:3.79999995;stroke-dasharray:none;stroke-opacity:1"
         d="m 1019,6612 70,0 0,399 -70,0 0,-399 z" /><path
         id="path138"
         style="fill:#9400d4;fill-opacity:1;fill-rule:nonzero;stroke:none"
         d="m 3152,1771 859,0 0,118 -859,0 0,-118 z" /><path
         id="path140"
         style="fill:none;stroke:#000000;stroke-width:5;stroke-linecap:butt;stroke-linejoin:miter;stroke-miterlimit:3.79999995;stroke-dasharray:none;stroke-opacity:1"
         d="m 3153,1771 858,0 0,117 -858,0 0,-117 z" /><path
         id="path142"
         style="fill:#9400d4;fill-opacity:1;fill-rule:nonzero;stroke:none"
         d="m 3152,2293 859,0 0,118 -859,0 0,-118 z" /><path
         id="path144"
         style="fill:none;stroke:#000000;stroke-width:5;stroke-linecap:butt;stroke-linejoin:miter;stroke-miterlimit:3.79999995;stroke-dasharray:none;stroke-opacity:1"
         d="m 3153,2293 858,0 0,117 -858,0 0,-117 z" /><path
         id="path146"
         style="fill:#9400d4;fill-opacity:1;fill-rule:nonzero;stroke:none"
         d="m 3152,2815 859,0 0,118 -859,0 0,-118 z" /><path
         id="path148"
         style="fill:none;stroke:#000000;stroke-width:5;stroke-linecap:butt;stroke-linejoin:miter;stroke-miterlimit:3.79999995;stroke-dasharray:none;stroke-opacity:1"
         d="m 3153,2815 858,0 0,117 -858,0 0,-117 z" /><path
         id="path150"
         style="fill:#9400d4;fill-opacity:1;fill-rule:nonzero;stroke:none"
         d="m 3152,3336 859,0 0,119 -859,0 0,-119 z" /><path
         id="path152"
         style="fill:none;stroke:#000000;stroke-width:5;stroke-linecap:butt;stroke-linejoin:miter;stroke-miterlimit:3.79999995;stroke-dasharray:none;stroke-opacity:1"
         d="m 3153,3336 858,0 0,118 -858,0 0,-118 z" /><path
         id="path154"
         style="fill:#9400d4;fill-opacity:1;fill-rule:nonzero;stroke:none"
         d="m 3152,3858 859,0 0,119 -859,0 0,-119 z" /><path
         id="path156"
         style="fill:none;stroke:#000000;stroke-width:5;stroke-linecap:butt;stroke-linejoin:miter;stroke-miterlimit:3.79999995;stroke-dasharray:none;stroke-opacity:1"
         d="m 3153,3858 858,0 0,118 -858,0 0,-118 z" /><path
         id="path158"
         style="fill:#9400d4;fill-opacity:1;fill-rule:nonzero;stroke:none"
         d="m 3152,4380 859,0 0,119 -859,0 0,-119 z" /><path
         id="path160"
         style="fill:none;stroke:#000000;stroke-width:5;stroke-linecap:butt;stroke-linejoin:miter;stroke-miterlimit:3.79999995;stroke-dasharray:none;stroke-opacity:1"
         d="m 3153,4380 858,0 0,118 -858,0 0,-118 z" /><path
         id="path162"
         style="fill:#9400d4;fill-opacity:1;fill-rule:nonzero;stroke:none"
         d="m 3152,4902 859,0 0,119 -859,0 0,-119 z" /><path
         id="path164"
         style="fill:none;stroke:#000000;stroke-width:5;stroke-linecap:butt;stroke-linejoin:miter;stroke-miterlimit:3.79999995;stroke-dasharray:none;stroke-opacity:1"
         d="m 3153,4902 858,0 0,118 -858,0 0,-118 z" /><path
         id="path166"
         style="fill:#9400d4;fill-opacity:1;fill-rule:nonzero;stroke:none"
         d="m 3152,5424 859,0 0,119 -859,0 0,-119 z" /><path
         id="path168"
         style="fill:none;stroke:#000000;stroke-width:5;stroke-linecap:butt;stroke-linejoin:miter;stroke-miterlimit:3.79999995;stroke-dasharray:none;stroke-opacity:1"
         d="m 3153,5424 858,0 0,118 -858,0 0,-118 z" /><path
         id="path170"
         style="fill:#9400d4;fill-opacity:1;fill-rule:nonzero;stroke:none"
         d="m 3152,5946 859,0 0,118 -859,0 0,-118 z" /><path
         id="path172"
         style="fill:none;stroke:#000000;stroke-width:5;stroke-linecap:butt;stroke-linejoin:miter;stroke-miterlimit:3.79999995;stroke-dasharray:none;stroke-opacity:1"
         d="m 3153,5946 858,0 0,117 -858,0 0,-117 z" /><path
         id="path174"
         style="fill:#9400d4;fill-opacity:1;fill-rule:nonzero;stroke:none"
         d="m 3152,6468 859,0 0,118 -859,0 0,-118 z" /><path
         id="path176"
         style="fill:none;stroke:#000000;stroke-width:5;stroke-linecap:butt;stroke-linejoin:miter;stroke-miterlimit:3.79999995;stroke-dasharray:none;stroke-opacity:1"
         d="m 3153,6468 858,0 0,117 -858,0 0,-117 z" /><g
         transform="scale(10,10)"
         id="g178"><text
           id="text180"
           style="font-variant:normal;font-weight:normal;font-size:14px;font-family:Helvetica;-inkscape-font-specification:Helvetica;writing-mode:lr-tb;fill:#000000;fill-opacity:1;fill-rule:nonzero;stroke:none"
           transform="matrix(0,1,1,0,124.07,592.88)"><tspan
             id="tspan182"
             y="0"
             x="0 7.7839999 15.568 19.459999 29.568001 37.352001 44.352001 52.136002">L2 Cache</tspan></text>
</g><path
         id="path184"
         style="fill:#009e73;fill-opacity:1;fill-rule:nonzero;stroke:none"
         d="m 1159,6612 70,0 0,399 -70,0 0,-399 z" /><path
         id="path186"
         style="fill:none;stroke:#000000;stroke-width:5;stroke-linecap:butt;stroke-linejoin:miter;stroke-miterlimit:3.79999995;stroke-dasharray:none;stroke-opacity:1"
         d="m 1159,6612 70,0 0,399 -70,0 0,-399 z" /><path
         id="path188"
         style="fill:#009e73;fill-opacity:1;fill-rule:nonzero;stroke:none"
         d="m 2637,1901 1374,0 0,119 -1374,0 0,-119 z" /><path
         id="path190"
         style="fill:none;stroke:#000000;stroke-width:5;stroke-linecap:butt;stroke-linejoin:miter;stroke-miterlimit:3.79999995;stroke-dasharray:none;stroke-opacity:1"
         d="m 2638,1901 1373,0 0,118 -1373,0 0,-118 z" /><path
         id="path192"
         style="fill:#009e73;fill-opacity:1;fill-rule:nonzero;stroke:none"
         d="m 2637,2423 1374,0 0,119 -1374,0 0,-119 z" /><path
         id="path194"
         style="fill:none;stroke:#000000;stroke-width:5;stroke-linecap:butt;stroke-linejoin:miter;stroke-miterlimit:3.79999995;stroke-dasharray:none;stroke-opacity:1"
         d="m 2638,2423 1373,0 0,118 -1373,0 0,-118 z" /><path
         id="path196"
         style="fill:#009e73;fill-opacity:1;fill-rule:nonzero;stroke:none"
         d="m 2637,2945 1374,0 0,118 -1374,0 0,-118 z" /><path
         id="path198"
         style="fill:none;stroke:#000000;stroke-width:5;stroke-linecap:butt;stroke-linejoin:miter;stroke-miterlimit:3.79999995;stroke-dasharray:none;stroke-opacity:1"
         d="m 2638,2945 1373,0 0,117 -1373,0 0,-117 z" /><path
         id="path200"
         style="fill:#009e73;fill-opacity:1;fill-rule:nonzero;stroke:none"
         d="m 2637,3467 1374,0 0,118 -1374,0 0,-118 z" /><path
         id="path202"
         style="fill:none;stroke:#000000;stroke-width:5;stroke-linecap:butt;stroke-linejoin:miter;stroke-miterlimit:3.79999995;stroke-dasharray:none;stroke-opacity:1"
         d="m 2638,3467 1373,0 0,117 -1373,0 0,-117 z" /><path
         id="path204"
         style="fill:#009e73;fill-opacity:1;fill-rule:nonzero;stroke:none"
         d="m 2637,3989 1374,0 0,118 -1374,0 0,-118 z" /><path
         id="path206"
         style="fill:none;stroke:#000000;stroke-width:5;stroke-linecap:butt;stroke-linejoin:miter;stroke-miterlimit:3.79999995;stroke-dasharray:none;stroke-opacity:1"
         d="m 2638,3989 1373,0 0,117 -1373,0 0,-117 z" /><path
         id="path208"
         style="fill:#009e73;fill-opacity:1;fill-rule:nonzero;stroke:none"
         d="m 2637,4511 1374,0 0,118 -1374,0 0,-118 z" /><path
         id="path210"
         style="fill:none;stroke:#000000;stroke-width:5;stroke-linecap:butt;stroke-linejoin:miter;stroke-miterlimit:3.79999995;stroke-dasharray:none;stroke-opacity:1"
         d="m 2638,4511 1373,0 0,117 -1373,0 0,-117 z" /><path
         id="path212"
         style="fill:#009e73;fill-opacity:1;fill-rule:nonzero;stroke:none"
         d="m 2637,5033 1374,0 0,118 -1374,0 0,-118 z" /><path
         id="path214"
         style="fill:none;stroke:#000000;stroke-width:5;stroke-linecap:butt;stroke-linejoin:miter;stroke-miterlimit:3.79999995;stroke-dasharray:none;stroke-opacity:1"
         d="m 2638,5033 1373,0 0,117 -1373,0 0,-117 z" /><path
         id="path216"
         style="fill:#009e73;fill-opacity:1;fill-rule:nonzero;stroke:none"
         d="m 2637,5555 1374,0 0,118 -1374,0 0,-118 z" /><path
         id="path218"
         style="fill:none;stroke:#000000;stroke-width:5;stroke-linecap:butt;stroke-linejoin:miter;stroke-miterlimit:3.79999995;stroke-dasharray:none;stroke-opacity:1"
         d="m 2638,5555 1373,0 0,117 -1373,0 0,-117 z" /><path
         id="path220"
         style="fill:#009e73;fill-opacity:1;fill-rule:nonzero;stroke:none"
         d="m 2637,6076 1374,0 0,119 -1374,0 0,-119 z" /><path
         id="path222"
         style="fill:none;stroke:#000000;stroke-width:5;stroke-linecap:butt;stroke-linejoin:miter;stroke-miterlimit:3.79999995;stroke-dasharray:none;stroke-opacity:1"
         d="m 2638,6076 1373,0 0,118 -1373,0 0,-118 z" /><path
         id="path224"
         style="fill:#009e73;fill-opacity:1;fill-rule:nonzero;stroke:none"
         d="m 1850,6598 2161,0 0,119 -2161,0 0,-119 z" /><path
         id="path226"
         style="fill:none;stroke:#000000;stroke-width:5;stroke-linecap:butt;stroke-linejoin:miter;stroke-miterlimit:3.79999995;stroke-dasharray:none;stroke-opacity:1"
         d="m 1851,6598 2160,0 0,118 -2160,0 0,-118 z" /><g
         transform="scale(10,10)"
         id="g228"><text
           id="text230"
           style="font-variant:normal;font-weight:normal;font-size:14px;font-family:Helvetica;-inkscape-font-specification:Helvetica;writing-mode:lr-tb;fill:#000000;fill-opacity:1;fill-rule:nonzero;stroke:none"
           transform="matrix(0,1,1,0,138.07,592.88)"><tspan
             id="tspan232"
             y="0"
             x="0 7.7839999 15.568 19.459999 29.568001 37.352001 44.352001 52.136002">L3 Cache</tspan></text>
</g><path
         id="path234"
         style="fill:#57b5e8;fill-opacity:1;fill-rule:nonzero;stroke:none"
         d="m 1299,6612 70,0 0,399 -70,0 0,-399 z" /><path
         id="path236"
         style="fill:none;stroke:#000000;stroke-width:5;stroke-linecap:butt;stroke-linejoin:miter;stroke-miterlimit:3.79999995;stroke-dasharray:none;stroke-opacity:1"
         d="m 1299,6612 70,0 0,399 -70,0 0,-399 z" /><path
         id="path238"
         style="fill:#57b5e8;fill-opacity:1;fill-rule:nonzero;stroke:none"
         d="m 1496,2032 2515,0 0,118 -2515,0 0,-118 z" /><path
         id="path240"
         style="fill:none;stroke:#000000;stroke-width:5;stroke-linecap:butt;stroke-linejoin:miter;stroke-miterlimit:3.79999995;stroke-dasharray:none;stroke-opacity:1"
         d="m 1497,2032 2514,0 0,117 -2514,0 0,-117 z" /><path
         id="path242"
         style="fill:#57b5e8;fill-opacity:1;fill-rule:nonzero;stroke:none"
         d="m 1496,2554 2515,0 0,118 -2515,0 0,-118 z" /><path
         id="path244"
         style="fill:none;stroke:#000000;stroke-width:5;stroke-linecap:butt;stroke-linejoin:miter;stroke-miterlimit:3.79999995;stroke-dasharray:none;stroke-opacity:1"
         d="m 1497,2554 2514,0 0,117 -2514,0 0,-117 z" /><path
         id="path246"
         style="fill:#57b5e8;fill-opacity:1;fill-rule:nonzero;stroke:none"
         d="m 1496,3075 2515,0 0,119 -2515,0 0,-119 z" /><path
         id="path248"
         style="fill:none;stroke:#000000;stroke-width:5;stroke-linecap:butt;stroke-linejoin:miter;stroke-miterlimit:3.79999995;stroke-dasharray:none;stroke-opacity:1"
         d="m 1497,3075 2514,0 0,118 -2514,0 0,-118 z" /><path
         id="path250"
         style="fill:#57b5e8;fill-opacity:1;fill-rule:nonzero;stroke:none"
         d="m 1474,3597 2537,0 0,119 -2537,0 0,-119 z" /><path
         id="path252"
         style="fill:none;stroke:#000000;stroke-width:5;stroke-linecap:butt;stroke-linejoin:miter;stroke-miterlimit:3.79999995;stroke-dasharray:none;stroke-opacity:1"
         d="m 1475,3597 2536,0 0,118 -2536,0 0,-118 z" /><path
         id="path254"
         style="fill:#57b5e8;fill-opacity:1;fill-rule:nonzero;stroke:none"
         d="m 1474,4119 2537,0 0,119 -2537,0 0,-119 z" /><path
         id="path256"
         style="fill:none;stroke:#000000;stroke-width:5;stroke-linecap:butt;stroke-linejoin:miter;stroke-miterlimit:3.79999995;stroke-dasharray:none;stroke-opacity:1"
         d="m 1475,4119 2536,0 0,118 -2536,0 0,-118 z" /><path
         id="path258"
         style="fill:#57b5e8;fill-opacity:1;fill-rule:nonzero;stroke:none"
         d="m 1451,4641 2560,0 0,119 -2560,0 0,-119 z" /><path
         id="path260"
         style="fill:none;stroke:#000000;stroke-width:5;stroke-linecap:butt;stroke-linejoin:miter;stroke-miterlimit:3.79999995;stroke-dasharray:none;stroke-opacity:1"
         d="m 1452,4641 2559,0 0,118 -2559,0 0,-118 z" /><path
         id="path262"
         style="fill:#57b5e8;fill-opacity:1;fill-rule:nonzero;stroke:none"
         d="m 1451,5163 2560,0 0,119 -2560,0 0,-119 z" /><path
         id="path264"
         style="fill:none;stroke:#000000;stroke-width:5;stroke-linecap:butt;stroke-linejoin:miter;stroke-miterlimit:3.79999995;stroke-dasharray:none;stroke-opacity:1"
         d="m 1452,5163 2559,0 0,118 -2559,0 0,-118 z" /><path
         id="path266"
         style="fill:#57b5e8;fill-opacity:1;fill-rule:nonzero;stroke:none"
         d="m 1551,5685 2460,0 0,118 -2460,0 0,-118 z" /><path
         id="path268"
         style="fill:none;stroke:#000000;stroke-width:5;stroke-linecap:butt;stroke-linejoin:miter;stroke-miterlimit:3.79999995;stroke-dasharray:none;stroke-opacity:1"
         d="m 1552,5685 2459,0 0,117 -2459,0 0,-117 z" /><path
         id="path270"
         style="fill:#57b5e8;fill-opacity:1;fill-rule:nonzero;stroke:none"
         d="m 1551,6207 2460,0 0,118 -2460,0 0,-118 z" /><path
         id="path272"
         style="fill:none;stroke:#000000;stroke-width:5;stroke-linecap:butt;stroke-linejoin:miter;stroke-miterlimit:3.79999995;stroke-dasharray:none;stroke-opacity:1"
         d="m 1552,6207 2459,0 0,117 -2459,0 0,-117 z" /><path
         id="path274"
         style="fill:none;stroke:#000000;stroke-width:10;stroke-linecap:butt;stroke-linejoin:miter;stroke-miterlimit:3.79999995;stroke-dasharray:none;stroke-opacity:1"
         d="m 921,1438 3090,0 0,5741 -3090,0 0,-5741 z" /></g></g></svg>