<?xml version="1.0" encoding="UTF-8" standalone="no"?>
<!-- Created with Inkscape (http://www.inkscape.org/) -->

<svg
   xmlns:dc="http://purl.org/dc/elements/1.1/"
   xmlns:cc="http://creativecommons.org/ns#"
   xmlns:rdf="http://www.w3.org/1999/02/22-rdf-syntax-ns#"
   xmlns:svg="http://www.w3.org/2000/svg"
   xmlns="http://www.w3.org/2000/svg"
   xmlns:inkscape="http://www.inkscape.org/namespaces/inkscape"
   version="1.1"
   width="990"
   height="765"
   id="svg2"
   xml:space="preserve"><metadata
     id="metadata8"><rdf:RDF><cc:Work
         rdf:about=""><dc:format>image/svg+xml</dc:format><dc:type
           rdf:resource="http://purl.org/dc/dcmitype/StillImage" /></cc:Work></rdf:RDF></metadata><defs
     id="defs6"><clipPath
       id="clipPath12"><path
         d="M 0,0 612,0 612,792 0,792 0,0 z"
         inkscape:connector-curvature="0"
         id="path14" /></clipPath></defs><g
     transform="matrix(0,1.25,1.25,0,0,0)"
     clip-path="url(#clipPath12)"
     id="g10"><g
       transform="scale(0.1,0.1)"
       id="g16"><path
         d="m 3843,1438 0,63 m 0,5678 0,-63"
         inkscape:connector-curvature="0"
         id="path18"
         style="fill:none;stroke:#000000;stroke-width:5;stroke-linecap:butt;stroke-linejoin:miter;stroke-miterlimit:3.79999995;stroke-opacity:1;stroke-dasharray:none" /><g
         transform="scale(10,10)"
         id="g20"><text
           transform="matrix(0,1,1,0,388.97,127.616)"
           id="text22"><tspan
             x="0"
             y="0"
             id="tspan24"
             style="font-size:14px;font-variant:normal;font-weight:normal;writing-mode:lr-tb;fill:#000000;fill-opacity:1;fill-rule:nonzero;stroke:none;font-family:Helvetica;-inkscape-font-specification:Helvetica">1</tspan></text>
</g><path
         d="m 3681,1438 0,31 m 0,5710 0,-31 m -163,-5710 0,63 m 0,5678 0,-63"
         inkscape:connector-curvature="0"
         id="path26"
         style="fill:none;stroke:#000000;stroke-width:5;stroke-linecap:butt;stroke-linejoin:miter;stroke-miterlimit:3.79999995;stroke-opacity:1;stroke-dasharray:none" /><g
         transform="scale(10,10)"
         id="g28"><text
           transform="matrix(0,1,1,0,356.47,127.616)"
           id="text30"><tspan
             x="0"
             y="0"
             id="tspan32"
             style="font-size:14px;font-variant:normal;font-weight:normal;writing-mode:lr-tb;fill:#000000;fill-opacity:1;fill-rule:nonzero;stroke:none;font-family:Helvetica;-inkscape-font-specification:Helvetica">4</tspan></text>
</g><path
         d="m 3356,1438 0,31 m 0,5710 0,-31 m -162,-5710 0,63 m 0,5678 0,-63"
         inkscape:connector-curvature="0"
         id="path34"
         style="fill:none;stroke:#000000;stroke-width:5;stroke-linecap:butt;stroke-linejoin:miter;stroke-miterlimit:3.79999995;stroke-opacity:1;stroke-dasharray:none" /><g
         transform="scale(10,10)"
         id="g36"><text
           transform="matrix(0,1,1,0,324.07,119.832)"
           id="text38"><tspan
             x="0 7.7839999"
             y="0"
             id="tspan40"
             style="font-size:14px;font-variant:normal;font-weight:normal;writing-mode:lr-tb;fill:#000000;fill-opacity:1;fill-rule:nonzero;stroke:none;font-family:Helvetica;-inkscape-font-specification:Helvetica">16</tspan></text>
</g><path
         d="m 3031,1438 0,31 m 0,5710 0,-31 m -162,-5710 0,63 m 0,5678 0,-63"
         inkscape:connector-curvature="0"
         id="path42"
         style="fill:none;stroke:#000000;stroke-width:5;stroke-linecap:butt;stroke-linejoin:miter;stroke-miterlimit:3.79999995;stroke-opacity:1;stroke-dasharray:none" /><g
         transform="scale(10,10)"
         id="g44"><text
           transform="matrix(0,1,1,0,291.57,119.832)"
           id="text46"><tspan
             x="0 7.7839999"
             y="0"
             id="tspan48"
             style="font-size:14px;font-variant:normal;font-weight:normal;writing-mode:lr-tb;fill:#000000;fill-opacity:1;fill-rule:nonzero;stroke:none;font-family:Helvetica;-inkscape-font-specification:Helvetica">64</tspan></text>
</g><path
         d="m 2707,1438 0,31 m 0,5710 0,-31 m -163,-5710 0,63 m 0,5678 0,-63"
         inkscape:connector-curvature="0"
         id="path50"
         style="fill:none;stroke:#000000;stroke-width:5;stroke-linecap:butt;stroke-linejoin:miter;stroke-miterlimit:3.79999995;stroke-opacity:1;stroke-dasharray:none" /><g
         transform="scale(10,10)"
         id="g52"><text
           transform="matrix(0,1,1,0,259.07,112.048)"
           id="text54"><tspan
             x="0 7.7839999 15.568"
             y="0"
             id="tspan56"
             style="font-size:14px;font-variant:normal;font-weight:normal;writing-mode:lr-tb;fill:#000000;fill-opacity:1;fill-rule:nonzero;stroke:none;font-family:Helvetica;-inkscape-font-specification:Helvetica">256</tspan></text>
</g><path
         d="m 2382,1438 0,31 m 0,5710 0,-31 m -162,-5710 0,63 m 0,5678 0,-63"
         inkscape:connector-curvature="0"
         id="path58"
         style="fill:none;stroke:#000000;stroke-width:5;stroke-linecap:butt;stroke-linejoin:miter;stroke-miterlimit:3.79999995;stroke-opacity:1;stroke-dasharray:none" /><g
         transform="scale(10,10)"
         id="g60"><text
           transform="matrix(0,1,1,0,226.67,104.264)"
           id="text62"><tspan
             x="0 7.7839999 15.568 23.351999"
             y="0"
             id="tspan64"
             style="font-size:14px;font-variant:normal;font-weight:normal;writing-mode:lr-tb;fill:#000000;fill-opacity:1;fill-rule:nonzero;stroke:none;font-family:Helvetica;-inkscape-font-specification:Helvetica">1024</tspan></text>
</g><path
         d="m 2057,1438 0,31 m 0,5710 0,-31 m -162,-5710 0,63 m 0,5678 0,-63"
         inkscape:connector-curvature="0"
         id="path66"
         style="fill:none;stroke:#000000;stroke-width:5;stroke-linecap:butt;stroke-linejoin:miter;stroke-miterlimit:3.79999995;stroke-opacity:1;stroke-dasharray:none" /><g
         transform="scale(10,10)"
         id="g68"><text
           transform="matrix(0,1,1,0,194.17,104.264)"
           id="text70"><tspan
             x="0 7.7839999 15.568 23.351999"
             y="0"
             id="tspan72"
             style="font-size:14px;font-variant:normal;font-weight:normal;writing-mode:lr-tb;fill:#000000;fill-opacity:1;fill-rule:nonzero;stroke:none;font-family:Helvetica;-inkscape-font-specification:Helvetica">4096</tspan></text>
</g><path
         d="m 1733,1438 0,31 m 0,5710 0,-31 m -163,-5710 0,63 m 0,5678 0,-63"
         inkscape:connector-curvature="0"
         id="path74"
         style="fill:none;stroke:#000000;stroke-width:5;stroke-linecap:butt;stroke-linejoin:miter;stroke-miterlimit:3.79999995;stroke-opacity:1;stroke-dasharray:none" /><g
         transform="scale(10,10)"
         id="g76"><text
           transform="matrix(0,1,1,0,161.67,96.4803)"
           id="text78"><tspan
             x="0 7.7839999 15.568 23.351999 31.136"
             y="0"
             id="tspan80"
             style="font-size:14px;font-variant:normal;font-weight:normal;writing-mode:lr-tb;fill:#000000;fill-opacity:1;fill-rule:nonzero;stroke:none;font-family:Helvetica;-inkscape-font-specification:Helvetica">16384</tspan></text>
</g><path
         d="m 1408,1438 0,31 m 0,5710 0,-31 m -162,-5710 0,63 m 0,5678 0,-63"
         inkscape:connector-curvature="0"
         id="path82"
         style="fill:none;stroke:#000000;stroke-width:5;stroke-linecap:butt;stroke-linejoin:miter;stroke-miterlimit:3.79999995;stroke-opacity:1;stroke-dasharray:none" /><g
         transform="scale(10,10)"
         id="g84"><text
           transform="matrix(0,1,1,0,129.27,96.4803)"
           id="text86"><tspan
             x="0 7.7839999 15.568 23.351999 31.136"
             y="0"
             id="tspan88"
             style="font-size:14px;font-variant:normal;font-weight:normal;writing-mode:lr-tb;fill:#000000;fill-opacity:1;fill-rule:nonzero;stroke:none;font-family:Helvetica;-inkscape-font-specification:Helvetica">65536</tspan></text>
</g><path
         d="m 1083,1438 0,31 m 0,5710 0,-31 m -162,-5710 0,63 m 0,5678 0,-63"
         inkscape:connector-curvature="0"
         id="path90"
         style="fill:none;stroke:#000000;stroke-width:5;stroke-linecap:butt;stroke-linejoin:miter;stroke-miterlimit:3.79999995;stroke-opacity:1;stroke-dasharray:none" /><g
         transform="scale(10,10)"
         id="g92"><text
           transform="matrix(0,1,1,0,96.7699,88.6963)"
           id="text94"><tspan
             x="0 7.7839999 15.568 23.351999 31.136 38.919998"
             y="0"
             id="tspan96"
             style="font-size:14px;font-variant:normal;font-weight:normal;writing-mode:lr-tb;fill:#000000;fill-opacity:1;fill-rule:nonzero;stroke:none;font-family:Helvetica;-inkscape-font-specification:Helvetica">262144</tspan></text>
<text
           transform="matrix(0.71934,0.694658,0.694658,-0.71934,395.944,192.641)"
           id="text98"><tspan
             x="0 9.3379993 20.999998 28.783997 35.783997 43.567993 51.351994 55.243992 66.905991 74.689995 78.581993 90.243988 98.027992 105.81199 108.91999 116.70399"
             y="0"
             id="tspan100"
             style="font-size:13.99999809px;font-variant:normal;font-weight:normal;writing-mode:lr-tb;fill:#000000;fill-opacity:1;fill-rule:nonzero;stroke:none;font-family:Helvetica;-inkscape-font-specification:Helvetica">Amazon m3.medium</tspan><tspan
             x="36.261196 45.599194 57.261192 65.045189 72.045189 79.829193 87.61319 91.505188 98.505188 106.28918 110.18119 113.28918 121.07319 125.73518 133.51918"
             y="-37.549496"
             id="tspan102"
             style="font-size:13.99999809px;font-variant:normal;font-weight:normal;writing-mode:lr-tb;fill:#000000;fill-opacity:1;fill-rule:nonzero;stroke:none;font-family:Helvetica;-inkscape-font-specification:Helvetica">Amazon c3.large</tspan><tspan
             x="72.522392 81.86039 93.522392 101.30639 108.30639 116.09039 123.87439 127.76639 134.76639 142.55038 146.44238 149.55038 157.33438 161.99638 169.78038"
             y="-75.098991"
             id="tspan104"
             style="font-size:13.99999809px;font-variant:normal;font-weight:normal;writing-mode:lr-tb;fill:#000000;fill-opacity:1;fill-rule:nonzero;stroke:none;font-family:Helvetica;-inkscape-font-specification:Helvetica">Amazon c4.large</tspan><tspan
             x="108.78358 119.67558 127.45959 135.24359 143.02759 146.13559 153.91959 157.81158 165.59558 173.37958 178.04158 185.04158 188.93358 196.71758 204.50157 212.28557 220.06958 224.73157 232.51558"
             y="-112.64849"
             id="tspan106"
             style="font-size:13.99999809px;font-variant:normal;font-weight:normal;writing-mode:lr-tb;fill:#000000;fill-opacity:1;fill-rule:nonzero;stroke:none;font-family:Helvetica;-inkscape-font-specification:Helvetica">Google n1-standard1</tspan><tspan
             x="145.04478 155.93678 163.72078 171.50478 179.28877 182.39677 190.18077 194.07278 201.85678 209.64078 214.30278 221.30278 225.19478 232.97878 240.76277 248.54677 256.33078 260.99277 268.77676"
             y="-150.19798"
             id="tspan108"
             style="font-size:13.99999809px;font-variant:normal;font-weight:normal;writing-mode:lr-tb;fill:#000000;fill-opacity:1;fill-rule:nonzero;stroke:none;font-family:Helvetica;-inkscape-font-specification:Helvetica">Google n1-standard2</tspan><tspan
             x="181.23648 192.89848 196.00648 203.00647 207.66847 215.45247 222.45247 230.23648 234.12848 238.02048 241.91248 251.25047 258.25046 266.03448 270.69647 278.48047 282.37247 292.48047 301.81845"
             y="-187.67558"
             id="tspan110"
             style="font-size:13.99999809px;font-variant:normal;font-weight:normal;writing-mode:lr-tb;fill:#000000;fill-opacity:1;fill-rule:nonzero;stroke:none;font-family:Helvetica;-inkscape-font-specification:Helvetica">Microsoft Azure DS1</tspan><tspan
             x="217.49768 229.15967 232.26767 239.26767 243.92967 251.71367 258.71368 266.49768 270.38968 274.28168 278.17368 287.51166 294.51166 302.29565 306.95767 314.74167 318.63367 328.74167 338.07965"
             y="-225.22507"
             id="tspan112"
             style="font-size:13.99999809px;font-variant:normal;font-weight:normal;writing-mode:lr-tb;fill:#000000;fill-opacity:1;fill-rule:nonzero;stroke:none;font-family:Helvetica;-inkscape-font-specification:Helvetica">Microsoft Azure DS2</tspan><tspan
             x="253.75887 262.31287 266.97488 274.75888 281.75888 285.65088 293.43488 300.43488 304.32687 313.66486 316.77286 321.43488 325.32687 333.11087 340.89487 344.00287 347.89487 359.55685 367.34085 374.34085 382.12485 385.23285 393.01685"
             y="-262.77457"
             id="tspan114"
             style="font-size:13.99999809px;font-variant:normal;font-weight:normal;writing-mode:lr-tb;fill:#000000;fill-opacity:1;fill-rule:nonzero;stroke:none;font-family:Helvetica;-inkscape-font-specification:Helvetica">Fractus Virtual Machine</tspan><tspan
             x="290.02008 298.57407 303.23605 311.02005 318.02005 321.91205 329.69608 336.69608 340.58807 349.92606 357.71005 362.37207 370.15607 374.04807 385.71005 393.49405 397.38605 405.17004"
             y="-300.32407"
             id="tspan116"
             style="font-size:13.99999809px;font-variant:normal;font-weight:normal;writing-mode:lr-tb;fill:#000000;fill-opacity:1;fill-rule:nonzero;stroke:none;font-family:Helvetica;-inkscape-font-specification:Helvetica">Fractus Bare Metal</tspan><tspan
             x="326.28125 336.38925 344.17325 347.28125 350.38925 354.28125 365.17325 372.95724 376.84924 379.95724 387.74124 390.84924 398.63324 405.63324 409.52527 417.30927 425.09326"
             y="-337.87357"
             id="tspan118"
             style="font-size:13.99999809px;font-variant:normal;font-weight:normal;writing-mode:lr-tb;fill:#000000;fill-opacity:1;fill-rule:nonzero;stroke:none;font-family:Helvetica;-inkscape-font-specification:Helvetica">Dell Optiplex 760</tspan></text>
</g><path
         d="m 921,1438 2922,0 0,5741 -2922,0 0,-5741 z"
         inkscape:connector-curvature="0"
         id="path120"
         style="fill:none;stroke:#000000;stroke-width:10;stroke-linecap:butt;stroke-linejoin:miter;stroke-miterlimit:3.79999995;stroke-opacity:1;stroke-dasharray:none" /><g
         transform="scale(10,10)"
         id="g122"><text
           transform="matrix(-1,0,0,1,323.004,65.8699)"
           id="text124"><tspan
             x="0 11.662 19.445999 27.23 34.23 42.014 46.675999 54.459999 62.243999 66.136002 76.244003 84.028 91.028 98.811996 106.596 110.488 119.826 122.934 129.93401 137.718 141.61 146.272 155.61 164.948"
             y="0"
             id="tspan126"
             style="font-size:14px;font-variant:normal;font-weight:normal;writing-mode:lr-tb;fill:#000000;fill-opacity:1;fill-rule:nonzero;stroke:none;font-family:Helvetica;-inkscape-font-specification:Helvetica">Measured Cache Size (KB)</tspan></text>
<text
           transform="matrix(0,1,1,0,548.87,394.24)"
           id="text128"><tspan
             x="0 9.3380003 21 24.892 34.23 42.014 46.675999 53.675999 61.459999 66.122002"
             y="0"
             id="tspan130"
             style="font-size:14px;font-variant:normal;font-weight:normal;writing-mode:lr-tb;fill:#000000;fill-opacity:1;fill-rule:nonzero;stroke:none;font-family:Helvetica;-inkscape-font-specification:Helvetica">VM/Servers</tspan><tspan
             x="-71.973396 -61.865398 -54.081402 -42.419399 -34.635399 -26.8514 -22.1894 -19.0814 -12.0814 -4.2974 3.4865999 7.3786001 19.0406 26.8246 34.608601 41.608601 49.392601 54.0546 61.8386 69.622597 73.514603 83.622597 91.406601 98.406601 106.1906 113.9746 117.8666 127.2046 130.31261 137.31261"
             y="-473.10001"
             id="tspan132"
             style="font-size:14px;font-variant:normal;font-weight:normal;writing-mode:lr-tb;fill:#000000;fill-opacity:1;fill-rule:nonzero;stroke:none;font-family:Helvetica;-inkscape-font-specification:Helvetica">Comparison:Measured Cache Size</tspan><tspan
             x="165.18159 172.96561 180.7496 184.6416 194.7496 202.5336 206.4256 214.20959 218.10159 228.20959 235.99361 242.99361 250.7776"
             y="-438.79999"
             id="tspan134"
             style="font-size:14px;font-variant:normal;font-weight:normal;writing-mode:lr-tb;fill:#000000;fill-opacity:1;fill-rule:nonzero;stroke:none;font-family:Helvetica;-inkscape-font-specification:Helvetica">L1 Data Cache</tspan></text>
</g><path
         d="m 1019,6612 70,0 0,399 -70,0 0,-399 z"
         inkscape:connector-curvature="0"
         id="path136"
         style="fill:#9400d4;fill-opacity:1;fill-rule:nonzero;stroke:none" /><path
         d="m 1019,6612 70,0 0,399 -70,0 0,-399 z"
         inkscape:connector-curvature="0"
         id="path138"
         style="fill:none;stroke:#000000;stroke-width:5;stroke-linecap:butt;stroke-linejoin:miter;stroke-miterlimit:3.79999995;stroke-opacity:1;stroke-dasharray:none" /><path
         d="m 3030,1771 813,0 0,118 -813,0 0,-118 z"
         inkscape:connector-curvature="0"
         id="path140"
         style="fill:#9400d4;fill-opacity:1;fill-rule:nonzero;stroke:none" /><path
         d="m 3031,1771 812,0 0,117 -812,0 0,-117 z"
         inkscape:connector-curvature="0"
         id="path142"
         style="fill:none;stroke:#000000;stroke-width:5;stroke-linecap:butt;stroke-linejoin:miter;stroke-miterlimit:3.79999995;stroke-opacity:1;stroke-dasharray:none" /><path
         d="m 3030,2293 813,0 0,118 -813,0 0,-118 z"
         inkscape:connector-curvature="0"
         id="path144"
         style="fill:#9400d4;fill-opacity:1;fill-rule:nonzero;stroke:none" /><path
         d="m 3031,2293 812,0 0,117 -812,0 0,-117 z"
         inkscape:connector-curvature="0"
         id="path146"
         style="fill:none;stroke:#000000;stroke-width:5;stroke-linecap:butt;stroke-linejoin:miter;stroke-miterlimit:3.79999995;stroke-opacity:1;stroke-dasharray:none" /><path
         d="m 3030,2815 813,0 0,118 -813,0 0,-118 z"
         inkscape:connector-curvature="0"
         id="path148"
         style="fill:#9400d4;fill-opacity:1;fill-rule:nonzero;stroke:none" /><path
         d="m 3031,2815 812,0 0,117 -812,0 0,-117 z"
         inkscape:connector-curvature="0"
         id="path150"
         style="fill:none;stroke:#000000;stroke-width:5;stroke-linecap:butt;stroke-linejoin:miter;stroke-miterlimit:3.79999995;stroke-opacity:1;stroke-dasharray:none" /><path
         d="m 3030,3336 813,0 0,119 -813,0 0,-119 z"
         inkscape:connector-curvature="0"
         id="path152"
         style="fill:#9400d4;fill-opacity:1;fill-rule:nonzero;stroke:none" /><path
         d="m 3031,3336 812,0 0,118 -812,0 0,-118 z"
         inkscape:connector-curvature="0"
         id="path154"
         style="fill:none;stroke:#000000;stroke-width:5;stroke-linecap:butt;stroke-linejoin:miter;stroke-miterlimit:3.79999995;stroke-opacity:1;stroke-dasharray:none" /><path
         d="m 3030,3858 813,0 0,119 -813,0 0,-119 z"
         inkscape:connector-curvature="0"
         id="path156"
         style="fill:#9400d4;fill-opacity:1;fill-rule:nonzero;stroke:none" /><path
         d="m 3031,3858 812,0 0,118 -812,0 0,-118 z"
         inkscape:connector-curvature="0"
         id="path158"
         style="fill:none;stroke:#000000;stroke-width:5;stroke-linecap:butt;stroke-linejoin:miter;stroke-miterlimit:3.79999995;stroke-opacity:1;stroke-dasharray:none" /><path
         d="m 3030,4380 813,0 0,119 -813,0 0,-119 z"
         inkscape:connector-curvature="0"
         id="path160"
         style="fill:#9400d4;fill-opacity:1;fill-rule:nonzero;stroke:none" /><path
         d="m 3031,4380 812,0 0,118 -812,0 0,-118 z"
         inkscape:connector-curvature="0"
         id="path162"
         style="fill:none;stroke:#000000;stroke-width:5;stroke-linecap:butt;stroke-linejoin:miter;stroke-miterlimit:3.79999995;stroke-opacity:1;stroke-dasharray:none" /><path
         d="m 3030,4902 813,0 0,119 -813,0 0,-119 z"
         inkscape:connector-curvature="0"
         id="path164"
         style="fill:#9400d4;fill-opacity:1;fill-rule:nonzero;stroke:none" /><path
         d="m 3031,4902 812,0 0,118 -812,0 0,-118 z"
         inkscape:connector-curvature="0"
         id="path166"
         style="fill:none;stroke:#000000;stroke-width:5;stroke-linecap:butt;stroke-linejoin:miter;stroke-miterlimit:3.79999995;stroke-opacity:1;stroke-dasharray:none" /><path
         d="m 3030,5424 813,0 0,119 -813,0 0,-119 z"
         inkscape:connector-curvature="0"
         id="path168"
         style="fill:#9400d4;fill-opacity:1;fill-rule:nonzero;stroke:none" /><path
         d="m 3031,5424 812,0 0,118 -812,0 0,-118 z"
         inkscape:connector-curvature="0"
         id="path170"
         style="fill:none;stroke:#000000;stroke-width:5;stroke-linecap:butt;stroke-linejoin:miter;stroke-miterlimit:3.79999995;stroke-opacity:1;stroke-dasharray:none" /><path
         d="m 3030,5946 813,0 0,118 -813,0 0,-118 z"
         inkscape:connector-curvature="0"
         id="path172"
         style="fill:#9400d4;fill-opacity:1;fill-rule:nonzero;stroke:none" /><path
         d="m 3031,5946 812,0 0,117 -812,0 0,-117 z"
         inkscape:connector-curvature="0"
         id="path174"
         style="fill:none;stroke:#000000;stroke-width:5;stroke-linecap:butt;stroke-linejoin:miter;stroke-miterlimit:3.79999995;stroke-opacity:1;stroke-dasharray:none" /><path
         d="m 3030,6468 813,0 0,118 -813,0 0,-118 z"
         inkscape:connector-curvature="0"
         id="path176"
         style="fill:#9400d4;fill-opacity:1;fill-rule:nonzero;stroke:none" /><path
         d="m 3031,6468 812,0 0,117 -812,0 0,-117 z"
         inkscape:connector-curvature="0"
         id="path178"
         style="fill:none;stroke:#000000;stroke-width:5;stroke-linecap:butt;stroke-linejoin:miter;stroke-miterlimit:3.79999995;stroke-opacity:1;stroke-dasharray:none" /><g
         transform="scale(10,10)"
         id="g180"><text
           transform="matrix(0,1,1,0,124.07,592.88)"
           id="text182"><tspan
             x="0 7.7839999 15.568 19.459999 29.568001 37.352001 44.352001 52.136002"
             y="0"
             id="tspan184"
             style="font-size:14px;font-variant:normal;font-weight:normal;writing-mode:lr-tb;fill:#000000;fill-opacity:1;fill-rule:nonzero;stroke:none;font-family:Helvetica;-inkscape-font-specification:Helvetica">L2 Cache</tspan></text>
</g><path
         d="m 1159,6612 70,0 0,399 -70,0 0,-399 z"
         inkscape:connector-curvature="0"
         id="path186"
         style="fill:#009e73;fill-opacity:1;fill-rule:nonzero;stroke:none" /><path
         d="m 1159,6612 70,0 0,399 -70,0 0,-399 z"
         inkscape:connector-curvature="0"
         id="path188"
         style="fill:none;stroke:#000000;stroke-width:5;stroke-linecap:butt;stroke-linejoin:miter;stroke-miterlimit:3.79999995;stroke-opacity:1;stroke-dasharray:none" /><path
         d="m 2543,1901 1300,0 0,119 -1300,0 0,-119 z"
         inkscape:connector-curvature="0"
         id="path190"
         style="fill:#009e73;fill-opacity:1;fill-rule:nonzero;stroke:none" /><path
         d="m 2544,1901 1299,0 0,118 -1299,0 0,-118 z"
         inkscape:connector-curvature="0"
         id="path192"
         style="fill:none;stroke:#000000;stroke-width:5;stroke-linecap:butt;stroke-linejoin:miter;stroke-miterlimit:3.79999995;stroke-opacity:1;stroke-dasharray:none" /><path
         d="m 2543,2423 1300,0 0,119 -1300,0 0,-119 z"
         inkscape:connector-curvature="0"
         id="path194"
         style="fill:#009e73;fill-opacity:1;fill-rule:nonzero;stroke:none" /><path
         d="m 2544,2423 1299,0 0,118 -1299,0 0,-118 z"
         inkscape:connector-curvature="0"
         id="path196"
         style="fill:none;stroke:#000000;stroke-width:5;stroke-linecap:butt;stroke-linejoin:miter;stroke-miterlimit:3.79999995;stroke-opacity:1;stroke-dasharray:none" /><path
         d="m 2543,2945 1300,0 0,118 -1300,0 0,-118 z"
         inkscape:connector-curvature="0"
         id="path198"
         style="fill:#009e73;fill-opacity:1;fill-rule:nonzero;stroke:none" /><path
         d="m 2544,2945 1299,0 0,117 -1299,0 0,-117 z"
         inkscape:connector-curvature="0"
         id="path200"
         style="fill:none;stroke:#000000;stroke-width:5;stroke-linecap:butt;stroke-linejoin:miter;stroke-miterlimit:3.79999995;stroke-opacity:1;stroke-dasharray:none" /><path
         d="m 2543,3467 1300,0 0,118 -1300,0 0,-118 z"
         inkscape:connector-curvature="0"
         id="path202"
         style="fill:#009e73;fill-opacity:1;fill-rule:nonzero;stroke:none" /><path
         d="m 2544,3467 1299,0 0,117 -1299,0 0,-117 z"
         inkscape:connector-curvature="0"
         id="path204"
         style="fill:none;stroke:#000000;stroke-width:5;stroke-linecap:butt;stroke-linejoin:miter;stroke-miterlimit:3.79999995;stroke-opacity:1;stroke-dasharray:none" /><path
         d="m 2543,3989 1300,0 0,118 -1300,0 0,-118 z"
         inkscape:connector-curvature="0"
         id="path206"
         style="fill:#009e73;fill-opacity:1;fill-rule:nonzero;stroke:none" /><path
         d="m 2544,3989 1299,0 0,117 -1299,0 0,-117 z"
         inkscape:connector-curvature="0"
         id="path208"
         style="fill:none;stroke:#000000;stroke-width:5;stroke-linecap:butt;stroke-linejoin:miter;stroke-miterlimit:3.79999995;stroke-opacity:1;stroke-dasharray:none" /><path
         d="m 2543,4511 1300,0 0,118 -1300,0 0,-118 z"
         inkscape:connector-curvature="0"
         id="path210"
         style="fill:#009e73;fill-opacity:1;fill-rule:nonzero;stroke:none" /><path
         d="m 2544,4511 1299,0 0,117 -1299,0 0,-117 z"
         inkscape:connector-curvature="0"
         id="path212"
         style="fill:none;stroke:#000000;stroke-width:5;stroke-linecap:butt;stroke-linejoin:miter;stroke-miterlimit:3.79999995;stroke-opacity:1;stroke-dasharray:none" /><path
         d="m 2543,5033 1300,0 0,118 -1300,0 0,-118 z"
         inkscape:connector-curvature="0"
         id="path214"
         style="fill:#009e73;fill-opacity:1;fill-rule:nonzero;stroke:none" /><path
         d="m 2544,5033 1299,0 0,117 -1299,0 0,-117 z"
         inkscape:connector-curvature="0"
         id="path216"
         style="fill:none;stroke:#000000;stroke-width:5;stroke-linecap:butt;stroke-linejoin:miter;stroke-miterlimit:3.79999995;stroke-opacity:1;stroke-dasharray:none" /><path
         d="m 2543,5555 1300,0 0,118 -1300,0 0,-118 z"
         inkscape:connector-curvature="0"
         id="path218"
         style="fill:#009e73;fill-opacity:1;fill-rule:nonzero;stroke:none" /><path
         d="m 2544,5555 1299,0 0,117 -1299,0 0,-117 z"
         inkscape:connector-curvature="0"
         id="path220"
         style="fill:none;stroke:#000000;stroke-width:5;stroke-linecap:butt;stroke-linejoin:miter;stroke-miterlimit:3.79999995;stroke-opacity:1;stroke-dasharray:none" /><path
         d="m 2543,6076 1300,0 0,119 -1300,0 0,-119 z"
         inkscape:connector-curvature="0"
         id="path222"
         style="fill:#009e73;fill-opacity:1;fill-rule:nonzero;stroke:none" /><path
         d="m 2544,6076 1299,0 0,118 -1299,0 0,-118 z"
         inkscape:connector-curvature="0"
         id="path224"
         style="fill:none;stroke:#000000;stroke-width:5;stroke-linecap:butt;stroke-linejoin:miter;stroke-miterlimit:3.79999995;stroke-opacity:1;stroke-dasharray:none" /><path
         d="m 1799,6598 2044,0 0,119 -2044,0 0,-119 z"
         inkscape:connector-curvature="0"
         id="path226"
         style="fill:#009e73;fill-opacity:1;fill-rule:nonzero;stroke:none" /><path
         d="m 1800,6598 2043,0 0,118 -2043,0 0,-118 z"
         inkscape:connector-curvature="0"
         id="path228"
         style="fill:none;stroke:#000000;stroke-width:5;stroke-linecap:butt;stroke-linejoin:miter;stroke-miterlimit:3.79999995;stroke-opacity:1;stroke-dasharray:none" /><g
         transform="scale(10,10)"
         id="g230"><text
           transform="matrix(0,1,1,0,138.07,592.88)"
           id="text232"><tspan
             x="0 7.7839999 15.568 19.459999 29.568001 37.352001 44.352001 52.136002"
             y="0"
             id="tspan234"
             style="font-size:14px;font-variant:normal;font-weight:normal;writing-mode:lr-tb;fill:#000000;fill-opacity:1;fill-rule:nonzero;stroke:none;font-family:Helvetica;-inkscape-font-specification:Helvetica">L3 Cache</tspan></text>
</g><path
         d="m 1299,6612 70,0 0,399 -70,0 0,-399 z"
         inkscape:connector-curvature="0"
         id="path236"
         style="fill:#57b5e8;fill-opacity:1;fill-rule:nonzero;stroke:none" /><path
         d="m 1299,6612 70,0 0,399 -70,0 0,-399 z"
         inkscape:connector-curvature="0"
         id="path238"
         style="fill:none;stroke:#000000;stroke-width:5;stroke-linecap:butt;stroke-linejoin:miter;stroke-miterlimit:3.79999995;stroke-opacity:1;stroke-dasharray:none" /><path
         d="m 1444,3597 2399,0 0,119 -2399,0 0,-119 z"
         inkscape:connector-curvature="0"
         id="path240"
         style="fill:#57b5e8;fill-opacity:1;fill-rule:nonzero;stroke:none" /><path
         d="m 1445,3597 2398,0 0,118 -2398,0 0,-118 z"
         inkscape:connector-curvature="0"
         id="path242"
         style="fill:none;stroke:#000000;stroke-width:5;stroke-linecap:butt;stroke-linejoin:miter;stroke-miterlimit:3.79999995;stroke-opacity:1;stroke-dasharray:none" /><path
         d="m 1444,4119 2399,0 0,119 -2399,0 0,-119 z"
         inkscape:connector-curvature="0"
         id="path244"
         style="fill:#57b5e8;fill-opacity:1;fill-rule:nonzero;stroke:none" /><path
         d="m 1445,4119 2398,0 0,118 -2398,0 0,-118 z"
         inkscape:connector-curvature="0"
         id="path246"
         style="fill:none;stroke:#000000;stroke-width:5;stroke-linecap:butt;stroke-linejoin:miter;stroke-miterlimit:3.79999995;stroke-opacity:1;stroke-dasharray:none" /><path
         d="m 1422,4641 2421,0 0,119 -2421,0 0,-119 z"
         inkscape:connector-curvature="0"
         id="path248"
         style="fill:#57b5e8;fill-opacity:1;fill-rule:nonzero;stroke:none" /><path
         d="m 1423,4641 2420,0 0,118 -2420,0 0,-118 z"
         inkscape:connector-curvature="0"
         id="path250"
         style="fill:none;stroke:#000000;stroke-width:5;stroke-linecap:butt;stroke-linejoin:miter;stroke-miterlimit:3.79999995;stroke-opacity:1;stroke-dasharray:none" /><path
         d="m 1422,5163 2421,0 0,119 -2421,0 0,-119 z"
         inkscape:connector-curvature="0"
         id="path252"
         style="fill:#57b5e8;fill-opacity:1;fill-rule:nonzero;stroke:none" /><path
         d="m 1423,5163 2420,0 0,118 -2420,0 0,-118 z"
         inkscape:connector-curvature="0"
         id="path254"
         style="fill:none;stroke:#000000;stroke-width:5;stroke-linecap:butt;stroke-linejoin:miter;stroke-miterlimit:3.79999995;stroke-opacity:1;stroke-dasharray:none" /><path
         d="m 1517,5685 2326,0 0,118 -2326,0 0,-118 z"
         inkscape:connector-curvature="0"
         id="path256"
         style="fill:#57b5e8;fill-opacity:1;fill-rule:nonzero;stroke:none" /><path
         d="m 1518,5685 2325,0 0,117 -2325,0 0,-117 z"
         inkscape:connector-curvature="0"
         id="path258"
         style="fill:none;stroke:#000000;stroke-width:5;stroke-linecap:butt;stroke-linejoin:miter;stroke-miterlimit:3.79999995;stroke-opacity:1;stroke-dasharray:none" /><path
         d="m 1517,6207 2326,0 0,118 -2326,0 0,-118 z"
         inkscape:connector-curvature="0"
         id="path260"
         style="fill:#57b5e8;fill-opacity:1;fill-rule:nonzero;stroke:none" /><path
         d="m 1518,6207 2325,0 0,117 -2325,0 0,-117 z"
         inkscape:connector-curvature="0"
         id="path262"
         style="fill:none;stroke:#000000;stroke-width:5;stroke-linecap:butt;stroke-linejoin:miter;stroke-miterlimit:3.79999995;stroke-opacity:1;stroke-dasharray:none" /><path
         d="m 921,1438 2922,0 0,5741 -2922,0 0,-5741 z"
         inkscape:connector-curvature="0"
         id="path264"
         style="fill:none;stroke:#000000;stroke-width:10;stroke-linecap:butt;stroke-linejoin:miter;stroke-miterlimit:3.79999995;stroke-opacity:1;stroke-dasharray:none" /></g></g></svg>