<?xml version="1.0" encoding="UTF-8" standalone="no"?>
<svg
   xmlns:dc="http://purl.org/dc/elements/1.1/"
   xmlns:cc="http://creativecommons.org/ns#"
   xmlns:rdf="http://www.w3.org/1999/02/22-rdf-syntax-ns#"
   xmlns:svg="http://www.w3.org/2000/svg"
   xmlns="http://www.w3.org/2000/svg"
   viewBox="0 0 990 765"
   height="765"
   width="990"
   xml:space="preserve"
   version="1.1"
   id="svg2"><metadata
     id="metadata8"><rdf:RDF><cc:Work
         rdf:about=""><dc:format>image/svg+xml</dc:format><dc:type
           rdf:resource="http://purl.org/dc/dcmitype/StillImage" /></cc:Work></rdf:RDF></metadata><defs
     id="defs6"><clipPath
       id="clipPath12"
       clipPathUnits="userSpaceOnUse"><path
         id="path14"
         d="M 0,0 612,0 612,792 0,792 0,0 Z" /></clipPath></defs><g
     clip-path="url(#clipPath12)"
     transform="matrix(0,1.25,1.25,0,0,0)"
     id="g10"><g
       transform="scale(0.1,0.1)"
       id="g16"><path
         id="path18"
         style="fill:none;stroke:#000000;stroke-width:5;stroke-linecap:butt;stroke-linejoin:miter;stroke-miterlimit:3.79999995;stroke-dasharray:none;stroke-opacity:1"
         d="m 4011,1102 0,63 m 0,5638 0,-63" /><g
         transform="scale(10,10)"
         id="g20"><text
           id="text22"
           style="font-variant:normal;font-weight:normal;font-size:14px;font-family:Helvetica;-inkscape-font-specification:Helvetica;writing-mode:lr-tb;fill:#000000;fill-opacity:1;fill-rule:nonzero;stroke:none"
           transform="matrix(0,1,1,0,405.77,94.0162)"><tspan
             id="tspan24"
             y="0"
             x="0">0</tspan></text>
</g><path
         id="path26"
         style="fill:none;stroke:#000000;stroke-width:5;stroke-linecap:butt;stroke-linejoin:miter;stroke-miterlimit:3.79999995;stroke-dasharray:none;stroke-opacity:1"
         d="m 3496,1102 0,63 m 0,5638 0,-63" /><g
         transform="scale(10,10)"
         id="g28"><text
           id="text30"
           style="font-variant:normal;font-weight:normal;font-size:14px;font-family:Helvetica;-inkscape-font-specification:Helvetica;writing-mode:lr-tb;fill:#000000;fill-opacity:1;fill-rule:nonzero;stroke:none"
           transform="matrix(0,1,1,0,354.27,86.2322)"><tspan
             id="tspan32"
             y="0"
             x="0 7.7839999">10</tspan></text>
</g><path
         id="path34"
         style="fill:none;stroke:#000000;stroke-width:5;stroke-linecap:butt;stroke-linejoin:miter;stroke-miterlimit:3.79999995;stroke-dasharray:none;stroke-opacity:1"
         d="m 2981,1102 0,63 m 0,5638 0,-63" /><g
         transform="scale(10,10)"
         id="g36"><text
           id="text38"
           style="font-variant:normal;font-weight:normal;font-size:14px;font-family:Helvetica;-inkscape-font-specification:Helvetica;writing-mode:lr-tb;fill:#000000;fill-opacity:1;fill-rule:nonzero;stroke:none"
           transform="matrix(0,1,1,0,302.77,86.2322)"><tspan
             id="tspan40"
             y="0"
             x="0 7.7839999">20</tspan></text>
</g><path
         id="path42"
         style="fill:none;stroke:#000000;stroke-width:5;stroke-linecap:butt;stroke-linejoin:miter;stroke-miterlimit:3.79999995;stroke-dasharray:none;stroke-opacity:1"
         d="m 2466,1102 0,63 m 0,5638 0,-63" /><g
         transform="scale(10,10)"
         id="g44"><text
           id="text46"
           style="font-variant:normal;font-weight:normal;font-size:14px;font-family:Helvetica;-inkscape-font-specification:Helvetica;writing-mode:lr-tb;fill:#000000;fill-opacity:1;fill-rule:nonzero;stroke:none"
           transform="matrix(0,1,1,0,251.27,86.2322)"><tspan
             id="tspan48"
             y="0"
             x="0 7.7839999">30</tspan></text>
</g><path
         id="path50"
         style="fill:none;stroke:#000000;stroke-width:5;stroke-linecap:butt;stroke-linejoin:miter;stroke-miterlimit:3.79999995;stroke-dasharray:none;stroke-opacity:1"
         d="m 1951,1102 0,63 m 0,5638 0,-63" /><g
         transform="scale(10,10)"
         id="g52"><text
           id="text54"
           style="font-variant:normal;font-weight:normal;font-size:14px;font-family:Helvetica;-inkscape-font-specification:Helvetica;writing-mode:lr-tb;fill:#000000;fill-opacity:1;fill-rule:nonzero;stroke:none"
           transform="matrix(0,1,1,0,199.77,86.2322)"><tspan
             id="tspan56"
             y="0"
             x="0 7.7839999">40</tspan></text>
</g><path
         id="path58"
         style="fill:none;stroke:#000000;stroke-width:5;stroke-linecap:butt;stroke-linejoin:miter;stroke-miterlimit:3.79999995;stroke-dasharray:none;stroke-opacity:1"
         d="m 1436,1102 0,63 m 0,5638 0,-63" /><g
         transform="scale(10,10)"
         id="g60"><text
           id="text62"
           style="font-variant:normal;font-weight:normal;font-size:14px;font-family:Helvetica;-inkscape-font-specification:Helvetica;writing-mode:lr-tb;fill:#000000;fill-opacity:1;fill-rule:nonzero;stroke:none"
           transform="matrix(0,1,1,0,148.27,86.2322)"><tspan
             id="tspan64"
             y="0"
             x="0 7.7839999">50</tspan></text>
</g><path
         id="path66"
         style="fill:none;stroke:#000000;stroke-width:5;stroke-linecap:butt;stroke-linejoin:miter;stroke-miterlimit:3.79999995;stroke-dasharray:none;stroke-opacity:1"
         d="m 921,1102 0,63 m 0,5638 0,-63" /><g
         transform="scale(10,10)"
         id="g68"><text
           id="text70"
           style="font-variant:normal;font-weight:normal;font-size:14px;font-family:Helvetica;-inkscape-font-specification:Helvetica;writing-mode:lr-tb;fill:#000000;fill-opacity:1;fill-rule:nonzero;stroke:none"
           transform="matrix(0,1,1,0,96.7699,86.2322)"><tspan
             id="tspan72"
             y="0"
             x="0 7.7839999">60</tspan></text>
<text
           id="text74"
           style="font-variant:normal;font-weight:normal;font-size:13.99999809px;font-family:Helvetica;-inkscape-font-specification:Helvetica;writing-mode:lr-tb;fill:#000000;fill-opacity:1;fill-rule:nonzero;stroke:none"
           transform="matrix(0.71934,0.694658,0.694658,-0.71934,412.744,158.641)"><tspan
             id="tspan76"
             y="0"
             x="0 9.3379993 20.999998 28.783997 35.783997 43.567993 51.351994 55.243992 66.905991 74.689995 78.581993 90.243988 98.027992 105.81199 108.91999 116.70399">Amazon m3.medium</tspan><tspan
             id="tspan78"
             y="-37.333694"
             x="36.052795 45.390797 57.052795 64.836792 71.836792 79.620789 87.404793 91.296791 98.296791 106.08079 109.97279 113.08079 120.86478 125.52679 133.31079">Amazon c3.large</tspan><tspan
             id="tspan80"
             y="-74.59549"
             x="72.036095 81.374092 93.036087 100.82009 107.82009 115.60409 123.38808 127.28008 134.28009 142.06409 145.95609 149.06409 156.84808 161.51009 169.29408">Amazon c4.large</tspan><tspan
             id="tspan82"
             y="-111.85729"
             x="108.01939 118.91138 126.69539 134.47939 142.26338 145.37138 153.15538 157.04738 164.83138 172.61539 177.27737 184.27737 188.16937 195.95338 203.73738 211.52138 219.30537 223.96738 231.75137">Google n1-standard1</tspan><tspan
             id="tspan84"
             y="-149.11908"
             x="144.00269 154.89468 162.67868 170.46268 178.24667 181.35468 189.13867 193.03069 200.81468 208.59868 213.26068 220.26068 224.15268 231.93668 239.72067 247.50467 255.28867 259.95068 267.73468">Google n1-standard2</tspan><tspan
             id="tspan86"
             y="-186.45277"
             x="180.05548 191.71748 194.82549 201.82547 206.48747 214.27147 221.27147 229.05548 232.94748 236.83948 240.73148 250.06947 257.06946 264.85349 269.51547 277.29947 281.19147 291.29947 300.63745">Microsoft Azure DS1</tspan><tspan
             id="tspan88"
             y="-223.71457"
             x="216.03877 227.70078 230.80878 237.80878 242.47078 250.25478 257.25476 265.03876 268.93076 272.82275 276.71478 286.05276 293.05276 300.83676 305.49878 313.28278 317.17477 327.28278 336.62076">Microsoft Azure DS2</tspan><tspan
             id="tspan90"
             y="-260.97638"
             x="252.02206 260.57608 265.23807 273.02206 280.02206 283.91406 291.69806 298.69806 302.59006 311.92807 315.03607 319.69806 323.59006 331.37405 339.15805 342.26605 346.15805 357.82007 365.60406 372.60406 380.38806 383.49606 391.28006">Fractus Virtual Machine</tspan><tspan
             id="tspan92"
             y="-298.23816"
             x="288.00537 296.55936 301.22137 309.00537 316.00537 319.89737 327.68137 334.68137 338.57336 347.91135 355.69537 360.35736 368.14136 372.03336 383.69534 391.47937 395.37137 403.15536">Fractus Bare Metal</tspan><tspan
             id="tspan94"
             y="-335.57187"
             x="324.05817 334.16617 341.95016 345.05817 348.16617 352.05817 362.95016 370.73416 374.62616 377.73416 385.51816 388.62616 396.41016 403.41016 407.30215 415.08615 422.87015">Dell Optiplex 760</tspan></text>
</g><path
         id="path96"
         style="fill:none;stroke:#000000;stroke-width:5;stroke-linecap:butt;stroke-linejoin:miter;stroke-miterlimit:3.79999995;stroke-dasharray:none;stroke-opacity:1"
         d="m 4011,6803 0,-63" /><g
         transform="scale(10,10)"
         id="g98"><text
           id="text100"
           style="font-variant:normal;font-weight:normal;font-size:14px;font-family:Helvetica;-inkscape-font-specification:Helvetica;writing-mode:lr-tb;fill:#000000;fill-opacity:1;fill-rule:nonzero;stroke:none"
           transform="matrix(0,1,1,0,405.77,692.592)"><tspan
             id="tspan102"
             y="0"
             x="0">0</tspan></text>
</g><path
         id="path104"
         style="fill:none;stroke:#000000;stroke-width:5;stroke-linecap:butt;stroke-linejoin:miter;stroke-miterlimit:3.79999995;stroke-dasharray:none;stroke-opacity:1"
         d="m 3496,6803 0,-63" /><g
         transform="scale(10,10)"
         id="g106"><text
           id="text108"
           style="font-variant:normal;font-weight:normal;font-size:14px;font-family:Helvetica;-inkscape-font-specification:Helvetica;writing-mode:lr-tb;fill:#000000;fill-opacity:1;fill-rule:nonzero;stroke:none"
           transform="matrix(0,1,1,0,354.27,692.592)"><tspan
             id="tspan110"
             y="0"
             x="0 7.7839999 11.676">0.5</tspan></text>
</g><path
         id="path112"
         style="fill:none;stroke:#000000;stroke-width:5;stroke-linecap:butt;stroke-linejoin:miter;stroke-miterlimit:3.79999995;stroke-dasharray:none;stroke-opacity:1"
         d="m 2981,6803 0,-63" /><g
         transform="scale(10,10)"
         id="g114"><text
           id="text116"
           style="font-variant:normal;font-weight:normal;font-size:14px;font-family:Helvetica;-inkscape-font-specification:Helvetica;writing-mode:lr-tb;fill:#000000;fill-opacity:1;fill-rule:nonzero;stroke:none"
           transform="matrix(0,1,1,0,302.77,692.592)"><tspan
             id="tspan118"
             y="0"
             x="0">1</tspan></text>
</g><path
         id="path120"
         style="fill:none;stroke:#000000;stroke-width:5;stroke-linecap:butt;stroke-linejoin:miter;stroke-miterlimit:3.79999995;stroke-dasharray:none;stroke-opacity:1"
         d="m 2466,6803 0,-63" /><g
         transform="scale(10,10)"
         id="g122"><text
           id="text124"
           style="font-variant:normal;font-weight:normal;font-size:14px;font-family:Helvetica;-inkscape-font-specification:Helvetica;writing-mode:lr-tb;fill:#000000;fill-opacity:1;fill-rule:nonzero;stroke:none"
           transform="matrix(0,1,1,0,251.27,692.592)"><tspan
             id="tspan126"
             y="0"
             x="0 7.7839999 11.676">1.5</tspan></text>
</g><path
         id="path128"
         style="fill:none;stroke:#000000;stroke-width:5;stroke-linecap:butt;stroke-linejoin:miter;stroke-miterlimit:3.79999995;stroke-dasharray:none;stroke-opacity:1"
         d="m 1951,6803 0,-63" /><g
         transform="scale(10,10)"
         id="g130"><text
           id="text132"
           style="font-variant:normal;font-weight:normal;font-size:14px;font-family:Helvetica;-inkscape-font-specification:Helvetica;writing-mode:lr-tb;fill:#000000;fill-opacity:1;fill-rule:nonzero;stroke:none"
           transform="matrix(0,1,1,0,199.77,692.592)"><tspan
             id="tspan134"
             y="0"
             x="0">2</tspan></text>
</g><path
         id="path136"
         style="fill:none;stroke:#000000;stroke-width:5;stroke-linecap:butt;stroke-linejoin:miter;stroke-miterlimit:3.79999995;stroke-dasharray:none;stroke-opacity:1"
         d="m 1436,6803 0,-63" /><g
         transform="scale(10,10)"
         id="g138"><text
           id="text140"
           style="font-variant:normal;font-weight:normal;font-size:14px;font-family:Helvetica;-inkscape-font-specification:Helvetica;writing-mode:lr-tb;fill:#000000;fill-opacity:1;fill-rule:nonzero;stroke:none"
           transform="matrix(0,1,1,0,148.27,692.592)"><tspan
             id="tspan142"
             y="0"
             x="0 7.7839999 11.676">2.5</tspan></text>
</g><path
         id="path144"
         style="fill:none;stroke:#000000;stroke-width:5;stroke-linecap:butt;stroke-linejoin:miter;stroke-miterlimit:3.79999995;stroke-dasharray:none;stroke-opacity:1"
         d="m 921,6803 0,-63" /><g
         transform="scale(10,10)"
         id="g146"><text
           id="text148"
           style="font-variant:normal;font-weight:normal;font-size:14px;font-family:Helvetica;-inkscape-font-specification:Helvetica;writing-mode:lr-tb;fill:#000000;fill-opacity:1;fill-rule:nonzero;stroke:none"
           transform="matrix(0,1,1,0,96.7699,692.592)"><tspan
             id="tspan150"
             y="0"
             x="0">3</tspan></text>
</g><path
         id="path152"
         style="fill:none;stroke:#000000;stroke-width:10;stroke-linecap:butt;stroke-linejoin:miter;stroke-miterlimit:3.79999995;stroke-dasharray:none;stroke-opacity:1"
         d="m 921,1102 3090,0 0,5701 -3090,0 0,-5701 z" /><g
         transform="scale(10,10)"
         id="g154"><text
           id="text156"
           style="font-variant:normal;font-weight:normal;font-size:14px;font-family:Helvetica;-inkscape-font-specification:Helvetica;writing-mode:lr-tb;fill:#000000;fill-opacity:1;fill-rule:nonzero;stroke:none"
           transform="matrix(-1,0,0,1,331.404,65.8699)"><tspan
             id="tspan158"
             y="0"
             x="0 11.662 19.445999 27.23 34.23 42.014 46.675999 54.459999 62.243999 66.136002 76.244003 84.028 91.028 98.811996 106.596 110.488 119.826 122.934 129.93401 137.718 141.61 146.272 155.61 164.948">Measured Cache Size (KB)</tspan><tspan
             id="tspan160"
             y="676.40002"
             x="-5.4531298 6.2088699 13.99287 21.776871 28.776871 36.560871 41.22287 49.00687 56.790871 60.682869 70.790871 78.574867 86.358871 94.142868 98.034866 105.81887 113.60287 117.49487 125.27887 133.06287 140.06287 147.06287 150.95486 155.61687 163.40086 170.40086">Measured Read Latency (ns)</tspan></text>
<text
           id="text162"
           style="font-variant:normal;font-weight:normal;font-size:14px;font-family:Helvetica;-inkscape-font-specification:Helvetica;writing-mode:lr-tb;fill:#000000;fill-opacity:1;fill-rule:nonzero;stroke:none"
           transform="matrix(0,1,1,0,75.7699,251.247)"><tspan
             id="tspan164"
             y="0"
             x="0 10.108 17.892 29.554001 37.338001 45.122002 49.784 52.891998 59.891998 67.676003 75.459999 79.351997 83.244003 91.028 98.811996 102.704 112.812 120.596 124.488 132.272 136.164 146.272 154.056 161.056 168.84 176.62399 180.51601 189.854 192.96201 199.96201 207.746 211.638 219.422 227.20599 234.99001 238.882 246.666 254.45 258.34201 266.12601 273.91 280.91">Comparison: L1 Data Cache Size and Latency</tspan><tspan
             id="tspan166"
             y="34.299999"
             x="336.72299 346.061 349.16901 356.16901">Size</tspan></text>
</g><path
         id="path168"
         style="fill:#0000ff;fill-opacity:1;fill-rule:nonzero;stroke:none"
         d="m 1019,6236 70,0 0,399 -70,0 0,-399 z" /><path
         id="path170"
         style="fill:none;stroke:#000000;stroke-width:5;stroke-linecap:butt;stroke-linejoin:miter;stroke-miterlimit:3.79999995;stroke-dasharray:none;stroke-opacity:1"
         d="m 1019,6236 70,0 0,399 -70,0 0,-399 z" /><path
         id="path172"
         style="fill:#0000ff;fill-opacity:1;fill-rule:nonzero;stroke:none"
         d="m 2362,1629 1649,0 0,156 -1649,0 0,-156 z" /><path
         id="path174"
         style="fill:none;stroke:#000000;stroke-width:5;stroke-linecap:butt;stroke-linejoin:miter;stroke-miterlimit:3.79999995;stroke-dasharray:none;stroke-opacity:1"
         d="m 2363,1629 1648,0 0,155 -1648,0 0,-155 z" /><path
         id="path176"
         style="fill:#0000ff;fill-opacity:1;fill-rule:nonzero;stroke:none"
         d="m 2362,2147 1649,0 0,157 -1649,0 0,-157 z" /><path
         id="path178"
         style="fill:none;stroke:#000000;stroke-width:5;stroke-linecap:butt;stroke-linejoin:miter;stroke-miterlimit:3.79999995;stroke-dasharray:none;stroke-opacity:1"
         d="m 2363,2147 1648,0 0,156 -1648,0 0,-156 z" /><path
         id="path180"
         style="fill:#0000ff;fill-opacity:1;fill-rule:nonzero;stroke:none"
         d="m 2362,2665 1649,0 0,157 -1649,0 0,-157 z" /><path
         id="path182"
         style="fill:none;stroke:#000000;stroke-width:5;stroke-linecap:butt;stroke-linejoin:miter;stroke-miterlimit:3.79999995;stroke-dasharray:none;stroke-opacity:1"
         d="m 2363,2665 1648,0 0,156 -1648,0 0,-156 z" /><path
         id="path184"
         style="fill:#0000ff;fill-opacity:1;fill-rule:nonzero;stroke:none"
         d="m 2362,3184 1649,0 0,156 -1649,0 0,-156 z" /><path
         id="path186"
         style="fill:none;stroke:#000000;stroke-width:5;stroke-linecap:butt;stroke-linejoin:miter;stroke-miterlimit:3.79999995;stroke-dasharray:none;stroke-opacity:1"
         d="m 2363,3184 1648,0 0,155 -1648,0 0,-155 z" /><path
         id="path188"
         style="fill:#0000ff;fill-opacity:1;fill-rule:nonzero;stroke:none"
         d="m 2362,3702 1649,0 0,156 -1649,0 0,-156 z" /><path
         id="path190"
         style="fill:none;stroke:#000000;stroke-width:5;stroke-linecap:butt;stroke-linejoin:miter;stroke-miterlimit:3.79999995;stroke-dasharray:none;stroke-opacity:1"
         d="m 2363,3702 1648,0 0,155 -1648,0 0,-155 z" /><path
         id="path192"
         style="fill:#0000ff;fill-opacity:1;fill-rule:nonzero;stroke:none"
         d="m 2362,4220 1649,0 0,157 -1649,0 0,-157 z" /><path
         id="path194"
         style="fill:none;stroke:#000000;stroke-width:5;stroke-linecap:butt;stroke-linejoin:miter;stroke-miterlimit:3.79999995;stroke-dasharray:none;stroke-opacity:1"
         d="m 2363,4220 1648,0 0,156 -1648,0 0,-156 z" /><path
         id="path196"
         style="fill:#0000ff;fill-opacity:1;fill-rule:nonzero;stroke:none"
         d="m 2362,4739 1649,0 0,156 -1649,0 0,-156 z" /><path
         id="path198"
         style="fill:none;stroke:#000000;stroke-width:5;stroke-linecap:butt;stroke-linejoin:miter;stroke-miterlimit:3.79999995;stroke-dasharray:none;stroke-opacity:1"
         d="m 2363,4739 1648,0 0,155 -1648,0 0,-155 z" /><path
         id="path200"
         style="fill:#0000ff;fill-opacity:1;fill-rule:nonzero;stroke:none"
         d="m 2362,5257 1649,0 0,156 -1649,0 0,-156 z" /><path
         id="path202"
         style="fill:none;stroke:#000000;stroke-width:5;stroke-linecap:butt;stroke-linejoin:miter;stroke-miterlimit:3.79999995;stroke-dasharray:none;stroke-opacity:1"
         d="m 2363,5257 1648,0 0,155 -1648,0 0,-155 z" /><path
         id="path204"
         style="fill:#0000ff;fill-opacity:1;fill-rule:nonzero;stroke:none"
         d="m 2362,5775 1649,0 0,157 -1649,0 0,-157 z" /><path
         id="path206"
         style="fill:none;stroke:#000000;stroke-width:5;stroke-linecap:butt;stroke-linejoin:miter;stroke-miterlimit:3.79999995;stroke-dasharray:none;stroke-opacity:1"
         d="m 2363,5775 1648,0 0,156 -1648,0 0,-156 z" /><path
         id="path208"
         style="fill:#0000ff;fill-opacity:1;fill-rule:nonzero;stroke:none"
         d="m 2362,6293 1649,0 0,157 -1649,0 0,-157 z" /><path
         id="path210"
         style="fill:none;stroke:#000000;stroke-width:5;stroke-linecap:butt;stroke-linejoin:miter;stroke-miterlimit:3.79999995;stroke-dasharray:none;stroke-opacity:1"
         d="m 2363,6293 1648,0 0,156 -1648,0 0,-156 z" /><g
         transform="scale(10,10)"
         id="g212"><text
           id="text214"
           style="font-variant:normal;font-weight:normal;font-size:14px;font-family:Helvetica;-inkscape-font-specification:Helvetica;writing-mode:lr-tb;fill:#000000;fill-opacity:1;fill-rule:nonzero;stroke:none"
           transform="matrix(0,1,1,0,124.07,566.172)"><tspan
             id="tspan216"
             y="0"
             x="0 7.7839999 15.568 19.459999 27.243999 35.028 42.028">Latency</tspan></text>
</g><path
         id="path218"
         style="fill:none;stroke:#ff0000;stroke-width:15;stroke-linecap:butt;stroke-linejoin:miter;stroke-miterlimit:3.79999995;stroke-dasharray:none;stroke-opacity:1"
         d="m 1194,6236 0,399 m -46,-5015 1524,519 31,518 -196,518 -31,518 -10,519 0,518 443,518 10,518 113,519" /><path
         id="path220"
         style="fill:none;stroke:#ff0000;stroke-width:15;stroke-linecap:butt;stroke-linejoin:miter;stroke-miterlimit:3.79999995;stroke-dasharray:none;stroke-opacity:1"
         d="m 1116.5,1588.5 63,63" /><path
         id="path222"
         style="fill:none;stroke:#ff0000;stroke-width:15;stroke-linecap:butt;stroke-linejoin:miter;stroke-miterlimit:3.79999995;stroke-dasharray:none;stroke-opacity:1"
         d="m 1179.5,1588.5 -63,63" /><path
         id="path224"
         style="fill:none;stroke:#ff0000;stroke-width:15;stroke-linecap:butt;stroke-linejoin:miter;stroke-miterlimit:3.79999995;stroke-dasharray:none;stroke-opacity:1"
         d="m 2640.5,2107.5 63,63" /><path
         id="path226"
         style="fill:none;stroke:#ff0000;stroke-width:15;stroke-linecap:butt;stroke-linejoin:miter;stroke-miterlimit:3.79999995;stroke-dasharray:none;stroke-opacity:1"
         d="m 2703.5,2107.5 -63,63" /><path
         id="path228"
         style="fill:none;stroke:#ff0000;stroke-width:15;stroke-linecap:butt;stroke-linejoin:miter;stroke-miterlimit:3.79999995;stroke-dasharray:none;stroke-opacity:1"
         d="m 2671.5,2625.5 63,63" /><path
         id="path230"
         style="fill:none;stroke:#ff0000;stroke-width:15;stroke-linecap:butt;stroke-linejoin:miter;stroke-miterlimit:3.79999995;stroke-dasharray:none;stroke-opacity:1"
         d="m 2734.5,2625.5 -63,63" /><path
         id="path232"
         style="fill:none;stroke:#ff0000;stroke-width:15;stroke-linecap:butt;stroke-linejoin:miter;stroke-miterlimit:3.79999995;stroke-dasharray:none;stroke-opacity:1"
         d="m 2475.5,3143.5 63,63" /><path
         id="path234"
         style="fill:none;stroke:#ff0000;stroke-width:15;stroke-linecap:butt;stroke-linejoin:miter;stroke-miterlimit:3.79999995;stroke-dasharray:none;stroke-opacity:1"
         d="m 2538.5,3143.5 -63,63" /><path
         id="path236"
         style="fill:none;stroke:#ff0000;stroke-width:15;stroke-linecap:butt;stroke-linejoin:miter;stroke-miterlimit:3.79999995;stroke-dasharray:none;stroke-opacity:1"
         d="m 2444.5,3661.5 63,63" /><path
         id="path238"
         style="fill:none;stroke:#ff0000;stroke-width:15;stroke-linecap:butt;stroke-linejoin:miter;stroke-miterlimit:3.79999995;stroke-dasharray:none;stroke-opacity:1"
         d="m 2507.5,3661.5 -63,63" /><path
         id="path240"
         style="fill:none;stroke:#ff0000;stroke-width:15;stroke-linecap:butt;stroke-linejoin:miter;stroke-miterlimit:3.79999995;stroke-dasharray:none;stroke-opacity:1"
         d="m 2434.5,4180.5 63,63" /><path
         id="path242"
         style="fill:none;stroke:#ff0000;stroke-width:15;stroke-linecap:butt;stroke-linejoin:miter;stroke-miterlimit:3.79999995;stroke-dasharray:none;stroke-opacity:1"
         d="m 2497.5,4180.5 -63,63" /><path
         id="path244"
         style="fill:none;stroke:#ff0000;stroke-width:15;stroke-linecap:butt;stroke-linejoin:miter;stroke-miterlimit:3.79999995;stroke-dasharray:none;stroke-opacity:1"
         d="m 2434.5,4698.5 63,63" /><path
         id="path246"
         style="fill:none;stroke:#ff0000;stroke-width:15;stroke-linecap:butt;stroke-linejoin:miter;stroke-miterlimit:3.79999995;stroke-dasharray:none;stroke-opacity:1"
         d="m 2497.5,4698.5 -63,63" /><path
         id="path248"
         style="fill:none;stroke:#ff0000;stroke-width:15;stroke-linecap:butt;stroke-linejoin:miter;stroke-miterlimit:3.79999995;stroke-dasharray:none;stroke-opacity:1"
         d="m 2877.5,5216.5 63,63" /><path
         id="path250"
         style="fill:none;stroke:#ff0000;stroke-width:15;stroke-linecap:butt;stroke-linejoin:miter;stroke-miterlimit:3.79999995;stroke-dasharray:none;stroke-opacity:1"
         d="m 2940.5,5216.5 -63,63" /><path
         id="path252"
         style="fill:none;stroke:#ff0000;stroke-width:15;stroke-linecap:butt;stroke-linejoin:miter;stroke-miterlimit:3.79999995;stroke-dasharray:none;stroke-opacity:1"
         d="m 2887.5,5734.5 63,63" /><path
         id="path254"
         style="fill:none;stroke:#ff0000;stroke-width:15;stroke-linecap:butt;stroke-linejoin:miter;stroke-miterlimit:3.79999995;stroke-dasharray:none;stroke-opacity:1"
         d="m 2950.5,5734.5 -63,63" /><path
         id="path256"
         style="fill:none;stroke:#ff0000;stroke-width:15;stroke-linecap:butt;stroke-linejoin:miter;stroke-miterlimit:3.79999995;stroke-dasharray:none;stroke-opacity:1"
         d="m 3000.5,6253.5 63,63" /><path
         id="path258"
         style="fill:none;stroke:#ff0000;stroke-width:15;stroke-linecap:butt;stroke-linejoin:miter;stroke-miterlimit:3.79999995;stroke-dasharray:none;stroke-opacity:1"
         d="m 3063.5,6253.5 -63,63" /><path
         id="path260"
         style="fill:none;stroke:#ff0000;stroke-width:15;stroke-linecap:butt;stroke-linejoin:miter;stroke-miterlimit:3.79999995;stroke-dasharray:none;stroke-opacity:1"
         d="m 1162.5,6403.5 63,63" /><path
         id="path262"
         style="fill:none;stroke:#ff0000;stroke-width:15;stroke-linecap:butt;stroke-linejoin:miter;stroke-miterlimit:3.79999995;stroke-dasharray:none;stroke-opacity:1"
         d="m 1225.5,6403.5 -63,63" /><path
         id="path264"
         style="fill:none;stroke:#000000;stroke-width:10;stroke-linecap:butt;stroke-linejoin:miter;stroke-miterlimit:3.79999995;stroke-dasharray:none;stroke-opacity:1"
         d="m 921,1102 3090,0 0,5701 -3090,0 0,-5701 z" /></g></g></svg>