<?xml version="1.0" encoding="UTF-8" standalone="no"?>
<!-- Created with Inkscape (http://www.inkscape.org/) -->

<svg
   xmlns:dc="http://purl.org/dc/elements/1.1/"
   xmlns:cc="http://creativecommons.org/ns#"
   xmlns:rdf="http://www.w3.org/1999/02/22-rdf-syntax-ns#"
   xmlns:svg="http://www.w3.org/2000/svg"
   xmlns="http://www.w3.org/2000/svg"
   xmlns:inkscape="http://www.inkscape.org/namespaces/inkscape"
   version="1.1"
   width="990"
   height="765"
   id="svg2"
   xml:space="preserve"><metadata
     id="metadata8"><rdf:RDF><cc:Work
         rdf:about=""><dc:format>image/svg+xml</dc:format><dc:type
           rdf:resource="http://purl.org/dc/dcmitype/StillImage" /></cc:Work></rdf:RDF></metadata><defs
     id="defs6"><clipPath
       id="clipPath12"><path
         d="M 0,0 612,0 612,792 0,792 0,0 z"
         inkscape:connector-curvature="0"
         id="path14" /></clipPath></defs><g
     transform="matrix(0,1.25,1.25,0,0,0)"
     clip-path="url(#clipPath12)"
     id="g10"><g
       transform="scale(0.1,0.1)"
       id="g16"><path
         d="m 4011,1186 0,63 m 0,5638 0,-63"
         inkscape:connector-curvature="0"
         id="path18"
         style="fill:none;stroke:#000000;stroke-width:5;stroke-linecap:butt;stroke-linejoin:miter;stroke-miterlimit:3.79999995;stroke-opacity:1;stroke-dasharray:none" /><g
         transform="scale(10,10)"
         id="g20"><text
           transform="matrix(0,1,1,0,405.77,102.4162)"
           id="text22"><tspan
             x="0"
             y="0"
             id="tspan24"
             style="font-size:14px;font-variant:normal;font-weight:normal;writing-mode:lr-tb;fill:#000000;fill-opacity:1;fill-rule:nonzero;stroke:none;font-family:Helvetica;-inkscape-font-specification:Helvetica">0</tspan></text>
</g><path
         d="m 3393,1186 0,63 m 0,5638 0,-63"
         inkscape:connector-curvature="0"
         id="path26"
         style="fill:none;stroke:#000000;stroke-width:5;stroke-linecap:butt;stroke-linejoin:miter;stroke-miterlimit:3.79999995;stroke-opacity:1;stroke-dasharray:none" /><g
         transform="scale(10,10)"
         id="g28"><text
           transform="matrix(0,1,1,0,343.97,86.8483)"
           id="text30"><tspan
             x="0 7.7839999 15.568"
             y="0"
             id="tspan32"
             style="font-size:14px;font-variant:normal;font-weight:normal;writing-mode:lr-tb;fill:#000000;fill-opacity:1;fill-rule:nonzero;stroke:none;font-family:Helvetica;-inkscape-font-specification:Helvetica">100</tspan></text>
</g><path
         d="m 2775,1186 0,63 m 0,5638 0,-63"
         inkscape:connector-curvature="0"
         id="path34"
         style="fill:none;stroke:#000000;stroke-width:5;stroke-linecap:butt;stroke-linejoin:miter;stroke-miterlimit:3.79999995;stroke-opacity:1;stroke-dasharray:none" /><g
         transform="scale(10,10)"
         id="g36"><text
           transform="matrix(0,1,1,0,282.17,86.8483)"
           id="text38"><tspan
             x="0 7.7839999 15.568"
             y="0"
             id="tspan40"
             style="font-size:14px;font-variant:normal;font-weight:normal;writing-mode:lr-tb;fill:#000000;fill-opacity:1;fill-rule:nonzero;stroke:none;font-family:Helvetica;-inkscape-font-specification:Helvetica">200</tspan></text>
</g><path
         d="m 2157,1186 0,63 m 0,5638 0,-63"
         inkscape:connector-curvature="0"
         id="path42"
         style="fill:none;stroke:#000000;stroke-width:5;stroke-linecap:butt;stroke-linejoin:miter;stroke-miterlimit:3.79999995;stroke-opacity:1;stroke-dasharray:none" /><g
         transform="scale(10,10)"
         id="g44"><text
           transform="matrix(0,1,1,0,220.37,86.8483)"
           id="text46"><tspan
             x="0 7.7839999 15.568"
             y="0"
             id="tspan48"
             style="font-size:14px;font-variant:normal;font-weight:normal;writing-mode:lr-tb;fill:#000000;fill-opacity:1;fill-rule:nonzero;stroke:none;font-family:Helvetica;-inkscape-font-specification:Helvetica">300</tspan></text>
</g><path
         d="m 1539,1186 0,63 m 0,5638 0,-63"
         inkscape:connector-curvature="0"
         id="path50"
         style="fill:none;stroke:#000000;stroke-width:5;stroke-linecap:butt;stroke-linejoin:miter;stroke-miterlimit:3.79999995;stroke-opacity:1;stroke-dasharray:none" /><g
         transform="scale(10,10)"
         id="g52"><text
           transform="matrix(0,1,1,0,158.57,86.8483)"
           id="text54"><tspan
             x="0 7.7839999 15.568"
             y="0"
             id="tspan56"
             style="font-size:14px;font-variant:normal;font-weight:normal;writing-mode:lr-tb;fill:#000000;fill-opacity:1;fill-rule:nonzero;stroke:none;font-family:Helvetica;-inkscape-font-specification:Helvetica">400</tspan></text>
</g><path
         d="m 921,1186 0,63 m 0,5638 0,-63"
         inkscape:connector-curvature="0"
         id="path58"
         style="fill:none;stroke:#000000;stroke-width:5;stroke-linecap:butt;stroke-linejoin:miter;stroke-miterlimit:3.79999995;stroke-opacity:1;stroke-dasharray:none" /><g
         transform="scale(10,10)"
         id="g60"><text
           transform="matrix(0,1,1,0,96.7699,86.8483)"
           id="text62"><tspan
             x="0 7.7839999 15.568"
             y="0"
             id="tspan64"
             style="font-size:14px;font-variant:normal;font-weight:normal;writing-mode:lr-tb;fill:#000000;fill-opacity:1;fill-rule:nonzero;stroke:none;font-family:Helvetica;-inkscape-font-specification:Helvetica">500</tspan></text>
<text
           transform="matrix(0.71934,0.694658,0.694658,-0.71934,412.744,167.041)"
           id="text66"><tspan
             x="0 9.3379993 20.999998 28.783997 35.783997 43.567993 51.351994 55.243992 66.905991 74.689995 78.581993 90.243988 98.027992 105.81199 108.91999 116.70399"
             y="0"
             id="tspan68"
             style="font-size:13.99999809px;font-variant:normal;font-weight:normal;writing-mode:lr-tb;fill:#000000;fill-opacity:1;fill-rule:nonzero;stroke:none;font-family:Helvetica;-inkscape-font-specification:Helvetica">Amazon m3.medium</tspan><tspan
             x="36.052795 45.390797 57.052795 64.836792 71.836792 79.620789 87.404793 91.296791 98.296791 106.08079 109.97279 113.08079 120.86478 125.52679 133.31079"
             y="-37.333694"
             id="tspan70"
             style="font-size:13.99999809px;font-variant:normal;font-weight:normal;writing-mode:lr-tb;fill:#000000;fill-opacity:1;fill-rule:nonzero;stroke:none;font-family:Helvetica;-inkscape-font-specification:Helvetica">Amazon c3.large</tspan><tspan
             x="72.036095 81.374092 93.036087 100.82009 107.82009 115.60409 123.38808 127.28008 134.28009 142.06409 145.95609 149.06409 156.84808 161.51009 169.29408"
             y="-74.59549"
             id="tspan72"
             style="font-size:13.99999809px;font-variant:normal;font-weight:normal;writing-mode:lr-tb;fill:#000000;fill-opacity:1;fill-rule:nonzero;stroke:none;font-family:Helvetica;-inkscape-font-specification:Helvetica">Amazon c4.large</tspan><tspan
             x="108.01939 118.91138 126.69539 134.47939 142.26338 145.37138 153.15538 157.04738 164.83138 172.61539 177.27737 184.27737 188.16937 195.95338 203.73738 211.52138 219.30537 223.96738 231.75137"
             y="-111.85729"
             id="tspan74"
             style="font-size:13.99999809px;font-variant:normal;font-weight:normal;writing-mode:lr-tb;fill:#000000;fill-opacity:1;fill-rule:nonzero;stroke:none;font-family:Helvetica;-inkscape-font-specification:Helvetica">Google n1-standard1</tspan><tspan
             x="144.00269 154.89468 162.67868 170.46268 178.24667 181.35468 189.13867 193.03069 200.81468 208.59868 213.26068 220.26068 224.15268 231.93668 239.72067 247.50467 255.28867 259.95068 267.73468"
             y="-149.11908"
             id="tspan76"
             style="font-size:13.99999809px;font-variant:normal;font-weight:normal;writing-mode:lr-tb;fill:#000000;fill-opacity:1;fill-rule:nonzero;stroke:none;font-family:Helvetica;-inkscape-font-specification:Helvetica">Google n1-standard2</tspan><tspan
             x="180.05548 191.71748 194.82549 201.82547 206.48747 214.27147 221.27147 229.05548 232.94748 236.83948 240.73148 250.06947 257.06946 264.85349 269.51547 277.29947 281.19147 291.29947 300.63745"
             y="-186.45277"
             id="tspan78"
             style="font-size:13.99999809px;font-variant:normal;font-weight:normal;writing-mode:lr-tb;fill:#000000;fill-opacity:1;fill-rule:nonzero;stroke:none;font-family:Helvetica;-inkscape-font-specification:Helvetica">Microsoft Azure DS1</tspan><tspan
             x="216.03877 227.70078 230.80878 237.80878 242.47078 250.25478 257.25476 265.03876 268.93076 272.82275 276.71478 286.05276 293.05276 300.83676 305.49878 313.28278 317.17477 327.28278 336.62076"
             y="-223.71457"
             id="tspan80"
             style="font-size:13.99999809px;font-variant:normal;font-weight:normal;writing-mode:lr-tb;fill:#000000;fill-opacity:1;fill-rule:nonzero;stroke:none;font-family:Helvetica;-inkscape-font-specification:Helvetica">Microsoft Azure DS2</tspan><tspan
             x="252.02206 260.57608 265.23807 273.02206 280.02206 283.91406 291.69806 298.69806 302.59006 311.92807 315.03607 319.69806 323.59006 331.37405 339.15805 342.26605 346.15805 357.82007 365.60406 372.60406 380.38806 383.49606 391.28006"
             y="-260.97638"
             id="tspan82"
             style="font-size:13.99999809px;font-variant:normal;font-weight:normal;writing-mode:lr-tb;fill:#000000;fill-opacity:1;fill-rule:nonzero;stroke:none;font-family:Helvetica;-inkscape-font-specification:Helvetica">Fractus Virtual Machine</tspan><tspan
             x="288.00537 296.55936 301.22137 309.00537 316.00537 319.89737 327.68137 334.68137 338.57336 347.91135 355.69537 360.35736 368.14136 372.03336 383.69534 391.47937 395.37137 403.15536"
             y="-298.23816"
             id="tspan84"
             style="font-size:13.99999809px;font-variant:normal;font-weight:normal;writing-mode:lr-tb;fill:#000000;fill-opacity:1;fill-rule:nonzero;stroke:none;font-family:Helvetica;-inkscape-font-specification:Helvetica">Fractus Bare Metal</tspan><tspan
             x="324.05817 334.16617 341.95016 345.05817 348.16617 352.05817 362.95016 370.73416 374.62616 377.73416 385.51816 388.62616 396.41016 403.41016 407.30215 415.08615 422.87015"
             y="-335.57187"
             id="tspan86"
             style="font-size:13.99999809px;font-variant:normal;font-weight:normal;writing-mode:lr-tb;fill:#000000;fill-opacity:1;fill-rule:nonzero;stroke:none;font-family:Helvetica;-inkscape-font-specification:Helvetica">Dell Optiplex 760</tspan></text>
</g><path
         d="m 4011,6887 0,-63"
         inkscape:connector-curvature="0"
         id="path88"
         style="fill:none;stroke:#000000;stroke-width:5;stroke-linecap:butt;stroke-linejoin:miter;stroke-miterlimit:3.79999995;stroke-opacity:1;stroke-dasharray:none" /><g
         transform="scale(10,10)"
         id="g90"><text
           transform="matrix(0,1,1,0,405.77,700.992)"
           id="text92"><tspan
             x="0"
             y="0"
             id="tspan94"
             style="font-size:14px;font-variant:normal;font-weight:normal;writing-mode:lr-tb;fill:#000000;fill-opacity:1;fill-rule:nonzero;stroke:none;font-family:Helvetica;-inkscape-font-specification:Helvetica">0</tspan></text>
</g><path
         d="m 3393,6887 0,-63"
         inkscape:connector-curvature="0"
         id="path96"
         style="fill:none;stroke:#000000;stroke-width:5;stroke-linecap:butt;stroke-linejoin:miter;stroke-miterlimit:3.79999995;stroke-opacity:1;stroke-dasharray:none" /><g
         transform="scale(10,10)"
         id="g98"><text
           transform="matrix(0,1,1,0,343.97,700.992)"
           id="text100"><tspan
             x="0"
             y="0"
             id="tspan102"
             style="font-size:14px;font-variant:normal;font-weight:normal;writing-mode:lr-tb;fill:#000000;fill-opacity:1;fill-rule:nonzero;stroke:none;font-family:Helvetica;-inkscape-font-specification:Helvetica">2</tspan></text>
</g><path
         d="m 2775,6887 0,-63"
         inkscape:connector-curvature="0"
         id="path104"
         style="fill:none;stroke:#000000;stroke-width:5;stroke-linecap:butt;stroke-linejoin:miter;stroke-miterlimit:3.79999995;stroke-opacity:1;stroke-dasharray:none" /><g
         transform="scale(10,10)"
         id="g106"><text
           transform="matrix(0,1,1,0,282.17,700.992)"
           id="text108"><tspan
             x="0"
             y="0"
             id="tspan110"
             style="font-size:14px;font-variant:normal;font-weight:normal;writing-mode:lr-tb;fill:#000000;fill-opacity:1;fill-rule:nonzero;stroke:none;font-family:Helvetica;-inkscape-font-specification:Helvetica">4</tspan></text>
</g><path
         d="m 2157,6887 0,-63"
         inkscape:connector-curvature="0"
         id="path112"
         style="fill:none;stroke:#000000;stroke-width:5;stroke-linecap:butt;stroke-linejoin:miter;stroke-miterlimit:3.79999995;stroke-opacity:1;stroke-dasharray:none" /><g
         transform="scale(10,10)"
         id="g114"><text
           transform="matrix(0,1,1,0,220.37,700.992)"
           id="text116"><tspan
             x="0"
             y="0"
             id="tspan118"
             style="font-size:14px;font-variant:normal;font-weight:normal;writing-mode:lr-tb;fill:#000000;fill-opacity:1;fill-rule:nonzero;stroke:none;font-family:Helvetica;-inkscape-font-specification:Helvetica">6</tspan></text>
</g><path
         d="m 1539,6887 0,-63"
         inkscape:connector-curvature="0"
         id="path120"
         style="fill:none;stroke:#000000;stroke-width:5;stroke-linecap:butt;stroke-linejoin:miter;stroke-miterlimit:3.79999995;stroke-opacity:1;stroke-dasharray:none" /><g
         transform="scale(10,10)"
         id="g122"><text
           transform="matrix(0,1,1,0,158.57,700.992)"
           id="text124"><tspan
             x="0"
             y="0"
             id="tspan126"
             style="font-size:14px;font-variant:normal;font-weight:normal;writing-mode:lr-tb;fill:#000000;fill-opacity:1;fill-rule:nonzero;stroke:none;font-family:Helvetica;-inkscape-font-specification:Helvetica">8</tspan></text>
</g><path
         d="m 921,6887 0,-63"
         inkscape:connector-curvature="0"
         id="path128"
         style="fill:none;stroke:#000000;stroke-width:5;stroke-linecap:butt;stroke-linejoin:miter;stroke-miterlimit:3.79999995;stroke-opacity:1;stroke-dasharray:none" /><g
         transform="scale(10,10)"
         id="g130"><text
           transform="matrix(0,1,1,0,96.7699,700.992)"
           id="text132"><tspan
             x="0 7.7839999"
             y="0"
             id="tspan134"
             style="font-size:14px;font-variant:normal;font-weight:normal;writing-mode:lr-tb;fill:#000000;fill-opacity:1;fill-rule:nonzero;stroke:none;font-family:Helvetica;-inkscape-font-specification:Helvetica">10</tspan></text>
</g><path
         d="m 921,1186 3090,0 0,5701 -3090,0 0,-5701 z"
         inkscape:connector-curvature="0"
         id="path136"
         style="fill:none;stroke:#000000;stroke-width:10;stroke-linecap:butt;stroke-linejoin:miter;stroke-miterlimit:3.79999995;stroke-opacity:1;stroke-dasharray:none" /><g
         transform="scale(10,10)"
         id="g138"><text
           transform="matrix(0,1,1,0,112.17,471)"
           id="text140"><tspan
             x="0 10.108 17.892 21 24.108 28 38.891998 46.675999 50.568001 53.675999 61.459999 64.568001 72.351997 79.351997 83.244003 91.028 98.811996 106.596 110.488 118.272 126.056 133.84 141.62399 150.96201"
             y="0"
             id="tspan142"
             style="font-size:14px;font-variant:normal;font-weight:normal;writing-mode:lr-tb;fill:#000000;fill-opacity:1;fill-rule:nonzero;stroke:none;font-family:Helvetica;-inkscape-font-specification:Helvetica">Dell Optiplex 760:6144KB</tspan></text>
<text
           transform="matrix(-1,0,0,1,331.404,65.8699)"
           id="text144"><tspan
             x="0 11.662 19.445999 27.23 34.23 42.014 46.675999 54.459999 62.243999 66.136002 76.244003 84.028 91.028 98.811996 106.596 110.488 119.826 122.934 129.93401 137.718 141.61 146.272 155.61 164.948"
             y="0"
             id="tspan146"
             style="font-size:14px;font-variant:normal;font-weight:normal;writing-mode:lr-tb;fill:#000000;fill-opacity:1;fill-rule:nonzero;stroke:none;font-family:Helvetica;-inkscape-font-specification:Helvetica">Measured Cache Size (KB)</tspan><tspan
             x="-5.4531298 6.2088699 13.99287 21.776871 28.776871 36.560871 41.22287 49.00687 56.790871 60.682869 70.790871 78.574867 86.358871 94.142868 98.034866 105.81887 113.60287 117.49487 125.27887 133.06287 140.06287 147.06287 150.95486 155.61687 163.40086 170.40086"
             y="676.40002"
             id="tspan148"
             style="font-size:14px;font-variant:normal;font-weight:normal;writing-mode:lr-tb;fill:#000000;fill-opacity:1;fill-rule:nonzero;stroke:none;font-family:Helvetica;-inkscape-font-specification:Helvetica">Measured Read Latency (ns)</tspan></text>
<text
           transform="matrix(0,1,1,0,75.7699,276.377)"
           id="text150"><tspan
             x="0 10.108 17.892 29.554001 37.338001 45.122002 49.784 52.891998 59.891998 67.676003 75.459999 79.351997 83.244003 91.028 98.811996 102.704 112.812 120.596 127.596 135.38 143.164 147.056 156.394 159.502 166.502 174.286 178.17799 185.96201 193.746 201.53 205.422 213.20599 220.99001 224.882 232.666 240.45 247.45"
             y="0"
             id="tspan152"
             style="font-size:14px;font-variant:normal;font-weight:normal;writing-mode:lr-tb;fill:#000000;fill-opacity:1;fill-rule:nonzero;stroke:none;font-family:Helvetica;-inkscape-font-specification:Helvetica">Comparison: L2 Cache Size and Latency</tspan><tspan
             x="-117.806 -108.468 -105.36 -98.360001"
             y="34.299999"
             id="tspan154"
             style="font-size:14px;font-variant:normal;font-weight:normal;writing-mode:lr-tb;fill:#000000;fill-opacity:1;fill-rule:nonzero;stroke:none;font-family:Helvetica;-inkscape-font-specification:Helvetica">Size</tspan></text>
</g><path
         d="m 1019,1942 70,0 0,399 -70,0 0,-399 z"
         inkscape:connector-curvature="0"
         id="path156"
         style="fill:#0000ff;fill-opacity:1;fill-rule:nonzero;stroke:none" /><path
         d="m 1019,1942 70,0 0,399 -70,0 0,-399 z"
         inkscape:connector-curvature="0"
         id="path158"
         style="fill:none;stroke:#000000;stroke-width:5;stroke-linecap:butt;stroke-linejoin:miter;stroke-miterlimit:3.79999995;stroke-opacity:1;stroke-dasharray:none" /><path
         d="m 2428,1713 1583,0 0,156 -1583,0 0,-156 z"
         inkscape:connector-curvature="0"
         id="path160"
         style="fill:#0000ff;fill-opacity:1;fill-rule:nonzero;stroke:none" /><path
         d="m 2429,1713 1582,0 0,155 -1582,0 0,-155 z"
         inkscape:connector-curvature="0"
         id="path162"
         style="fill:none;stroke:#000000;stroke-width:5;stroke-linecap:butt;stroke-linejoin:miter;stroke-miterlimit:3.79999995;stroke-opacity:1;stroke-dasharray:none" /><path
         d="m 2428,2231 1583,0 0,157 -1583,0 0,-157 z"
         inkscape:connector-curvature="0"
         id="path164"
         style="fill:#0000ff;fill-opacity:1;fill-rule:nonzero;stroke:none" /><path
         d="m 2429,2231 1582,0 0,156 -1582,0 0,-156 z"
         inkscape:connector-curvature="0"
         id="path166"
         style="fill:none;stroke:#000000;stroke-width:5;stroke-linecap:butt;stroke-linejoin:miter;stroke-miterlimit:3.79999995;stroke-opacity:1;stroke-dasharray:none" /><path
         d="m 2428,2749 1583,0 0,157 -1583,0 0,-157 z"
         inkscape:connector-curvature="0"
         id="path168"
         style="fill:#0000ff;fill-opacity:1;fill-rule:nonzero;stroke:none" /><path
         d="m 2429,2749 1582,0 0,156 -1582,0 0,-156 z"
         inkscape:connector-curvature="0"
         id="path170"
         style="fill:none;stroke:#000000;stroke-width:5;stroke-linecap:butt;stroke-linejoin:miter;stroke-miterlimit:3.79999995;stroke-opacity:1;stroke-dasharray:none" /><path
         d="m 2428,3268 1583,0 0,156 -1583,0 0,-156 z"
         inkscape:connector-curvature="0"
         id="path172"
         style="fill:#0000ff;fill-opacity:1;fill-rule:nonzero;stroke:none" /><path
         d="m 2429,3268 1582,0 0,155 -1582,0 0,-155 z"
         inkscape:connector-curvature="0"
         id="path174"
         style="fill:none;stroke:#000000;stroke-width:5;stroke-linecap:butt;stroke-linejoin:miter;stroke-miterlimit:3.79999995;stroke-opacity:1;stroke-dasharray:none" /><path
         d="m 2428,3786 1583,0 0,156 -1583,0 0,-156 z"
         inkscape:connector-curvature="0"
         id="path176"
         style="fill:#0000ff;fill-opacity:1;fill-rule:nonzero;stroke:none" /><path
         d="m 2429,3786 1582,0 0,155 -1582,0 0,-155 z"
         inkscape:connector-curvature="0"
         id="path178"
         style="fill:none;stroke:#000000;stroke-width:5;stroke-linecap:butt;stroke-linejoin:miter;stroke-miterlimit:3.79999995;stroke-opacity:1;stroke-dasharray:none" /><path
         d="m 2428,4304 1583,0 0,157 -1583,0 0,-157 z"
         inkscape:connector-curvature="0"
         id="path180"
         style="fill:#0000ff;fill-opacity:1;fill-rule:nonzero;stroke:none" /><path
         d="m 2429,4304 1582,0 0,156 -1582,0 0,-156 z"
         inkscape:connector-curvature="0"
         id="path182"
         style="fill:none;stroke:#000000;stroke-width:5;stroke-linecap:butt;stroke-linejoin:miter;stroke-miterlimit:3.79999995;stroke-opacity:1;stroke-dasharray:none" /><path
         d="m 2428,4823 1583,0 0,156 -1583,0 0,-156 z"
         inkscape:connector-curvature="0"
         id="path184"
         style="fill:#0000ff;fill-opacity:1;fill-rule:nonzero;stroke:none" /><path
         d="m 2429,4823 1582,0 0,155 -1582,0 0,-155 z"
         inkscape:connector-curvature="0"
         id="path186"
         style="fill:none;stroke:#000000;stroke-width:5;stroke-linecap:butt;stroke-linejoin:miter;stroke-miterlimit:3.79999995;stroke-opacity:1;stroke-dasharray:none" /><path
         d="m 2428,5341 1583,0 0,156 -1583,0 0,-156 z"
         inkscape:connector-curvature="0"
         id="path188"
         style="fill:#0000ff;fill-opacity:1;fill-rule:nonzero;stroke:none" /><path
         d="m 2429,5341 1582,0 0,155 -1582,0 0,-155 z"
         inkscape:connector-curvature="0"
         id="path190"
         style="fill:none;stroke:#000000;stroke-width:5;stroke-linecap:butt;stroke-linejoin:miter;stroke-miterlimit:3.79999995;stroke-opacity:1;stroke-dasharray:none" /><path
         d="m 2428,5859 1583,0 0,157 -1583,0 0,-157 z"
         inkscape:connector-curvature="0"
         id="path192"
         style="fill:#0000ff;fill-opacity:1;fill-rule:nonzero;stroke:none" /><path
         d="m 2429,5859 1582,0 0,156 -1582,0 0,-156 z"
         inkscape:connector-curvature="0"
         id="path194"
         style="fill:none;stroke:#000000;stroke-width:5;stroke-linecap:butt;stroke-linejoin:miter;stroke-miterlimit:3.79999995;stroke-opacity:1;stroke-dasharray:none" /><path
         d="m 920,6377 3091,0 0,157 -3091,0 0,-157 z"
         inkscape:connector-curvature="0"
         id="path196"
         style="fill:#0000ff;fill-opacity:1;fill-rule:nonzero;stroke:none" /><path
         d="m 921,6377 3090,0 0,156 -3090,0 0,-156 z"
         inkscape:connector-curvature="0"
         id="path198"
         style="fill:none;stroke:#000000;stroke-width:5;stroke-linecap:butt;stroke-linejoin:miter;stroke-miterlimit:3.79999995;stroke-opacity:1;stroke-dasharray:none" /><g
         transform="scale(10,10)"
         id="g200"><text
           transform="matrix(0,1,1,0,124.07,136.772)"
           id="text202"><tspan
             x="0 7.7839999 15.568 19.459999 27.243999 35.028 42.028"
             y="0"
             id="tspan204"
             style="font-size:14px;font-variant:normal;font-weight:normal;writing-mode:lr-tb;fill:#000000;fill-opacity:1;fill-rule:nonzero;stroke:none;font-family:Helvetica;-inkscape-font-specification:Helvetica">Latency</tspan></text>
</g><path
         d="m 1194,1942 0,399 m 2817,-637 0,1037 -1041,518 3,518 -81,519 41,518 321,518 15,518 -1038,519"
         inkscape:connector-curvature="0"
         id="path206"
         style="fill:none;stroke:#ff0000;stroke-width:15;stroke-linecap:butt;stroke-linejoin:miter;stroke-miterlimit:3.79999995;stroke-opacity:1;stroke-dasharray:none" /><path
         d="m 3979.5,1672.5 63,63"
         inkscape:connector-curvature="0"
         id="path208"
         style="fill:none;stroke:#ff0000;stroke-width:15;stroke-linecap:butt;stroke-linejoin:miter;stroke-miterlimit:3.79999995;stroke-opacity:1;stroke-dasharray:none" /><path
         d="m 4042.5,1672.5 -63,63"
         inkscape:connector-curvature="0"
         id="path210"
         style="fill:none;stroke:#ff0000;stroke-width:15;stroke-linecap:butt;stroke-linejoin:miter;stroke-miterlimit:3.79999995;stroke-opacity:1;stroke-dasharray:none" /><path
         d="m 3979.5,2191.5 63,63"
         inkscape:connector-curvature="0"
         id="path212"
         style="fill:none;stroke:#ff0000;stroke-width:15;stroke-linecap:butt;stroke-linejoin:miter;stroke-miterlimit:3.79999995;stroke-opacity:1;stroke-dasharray:none" /><path
         d="m 4042.5,2191.5 -63,63"
         inkscape:connector-curvature="0"
         id="path214"
         style="fill:none;stroke:#ff0000;stroke-width:15;stroke-linecap:butt;stroke-linejoin:miter;stroke-miterlimit:3.79999995;stroke-opacity:1;stroke-dasharray:none" /><path
         d="m 3979.5,2709.5 63,63"
         inkscape:connector-curvature="0"
         id="path216"
         style="fill:none;stroke:#ff0000;stroke-width:15;stroke-linecap:butt;stroke-linejoin:miter;stroke-miterlimit:3.79999995;stroke-opacity:1;stroke-dasharray:none" /><path
         d="m 4042.5,2709.5 -63,63"
         inkscape:connector-curvature="0"
         id="path218"
         style="fill:none;stroke:#ff0000;stroke-width:15;stroke-linecap:butt;stroke-linejoin:miter;stroke-miterlimit:3.79999995;stroke-opacity:1;stroke-dasharray:none" /><path
         d="m 2938.5,3227.5 63,63"
         inkscape:connector-curvature="0"
         id="path220"
         style="fill:none;stroke:#ff0000;stroke-width:15;stroke-linecap:butt;stroke-linejoin:miter;stroke-miterlimit:3.79999995;stroke-opacity:1;stroke-dasharray:none" /><path
         d="m 3001.5,3227.5 -63,63"
         inkscape:connector-curvature="0"
         id="path222"
         style="fill:none;stroke:#ff0000;stroke-width:15;stroke-linecap:butt;stroke-linejoin:miter;stroke-miterlimit:3.79999995;stroke-opacity:1;stroke-dasharray:none" /><path
         d="m 2941.5,3745.5 63,63"
         inkscape:connector-curvature="0"
         id="path224"
         style="fill:none;stroke:#ff0000;stroke-width:15;stroke-linecap:butt;stroke-linejoin:miter;stroke-miterlimit:3.79999995;stroke-opacity:1;stroke-dasharray:none" /><path
         d="m 3004.5,3745.5 -63,63"
         inkscape:connector-curvature="0"
         id="path226"
         style="fill:none;stroke:#ff0000;stroke-width:15;stroke-linecap:butt;stroke-linejoin:miter;stroke-miterlimit:3.79999995;stroke-opacity:1;stroke-dasharray:none" /><path
         d="m 2860.5,4264.5 63,63"
         inkscape:connector-curvature="0"
         id="path228"
         style="fill:none;stroke:#ff0000;stroke-width:15;stroke-linecap:butt;stroke-linejoin:miter;stroke-miterlimit:3.79999995;stroke-opacity:1;stroke-dasharray:none" /><path
         d="m 2923.5,4264.5 -63,63"
         inkscape:connector-curvature="0"
         id="path230"
         style="fill:none;stroke:#ff0000;stroke-width:15;stroke-linecap:butt;stroke-linejoin:miter;stroke-miterlimit:3.79999995;stroke-opacity:1;stroke-dasharray:none" /><path
         d="m 2901.5,4782.5 63,63"
         inkscape:connector-curvature="0"
         id="path232"
         style="fill:none;stroke:#ff0000;stroke-width:15;stroke-linecap:butt;stroke-linejoin:miter;stroke-miterlimit:3.79999995;stroke-opacity:1;stroke-dasharray:none" /><path
         d="m 2964.5,4782.5 -63,63"
         inkscape:connector-curvature="0"
         id="path234"
         style="fill:none;stroke:#ff0000;stroke-width:15;stroke-linecap:butt;stroke-linejoin:miter;stroke-miterlimit:3.79999995;stroke-opacity:1;stroke-dasharray:none" /><path
         d="m 3222.5,5300.5 63,63"
         inkscape:connector-curvature="0"
         id="path236"
         style="fill:none;stroke:#ff0000;stroke-width:15;stroke-linecap:butt;stroke-linejoin:miter;stroke-miterlimit:3.79999995;stroke-opacity:1;stroke-dasharray:none" /><path
         d="m 3285.5,5300.5 -63,63"
         inkscape:connector-curvature="0"
         id="path238"
         style="fill:none;stroke:#ff0000;stroke-width:15;stroke-linecap:butt;stroke-linejoin:miter;stroke-miterlimit:3.79999995;stroke-opacity:1;stroke-dasharray:none" /><path
         d="m 3237.5,5818.5 63,63"
         inkscape:connector-curvature="0"
         id="path240"
         style="fill:none;stroke:#ff0000;stroke-width:15;stroke-linecap:butt;stroke-linejoin:miter;stroke-miterlimit:3.79999995;stroke-opacity:1;stroke-dasharray:none" /><path
         d="m 3300.5,5818.5 -63,63"
         inkscape:connector-curvature="0"
         id="path242"
         style="fill:none;stroke:#ff0000;stroke-width:15;stroke-linecap:butt;stroke-linejoin:miter;stroke-miterlimit:3.79999995;stroke-opacity:1;stroke-dasharray:none" /><path
         d="m 2199.5,6337.5 63,63"
         inkscape:connector-curvature="0"
         id="path244"
         style="fill:none;stroke:#ff0000;stroke-width:15;stroke-linecap:butt;stroke-linejoin:miter;stroke-miterlimit:3.79999995;stroke-opacity:1;stroke-dasharray:none" /><path
         d="m 2262.5,6337.5 -63,63"
         inkscape:connector-curvature="0"
         id="path246"
         style="fill:none;stroke:#ff0000;stroke-width:15;stroke-linecap:butt;stroke-linejoin:miter;stroke-miterlimit:3.79999995;stroke-opacity:1;stroke-dasharray:none" /><path
         d="m 1162.5,2109.5 63,63"
         inkscape:connector-curvature="0"
         id="path248"
         style="fill:none;stroke:#ff0000;stroke-width:15;stroke-linecap:butt;stroke-linejoin:miter;stroke-miterlimit:3.79999995;stroke-opacity:1;stroke-dasharray:none" /><path
         d="m 1225.5,2109.5 -63,63"
         inkscape:connector-curvature="0"
         id="path250"
         style="fill:none;stroke:#ff0000;stroke-width:15;stroke-linecap:butt;stroke-linejoin:miter;stroke-miterlimit:3.79999995;stroke-opacity:1;stroke-dasharray:none" /><path
         d="m 921,1186 3090,0 0,5701 -3090,0 0,-5701 z"
         inkscape:connector-curvature="0"
         id="path252"
         style="fill:none;stroke:#000000;stroke-width:10;stroke-linecap:butt;stroke-linejoin:miter;stroke-miterlimit:3.79999995;stroke-opacity:1;stroke-dasharray:none" /></g></g></svg>