<?xml version="1.0" encoding="UTF-8" standalone="no"?>
<svg
   xmlns:dc="http://purl.org/dc/elements/1.1/"
   xmlns:cc="http://creativecommons.org/ns#"
   xmlns:rdf="http://www.w3.org/1999/02/22-rdf-syntax-ns#"
   xmlns:svg="http://www.w3.org/2000/svg"
   xmlns="http://www.w3.org/2000/svg"
   viewBox="0 0 990 765"
   height="765"
   width="990"
   xml:space="preserve"
   version="1.1"
   id="svg2"><metadata
     id="metadata8"><rdf:RDF><cc:Work
         rdf:about=""><dc:format>image/svg+xml</dc:format><dc:type
           rdf:resource="http://purl.org/dc/dcmitype/StillImage" /></cc:Work></rdf:RDF></metadata><defs
     id="defs6"><clipPath
       id="clipPath12"
       clipPathUnits="userSpaceOnUse"><path
         id="path14"
         d="M 0,0 612,0 612,792 0,792 0,0 Z" /></clipPath></defs><g
     clip-path="url(#clipPath12)"
     transform="matrix(0,1.25,1.25,0,0,0)"
     id="g10"><g
       transform="scale(0.1,0.1)"
       id="g16"><path
         id="path18"
         style="fill:none;stroke:#000000;stroke-width:5;stroke-linecap:butt;stroke-linejoin:miter;stroke-miterlimit:3.79999995;stroke-dasharray:none;stroke-opacity:1"
         d="m 4011,1354 0,63 m 0,5470 0,-63" /><g
         transform="scale(10,10)"
         id="g20"><text
           id="text22"
           style="font-variant:normal;font-weight:normal;font-size:14px;font-family:Helvetica;-inkscape-font-specification:Helvetica;writing-mode:lr-tb;fill:#000000;fill-opacity:1;fill-rule:nonzero;stroke:none"
           transform="matrix(0,1,1,0,405.77,119.216)"><tspan
             id="tspan24"
             y="0"
             x="0">0</tspan></text>
</g><path
         id="path26"
         style="fill:none;stroke:#000000;stroke-width:5;stroke-linecap:butt;stroke-linejoin:miter;stroke-miterlimit:3.79999995;stroke-dasharray:none;stroke-opacity:1"
         d="m 3393,1354 0,63 m 0,5470 0,-63" /><g
         transform="scale(10,10)"
         id="g28"><text
           id="text30"
           style="font-variant:normal;font-weight:normal;font-size:14px;font-family:Helvetica;-inkscape-font-specification:Helvetica;writing-mode:lr-tb;fill:#000000;fill-opacity:1;fill-rule:nonzero;stroke:none"
           transform="matrix(0,1,1,0,343.97,88.0803)"><tspan
             id="tspan32"
             y="0"
             x="0 7.7839999 15.568 23.351999 31.136">10000</tspan></text>
</g><path
         id="path34"
         style="fill:none;stroke:#000000;stroke-width:5;stroke-linecap:butt;stroke-linejoin:miter;stroke-miterlimit:3.79999995;stroke-dasharray:none;stroke-opacity:1"
         d="m 2775,1354 0,63 m 0,5470 0,-63" /><g
         transform="scale(10,10)"
         id="g36"><text
           id="text38"
           style="font-variant:normal;font-weight:normal;font-size:14px;font-family:Helvetica;-inkscape-font-specification:Helvetica;writing-mode:lr-tb;fill:#000000;fill-opacity:1;fill-rule:nonzero;stroke:none"
           transform="matrix(0,1,1,0,282.17,88.0803)"><tspan
             id="tspan40"
             y="0"
             x="0 7.7839999 15.568 23.351999 31.136">20000</tspan></text>
</g><path
         id="path42"
         style="fill:none;stroke:#000000;stroke-width:5;stroke-linecap:butt;stroke-linejoin:miter;stroke-miterlimit:3.79999995;stroke-dasharray:none;stroke-opacity:1"
         d="m 2157,1354 0,63 m 0,5470 0,-63" /><g
         transform="scale(10,10)"
         id="g44"><text
           id="text46"
           style="font-variant:normal;font-weight:normal;font-size:14px;font-family:Helvetica;-inkscape-font-specification:Helvetica;writing-mode:lr-tb;fill:#000000;fill-opacity:1;fill-rule:nonzero;stroke:none"
           transform="matrix(0,1,1,0,220.37,88.0803)"><tspan
             id="tspan48"
             y="0"
             x="0 7.7839999 15.568 23.351999 31.136">30000</tspan></text>
</g><path
         id="path50"
         style="fill:none;stroke:#000000;stroke-width:5;stroke-linecap:butt;stroke-linejoin:miter;stroke-miterlimit:3.79999995;stroke-dasharray:none;stroke-opacity:1"
         d="m 1539,1354 0,63 m 0,5470 0,-63" /><g
         transform="scale(10,10)"
         id="g52"><text
           id="text54"
           style="font-variant:normal;font-weight:normal;font-size:14px;font-family:Helvetica;-inkscape-font-specification:Helvetica;writing-mode:lr-tb;fill:#000000;fill-opacity:1;fill-rule:nonzero;stroke:none"
           transform="matrix(0,1,1,0,158.57,88.0803)"><tspan
             id="tspan56"
             y="0"
             x="0 7.7839999 15.568 23.351999 31.136">40000</tspan></text>
</g><path
         id="path58"
         style="fill:none;stroke:#000000;stroke-width:5;stroke-linecap:butt;stroke-linejoin:miter;stroke-miterlimit:3.79999995;stroke-dasharray:none;stroke-opacity:1"
         d="m 921,1354 0,63 m 0,5470 0,-63" /><g
         transform="scale(10,10)"
         id="g60"><text
           id="text62"
           style="font-variant:normal;font-weight:normal;font-size:14px;font-family:Helvetica;-inkscape-font-specification:Helvetica;writing-mode:lr-tb;fill:#000000;fill-opacity:1;fill-rule:nonzero;stroke:none"
           transform="matrix(0,1,1,0,96.7699,88.0803)"><tspan
             id="tspan64"
             y="0"
             x="0 7.7839999 15.568 23.351999 31.136">50000</tspan></text>
<text
           id="text66"
           style="font-variant:normal;font-weight:normal;font-size:13.99999809px;font-family:Helvetica;-inkscape-font-specification:Helvetica;writing-mode:lr-tb;fill:#000000;fill-opacity:1;fill-rule:nonzero;stroke:none"
           transform="matrix(0.71934,0.694658,0.694658,-0.71934,412.744,182.341)"><tspan
             id="tspan68"
             y="0"
             x="0 9.3379993 20.999998 28.783997 35.783997 43.567993 51.351994 55.243992 66.905991 74.689995 78.581993 90.243988 98.027992 105.81199 108.91999 116.70399">Amazon m3.medium</tspan><tspan
             id="tspan70"
             y="-36.182796"
             x="34.941296 44.279293 55.941292 63.725292 70.725288 78.509293 86.293289 90.185287 97.185287 104.96929 108.86129 111.96928 119.75329 124.41528 132.19928">Amazon c3.large</tspan><tspan
             id="tspan72"
             y="-72.365593"
             x="69.882591 79.220589 90.882591 98.666588 105.66659 113.45058 121.23459 125.12659 132.12659 139.91058 143.80258 146.91058 154.69458 159.35658 167.14058">Amazon c4.large</tspan><tspan
             id="tspan74"
             y="-108.54839"
             x="104.82389 115.71589 123.49989 131.28389 139.06789 142.17589 149.95988 153.85188 161.63588 169.41988 174.08188 181.08188 184.97388 192.75787 200.54187 208.32588 216.10988 220.77188 228.55588">Google n1-standard1</tspan><tspan
             id="tspan76"
             y="-144.73119"
             x="139.76518 150.65718 158.44118 166.22517 174.00919 177.11717 184.90118 188.79318 196.57718 204.36118 209.02318 216.02318 219.91518 227.69917 235.48317 243.26717 251.05118 255.71317 263.49716">Google n1-standard2</tspan><tspan
             id="tspan78"
             y="-180.91399"
             x="174.70648 186.36848 189.47647 196.47647 201.13847 208.92247 215.92247 223.70648 227.59848 231.49048 235.38248 244.72047 251.72047 259.50446 264.16647 271.95047 275.84247 285.95047 295.28845">Microsoft Azure DS1</tspan><tspan
             id="tspan80"
             y="-217.09679"
             x="209.64778 221.30977 224.41777 231.41777 236.07977 243.86377 250.86377 258.64777 262.53976 266.43176 270.32376 279.66177 286.66177 294.44577 299.10776 306.89175 310.78375 320.89175 330.22977">Microsoft Azure DS2</tspan><tspan
             id="tspan82"
             y="-253.27957"
             x="244.58907 253.14307 257.80508 265.58908 272.58908 276.48108 284.26508 291.26508 295.15707 304.49506 307.60306 312.26508 316.15707 323.94107 331.72507 334.83307 338.72507 350.38705 358.17105 365.17105 372.95505 376.06305 383.84705">Fractus Virtual Machine</tspan><tspan
             id="tspan84"
             y="-289.46237"
             x="279.53036 288.08438 292.74637 300.53036 307.53036 311.42236 319.20636 326.20636 330.09836 339.43637 347.22037 351.88235 359.66635 363.55835 375.22037 383.00436 386.89636 394.68036">Fractus Bare Metal</tspan><tspan
             id="tspan86"
             y="-325.64517"
             x="314.47165 324.57965 332.36365 335.47165 338.57965 342.47165 353.36365 361.14764 365.03967 368.14764 375.93167 379.03964 386.82367 393.82367 397.71567 405.49966 413.28366">Dell Optiplex 760</tspan></text>
</g><path
         id="path88"
         style="fill:none;stroke:#000000;stroke-width:5;stroke-linecap:butt;stroke-linejoin:miter;stroke-miterlimit:3.79999995;stroke-dasharray:none;stroke-opacity:1"
         d="m 4011,6887 0,-63" /><g
         transform="scale(10,10)"
         id="g90"><text
           id="text92"
           style="font-variant:normal;font-weight:normal;font-size:14px;font-family:Helvetica;-inkscape-font-specification:Helvetica;writing-mode:lr-tb;fill:#000000;fill-opacity:1;fill-rule:nonzero;stroke:none"
           transform="matrix(0,1,1,0,405.77,700.992)"><tspan
             id="tspan94"
             y="0"
             x="0">0</tspan></text>
</g><path
         id="path96"
         style="fill:none;stroke:#000000;stroke-width:5;stroke-linecap:butt;stroke-linejoin:miter;stroke-miterlimit:3.79999995;stroke-dasharray:none;stroke-opacity:1"
         d="m 3393,6887 0,-63" /><g
         transform="scale(10,10)"
         id="g98"><text
           id="text100"
           style="font-variant:normal;font-weight:normal;font-size:14px;font-family:Helvetica;-inkscape-font-specification:Helvetica;writing-mode:lr-tb;fill:#000000;fill-opacity:1;fill-rule:nonzero;stroke:none"
           transform="matrix(0,1,1,0,343.97,700.992)"><tspan
             id="tspan102"
             y="0"
             x="0 7.7839999">10</tspan></text>
</g><path
         id="path104"
         style="fill:none;stroke:#000000;stroke-width:5;stroke-linecap:butt;stroke-linejoin:miter;stroke-miterlimit:3.79999995;stroke-dasharray:none;stroke-opacity:1"
         d="m 2775,6887 0,-63" /><g
         transform="scale(10,10)"
         id="g106"><text
           id="text108"
           style="font-variant:normal;font-weight:normal;font-size:14px;font-family:Helvetica;-inkscape-font-specification:Helvetica;writing-mode:lr-tb;fill:#000000;fill-opacity:1;fill-rule:nonzero;stroke:none"
           transform="matrix(0,1,1,0,282.17,700.992)"><tspan
             id="tspan110"
             y="0"
             x="0 7.7839999">20</tspan></text>
</g><path
         id="path112"
         style="fill:none;stroke:#000000;stroke-width:5;stroke-linecap:butt;stroke-linejoin:miter;stroke-miterlimit:3.79999995;stroke-dasharray:none;stroke-opacity:1"
         d="m 2157,6887 0,-63" /><g
         transform="scale(10,10)"
         id="g114"><text
           id="text116"
           style="font-variant:normal;font-weight:normal;font-size:14px;font-family:Helvetica;-inkscape-font-specification:Helvetica;writing-mode:lr-tb;fill:#000000;fill-opacity:1;fill-rule:nonzero;stroke:none"
           transform="matrix(0,1,1,0,220.37,700.992)"><tspan
             id="tspan118"
             y="0"
             x="0 7.7839999">30</tspan></text>
</g><path
         id="path120"
         style="fill:none;stroke:#000000;stroke-width:5;stroke-linecap:butt;stroke-linejoin:miter;stroke-miterlimit:3.79999995;stroke-dasharray:none;stroke-opacity:1"
         d="m 1539,6887 0,-63" /><g
         transform="scale(10,10)"
         id="g122"><text
           id="text124"
           style="font-variant:normal;font-weight:normal;font-size:14px;font-family:Helvetica;-inkscape-font-specification:Helvetica;writing-mode:lr-tb;fill:#000000;fill-opacity:1;fill-rule:nonzero;stroke:none"
           transform="matrix(0,1,1,0,158.57,700.992)"><tspan
             id="tspan126"
             y="0"
             x="0 7.7839999">40</tspan></text>
</g><path
         id="path128"
         style="fill:none;stroke:#000000;stroke-width:5;stroke-linecap:butt;stroke-linejoin:miter;stroke-miterlimit:3.79999995;stroke-dasharray:none;stroke-opacity:1"
         d="m 921,6887 0,-63" /><g
         transform="scale(10,10)"
         id="g130"><text
           id="text132"
           style="font-variant:normal;font-weight:normal;font-size:14px;font-family:Helvetica;-inkscape-font-specification:Helvetica;writing-mode:lr-tb;fill:#000000;fill-opacity:1;fill-rule:nonzero;stroke:none"
           transform="matrix(0,1,1,0,96.7699,700.992)"><tspan
             id="tspan134"
             y="0"
             x="0 7.7839999">50</tspan></text>
</g><path
         id="path136"
         style="fill:none;stroke:#000000;stroke-width:10;stroke-linecap:butt;stroke-linejoin:miter;stroke-miterlimit:3.79999995;stroke-dasharray:none;stroke-opacity:1"
         d="m 921,1354 3090,0 0,5533 -3090,0 0,-5533 z" /><g
         transform="scale(10,10)"
         id="g138"><text
           id="text140"
           style="font-variant:normal;font-weight:normal;font-size:14px;font-family:Helvetica;-inkscape-font-specification:Helvetica;writing-mode:lr-tb;fill:#000000;fill-opacity:1;fill-rule:nonzero;stroke:none"
           transform="matrix(-1,0,0,1,331.404,65.8699)"><tspan
             id="tspan142"
             y="0"
             x="0 11.662 19.445999 27.23 34.23 42.014 46.675999 54.459999 62.243999 66.136002 76.244003 84.028 91.028 98.811996 106.596 110.488 119.826 122.934 129.93401 137.718 141.61 146.272 155.61 164.948">Measured Cache Size (KB)</tspan><tspan
             id="tspan144"
             y="676.40002"
             x="-5.4531298 6.2088699 13.99287 21.776871 28.776871 36.560871 41.22287 49.00687 56.790871 60.682869 70.790871 78.574867 86.358871 94.142868 98.034866 105.81887 113.60287 117.49487 125.27887 133.06287 140.06287 147.06287 150.95486 155.61687 163.40086 170.40086">Measured Read Latency (ns)</tspan></text>
<text
           id="text146"
           style="font-variant:normal;font-weight:normal;font-size:14px;font-family:Helvetica;-inkscape-font-specification:Helvetica;writing-mode:lr-tb;fill:#000000;fill-opacity:1;fill-rule:nonzero;stroke:none"
           transform="matrix(0,1,1,0,75.7699,284.777)"><tspan
             id="tspan148"
             y="0"
             x="0 10.108 17.892 29.554001 37.338001 45.122002 49.784 52.891998 59.891998 67.676003 75.459999 79.351997 83.244003 91.028 98.811996 102.704 112.812 120.596 127.596 135.38 143.164 147.056 156.394 159.502 166.502 174.286 178.17799 185.96201 193.746 201.53 205.422 213.20599 220.99001 224.882 232.666 240.45 247.45">Comparison: L3 Cache Size and Latency</tspan><tspan
             id="tspan150"
             y="34.299999"
             x="311.59399 320.93201 324.04001 331.04001">Size</tspan></text>
</g><path
         id="path152"
         style="fill:#0000ff;fill-opacity:1;fill-rule:nonzero;stroke:none"
         d="m 1019,6320 70,0 0,399 -70,0 0,-399 z" /><path
         id="path154"
         style="fill:none;stroke:#000000;stroke-width:5;stroke-linecap:butt;stroke-linejoin:miter;stroke-miterlimit:3.79999995;stroke-dasharray:none;stroke-opacity:1"
         d="m 1019,6320 70,0 0,399 -70,0 0,-399 z" /><path
         id="path156"
         style="fill:#0000ff;fill-opacity:1;fill-rule:nonzero;stroke:none"
         d="m 2428,1865 1583,0 0,152 -1583,0 0,-152 z" /><path
         id="path158"
         style="fill:none;stroke:#000000;stroke-width:5;stroke-linecap:butt;stroke-linejoin:miter;stroke-miterlimit:3.79999995;stroke-dasharray:none;stroke-opacity:1"
         d="m 2429,1865 1582,0 0,151 -1582,0 0,-151 z" /><path
         id="path160"
         style="fill:#0000ff;fill-opacity:1;fill-rule:nonzero;stroke:none"
         d="m 2428,2368 1583,0 0,152 -1583,0 0,-152 z" /><path
         id="path162"
         style="fill:none;stroke:#000000;stroke-width:5;stroke-linecap:butt;stroke-linejoin:miter;stroke-miterlimit:3.79999995;stroke-dasharray:none;stroke-opacity:1"
         d="m 2429,2368 1582,0 0,151 -1582,0 0,-151 z" /><path
         id="path164"
         style="fill:#0000ff;fill-opacity:1;fill-rule:nonzero;stroke:none"
         d="m 2428,2871 1583,0 0,152 -1583,0 0,-152 z" /><path
         id="path166"
         style="fill:none;stroke:#000000;stroke-width:5;stroke-linecap:butt;stroke-linejoin:miter;stroke-miterlimit:3.79999995;stroke-dasharray:none;stroke-opacity:1"
         d="m 2429,2871 1582,0 0,151 -1582,0 0,-151 z" /><path
         id="path168"
         style="fill:#0000ff;fill-opacity:1;fill-rule:nonzero;stroke:none"
         d="m 2280,3374 1731,0 0,152 -1731,0 0,-152 z" /><path
         id="path170"
         style="fill:none;stroke:#000000;stroke-width:5;stroke-linecap:butt;stroke-linejoin:miter;stroke-miterlimit:3.79999995;stroke-dasharray:none;stroke-opacity:1"
         d="m 2281,3374 1730,0 0,151 -1730,0 0,-151 z" /><path
         id="path172"
         style="fill:#0000ff;fill-opacity:1;fill-rule:nonzero;stroke:none"
         d="m 2280,3877 1731,0 0,152 -1731,0 0,-152 z" /><path
         id="path174"
         style="fill:none;stroke:#000000;stroke-width:5;stroke-linecap:butt;stroke-linejoin:miter;stroke-miterlimit:3.79999995;stroke-dasharray:none;stroke-opacity:1"
         d="m 2281,3877 1730,0 0,151 -1730,0 0,-151 z" /><path
         id="path176"
         style="fill:#0000ff;fill-opacity:1;fill-rule:nonzero;stroke:none"
         d="m 2112,4380 1899,0 0,152 -1899,0 0,-152 z" /><path
         id="path178"
         style="fill:none;stroke:#000000;stroke-width:5;stroke-linecap:butt;stroke-linejoin:miter;stroke-miterlimit:3.79999995;stroke-dasharray:none;stroke-opacity:1"
         d="m 2113,4380 1898,0 0,151 -1898,0 0,-151 z" /><path
         id="path180"
         style="fill:#0000ff;fill-opacity:1;fill-rule:nonzero;stroke:none"
         d="m 2112,4883 1899,0 0,152 -1899,0 0,-152 z" /><path
         id="path182"
         style="fill:none;stroke:#000000;stroke-width:5;stroke-linecap:butt;stroke-linejoin:miter;stroke-miterlimit:3.79999995;stroke-dasharray:none;stroke-opacity:1"
         d="m 2113,4883 1898,0 0,151 -1898,0 0,-151 z" /><path
         id="path184"
         style="fill:#0000ff;fill-opacity:1;fill-rule:nonzero;stroke:none"
         d="m 2744,5386 1267,0 0,152 -1267,0 0,-152 z" /><path
         id="path186"
         style="fill:none;stroke:#000000;stroke-width:5;stroke-linecap:butt;stroke-linejoin:miter;stroke-miterlimit:3.79999995;stroke-dasharray:none;stroke-opacity:1"
         d="m 2745,5386 1266,0 0,151 -1266,0 0,-151 z" /><path
         id="path188"
         style="fill:#0000ff;fill-opacity:1;fill-rule:nonzero;stroke:none"
         d="m 2744,5889 1267,0 0,152 -1267,0 0,-152 z" /><path
         id="path190"
         style="fill:none;stroke:#000000;stroke-width:5;stroke-linecap:butt;stroke-linejoin:miter;stroke-miterlimit:3.79999995;stroke-dasharray:none;stroke-opacity:1"
         d="m 2745,5889 1266,0 0,151 -1266,0 0,-151 z" /><g
         transform="scale(10,10)"
         id="g192"><text
           id="text194"
           style="font-variant:normal;font-weight:normal;font-size:14px;font-family:Helvetica;-inkscape-font-specification:Helvetica;writing-mode:lr-tb;fill:#000000;fill-opacity:1;fill-rule:nonzero;stroke:none"
           transform="matrix(0,1,1,0,124.07,574.572)"><tspan
             id="tspan196"
             y="0"
             x="0 7.7839999 15.568 19.459999 27.243999 35.028 42.028">Latency</tspan></text>
</g><path
         id="path198"
         style="fill:none;stroke:#ff0000;stroke-width:15;stroke-linecap:butt;stroke-linejoin:miter;stroke-miterlimit:3.79999995;stroke-dasharray:none;stroke-opacity:1"
         d="m 1194,6320 0,399 m 1091,-4862 926,503 -100,503 -185,503 -110,503 206,503 25,503 308,503 27,503 629,503" /><path
         id="path200"
         style="fill:none;stroke:#ff0000;stroke-width:15;stroke-linecap:butt;stroke-linejoin:miter;stroke-miterlimit:3.79999995;stroke-dasharray:none;stroke-opacity:1"
         d="m 2253.5,1825.5 63,63" /><path
         id="path202"
         style="fill:none;stroke:#ff0000;stroke-width:15;stroke-linecap:butt;stroke-linejoin:miter;stroke-miterlimit:3.79999995;stroke-dasharray:none;stroke-opacity:1"
         d="m 2316.5,1825.5 -63,63" /><path
         id="path204"
         style="fill:none;stroke:#ff0000;stroke-width:15;stroke-linecap:butt;stroke-linejoin:miter;stroke-miterlimit:3.79999995;stroke-dasharray:none;stroke-opacity:1"
         d="m 3179.5,2328.5 63,63" /><path
         id="path206"
         style="fill:none;stroke:#ff0000;stroke-width:15;stroke-linecap:butt;stroke-linejoin:miter;stroke-miterlimit:3.79999995;stroke-dasharray:none;stroke-opacity:1"
         d="m 3242.5,2328.5 -63,63" /><path
         id="path208"
         style="fill:none;stroke:#ff0000;stroke-width:15;stroke-linecap:butt;stroke-linejoin:miter;stroke-miterlimit:3.79999995;stroke-dasharray:none;stroke-opacity:1"
         d="m 3079.5,2831.5 63,63" /><path
         id="path210"
         style="fill:none;stroke:#ff0000;stroke-width:15;stroke-linecap:butt;stroke-linejoin:miter;stroke-miterlimit:3.79999995;stroke-dasharray:none;stroke-opacity:1"
         d="m 3142.5,2831.5 -63,63" /><path
         id="path212"
         style="fill:none;stroke:#ff0000;stroke-width:15;stroke-linecap:butt;stroke-linejoin:miter;stroke-miterlimit:3.79999995;stroke-dasharray:none;stroke-opacity:1"
         d="m 2894.5,3334.5 63,63" /><path
         id="path214"
         style="fill:none;stroke:#ff0000;stroke-width:15;stroke-linecap:butt;stroke-linejoin:miter;stroke-miterlimit:3.79999995;stroke-dasharray:none;stroke-opacity:1"
         d="m 2957.5,3334.5 -63,63" /><path
         id="path216"
         style="fill:none;stroke:#ff0000;stroke-width:15;stroke-linecap:butt;stroke-linejoin:miter;stroke-miterlimit:3.79999995;stroke-dasharray:none;stroke-opacity:1"
         d="m 2784.5,3837.5 63,63" /><path
         id="path218"
         style="fill:none;stroke:#ff0000;stroke-width:15;stroke-linecap:butt;stroke-linejoin:miter;stroke-miterlimit:3.79999995;stroke-dasharray:none;stroke-opacity:1"
         d="m 2847.5,3837.5 -63,63" /><path
         id="path220"
         style="fill:none;stroke:#ff0000;stroke-width:15;stroke-linecap:butt;stroke-linejoin:miter;stroke-miterlimit:3.79999995;stroke-dasharray:none;stroke-opacity:1"
         d="m 2990.5,4340.5 63,63" /><path
         id="path222"
         style="fill:none;stroke:#ff0000;stroke-width:15;stroke-linecap:butt;stroke-linejoin:miter;stroke-miterlimit:3.79999995;stroke-dasharray:none;stroke-opacity:1"
         d="m 3053.5,4340.5 -63,63" /><path
         id="path224"
         style="fill:none;stroke:#ff0000;stroke-width:15;stroke-linecap:butt;stroke-linejoin:miter;stroke-miterlimit:3.79999995;stroke-dasharray:none;stroke-opacity:1"
         d="m 3015.5,4843.5 63,63" /><path
         id="path226"
         style="fill:none;stroke:#ff0000;stroke-width:15;stroke-linecap:butt;stroke-linejoin:miter;stroke-miterlimit:3.79999995;stroke-dasharray:none;stroke-opacity:1"
         d="m 3078.5,4843.5 -63,63" /><path
         id="path228"
         style="fill:none;stroke:#ff0000;stroke-width:15;stroke-linecap:butt;stroke-linejoin:miter;stroke-miterlimit:3.79999995;stroke-dasharray:none;stroke-opacity:1"
         d="m 3323.5,5346.5 63,63" /><path
         id="path230"
         style="fill:none;stroke:#ff0000;stroke-width:15;stroke-linecap:butt;stroke-linejoin:miter;stroke-miterlimit:3.79999995;stroke-dasharray:none;stroke-opacity:1"
         d="m 3386.5,5346.5 -63,63" /><path
         id="path232"
         style="fill:none;stroke:#ff0000;stroke-width:15;stroke-linecap:butt;stroke-linejoin:miter;stroke-miterlimit:3.79999995;stroke-dasharray:none;stroke-opacity:1"
         d="m 3350.5,5849.5 63,63" /><path
         id="path234"
         style="fill:none;stroke:#ff0000;stroke-width:15;stroke-linecap:butt;stroke-linejoin:miter;stroke-miterlimit:3.79999995;stroke-dasharray:none;stroke-opacity:1"
         d="m 3413.5,5849.5 -63,63" /><path
         id="path236"
         style="fill:none;stroke:#ff0000;stroke-width:15;stroke-linecap:butt;stroke-linejoin:miter;stroke-miterlimit:3.79999995;stroke-dasharray:none;stroke-opacity:1"
         d="m 3979.5,6352.5 63,63" /><path
         id="path238"
         style="fill:none;stroke:#ff0000;stroke-width:15;stroke-linecap:butt;stroke-linejoin:miter;stroke-miterlimit:3.79999995;stroke-dasharray:none;stroke-opacity:1"
         d="m 4042.5,6352.5 -63,63" /><path
         id="path240"
         style="fill:none;stroke:#ff0000;stroke-width:15;stroke-linecap:butt;stroke-linejoin:miter;stroke-miterlimit:3.79999995;stroke-dasharray:none;stroke-opacity:1"
         d="m 1162.5,6487.5 63,63" /><path
         id="path242"
         style="fill:none;stroke:#ff0000;stroke-width:15;stroke-linecap:butt;stroke-linejoin:miter;stroke-miterlimit:3.79999995;stroke-dasharray:none;stroke-opacity:1"
         d="m 1225.5,6487.5 -63,63" /><path
         id="path244"
         style="fill:none;stroke:#000000;stroke-width:10;stroke-linecap:butt;stroke-linejoin:miter;stroke-miterlimit:3.79999995;stroke-dasharray:none;stroke-opacity:1"
         d="m 921,1354 3090,0 0,5533 -3090,0 0,-5533 z" /></g></g></svg>