<?xml version="1.0" encoding="UTF-8" standalone="no"?>
<svg
   xmlns:dc="http://purl.org/dc/elements/1.1/"
   xmlns:cc="http://creativecommons.org/ns#"
   xmlns:rdf="http://www.w3.org/1999/02/22-rdf-syntax-ns#"
   xmlns:svg="http://www.w3.org/2000/svg"
   xmlns="http://www.w3.org/2000/svg"
   viewBox="0 0 990 765"
   height="765"
   width="990"
   xml:space="preserve"
   version="1.1"
   id="svg2"><metadata
     id="metadata8"><rdf:RDF><cc:Work
         rdf:about=""><dc:format>image/svg+xml</dc:format><dc:type
           rdf:resource="http://purl.org/dc/dcmitype/StillImage" /></cc:Work></rdf:RDF></metadata><defs
     id="defs6"><clipPath
       id="clipPath12"
       clipPathUnits="userSpaceOnUse"><path
         id="path14"
         d="M 0,0 612,0 612,792 0,792 0,0 Z" /></clipPath></defs><g
     clip-path="url(#clipPath12)"
     transform="matrix(0,1.25,1.25,0,0,0)"
     id="g10"><g
       transform="scale(0.1,0.1)"
       id="g16"><path
         id="path18"
         style="fill:none;stroke:#000000;stroke-width:5;stroke-linecap:butt;stroke-linejoin:miter;stroke-miterlimit:3.79999995;stroke-dasharray:none;stroke-opacity:1"
         d="m 5092,1186 0,63 m 0,6198 0,-63" /><g
         transform="scale(10,10)"
         id="g20"><text
           id="text22"
           style="font-variant:normal;font-weight:normal;font-size:14px;font-family:Helvetica;-inkscape-font-specification:Helvetica;writing-mode:lr-tb;fill:#000000;fill-opacity:1;fill-rule:nonzero;stroke:none"
           transform="matrix(0,1,1,0,513.87,102.4162)"><tspan
             id="tspan24"
             y="0"
             x="0">0</tspan></text>
</g><path
         id="path26"
         style="fill:none;stroke:#000000;stroke-width:5;stroke-linecap:butt;stroke-linejoin:miter;stroke-miterlimit:3.79999995;stroke-dasharray:none;stroke-opacity:1"
         d="m 4049,1186 0,63 m 0,6198 0,-63" /><g
         transform="scale(10,10)"
         id="g28"><text
           id="text30"
           style="font-variant:normal;font-weight:normal;font-size:14px;font-family:Helvetica;-inkscape-font-specification:Helvetica;writing-mode:lr-tb;fill:#000000;fill-opacity:1;fill-rule:nonzero;stroke:none"
           transform="matrix(0,1,1,0,409.57,94.6322)"><tspan
             id="tspan32"
             y="0"
             x="0 7.7839999">50</tspan></text>
</g><path
         id="path34"
         style="fill:none;stroke:#000000;stroke-width:5;stroke-linecap:butt;stroke-linejoin:miter;stroke-miterlimit:3.79999995;stroke-dasharray:none;stroke-opacity:1"
         d="m 3006,1186 0,63 m 0,6198 0,-63" /><g
         transform="scale(10,10)"
         id="g36"><text
           id="text38"
           style="font-variant:normal;font-weight:normal;font-size:14px;font-family:Helvetica;-inkscape-font-specification:Helvetica;writing-mode:lr-tb;fill:#000000;fill-opacity:1;fill-rule:nonzero;stroke:none"
           transform="matrix(0,1,1,0,305.27,86.8483)"><tspan
             id="tspan40"
             y="0"
             x="0 7.7839999 15.568">100</tspan></text>
</g><path
         id="path42"
         style="fill:none;stroke:#000000;stroke-width:5;stroke-linecap:butt;stroke-linejoin:miter;stroke-miterlimit:3.79999995;stroke-dasharray:none;stroke-opacity:1"
         d="m 1964,1186 0,63 m 0,6198 0,-63" /><g
         transform="scale(10,10)"
         id="g44"><text
           id="text46"
           style="font-variant:normal;font-weight:normal;font-size:14px;font-family:Helvetica;-inkscape-font-specification:Helvetica;writing-mode:lr-tb;fill:#000000;fill-opacity:1;fill-rule:nonzero;stroke:none"
           transform="matrix(0,1,1,0,201.07,86.8483)"><tspan
             id="tspan48"
             y="0"
             x="0 7.7839999 15.568">150</tspan></text>
</g><path
         id="path50"
         style="fill:none;stroke:#000000;stroke-width:5;stroke-linecap:butt;stroke-linejoin:miter;stroke-miterlimit:3.79999995;stroke-dasharray:none;stroke-opacity:1"
         d="m 921,1186 0,63 m 0,6198 0,-63" /><g
         transform="scale(10,10)"
         id="g52"><text
           id="text54"
           style="font-variant:normal;font-weight:normal;font-size:14px;font-family:Helvetica;-inkscape-font-specification:Helvetica;writing-mode:lr-tb;fill:#000000;fill-opacity:1;fill-rule:nonzero;stroke:none"
           transform="matrix(0,1,1,0,96.7699,86.8483)"><tspan
             id="tspan56"
             y="0"
             x="0 7.7839999 15.568">200</tspan></text>
</g><path
         id="path58"
         style="fill:none;stroke:#000000;stroke-width:5;stroke-linecap:butt;stroke-linejoin:miter;stroke-miterlimit:3.79999995;stroke-dasharray:none;stroke-opacity:1"
         d="m 5092,1186 -31,0 m -4140,0 31,0 m 4140,364 -63,0 m -4108,0 63,0" /><g
         transform="scale(10,10)"
         id="g60"><text
           id="text62"
           style="font-variant:normal;font-weight:normal;font-size:14px;font-family:Helvetica;-inkscape-font-specification:Helvetica;writing-mode:lr-tb;fill:#000000;fill-opacity:1;fill-rule:nonzero;stroke:none"
           transform="matrix(0,1,1,0,527.87,149.162)"><tspan
             id="tspan64"
             y="0"
             x="0 7.7839999">16</tspan></text>
</g><path
         id="path66"
         style="fill:none;stroke:#000000;stroke-width:5;stroke-linecap:butt;stroke-linejoin:miter;stroke-miterlimit:3.79999995;stroke-dasharray:none;stroke-opacity:1"
         d="m 5092,1914 -31,0 m -4140,0 31,0 m 4140,364 -63,0 m -4108,0 63,0" /><g
         transform="scale(10,10)"
         id="g68"><text
           id="text70"
           style="font-variant:normal;font-weight:normal;font-size:14px;font-family:Helvetica;-inkscape-font-specification:Helvetica;writing-mode:lr-tb;fill:#000000;fill-opacity:1;fill-rule:nonzero;stroke:none"
           transform="matrix(0,1,1,0,527.87,221.962)"><tspan
             id="tspan72"
             y="0"
             x="0 7.7839999">64</tspan></text>
</g><path
         id="path74"
         style="fill:none;stroke:#000000;stroke-width:5;stroke-linecap:butt;stroke-linejoin:miter;stroke-miterlimit:3.79999995;stroke-dasharray:none;stroke-opacity:1"
         d="m 5092,2643 -31,0 m -4140,0 31,0 m 4140,364 -63,0 m -4108,0 63,0" /><g
         transform="scale(10,10)"
         id="g76"><text
           id="text78"
           style="font-variant:normal;font-weight:normal;font-size:14px;font-family:Helvetica;-inkscape-font-specification:Helvetica;writing-mode:lr-tb;fill:#000000;fill-opacity:1;fill-rule:nonzero;stroke:none"
           transform="matrix(0,1,1,0,527.87,290.97)"><tspan
             id="tspan80"
             y="0"
             x="0 7.7839999 15.568">256</tspan></text>
</g><path
         id="path82"
         style="fill:none;stroke:#000000;stroke-width:5;stroke-linecap:butt;stroke-linejoin:miter;stroke-miterlimit:3.79999995;stroke-dasharray:none;stroke-opacity:1"
         d="m 5092,3371 -31,0 m -4140,0 31,0 m 4140,364 -63,0 m -4108,0 63,0" /><g
         transform="scale(10,10)"
         id="g84"><text
           id="text86"
           style="font-variant:normal;font-weight:normal;font-size:14px;font-family:Helvetica;-inkscape-font-specification:Helvetica;writing-mode:lr-tb;fill:#000000;fill-opacity:1;fill-rule:nonzero;stroke:none"
           transform="matrix(0,1,1,0,527.87,359.878)"><tspan
             id="tspan88"
             y="0"
             x="0 7.7839999 15.568 23.351999">1024</tspan></text>
</g><path
         id="path90"
         style="fill:none;stroke:#000000;stroke-width:5;stroke-linecap:butt;stroke-linejoin:miter;stroke-miterlimit:3.79999995;stroke-dasharray:none;stroke-opacity:1"
         d="m 5092,4099 -31,0 m -4140,0 31,0 m 4140,364 -63,0 m -4108,0 63,0" /><g
         transform="scale(10,10)"
         id="g92"><text
           id="text94"
           style="font-variant:normal;font-weight:normal;font-size:14px;font-family:Helvetica;-inkscape-font-specification:Helvetica;writing-mode:lr-tb;fill:#000000;fill-opacity:1;fill-rule:nonzero;stroke:none"
           transform="matrix(0,1,1,0,527.87,432.678)"><tspan
             id="tspan96"
             y="0"
             x="0 7.7839999 15.568 23.351999">4096</tspan></text>
</g><path
         id="path98"
         style="fill:none;stroke:#000000;stroke-width:5;stroke-linecap:butt;stroke-linejoin:miter;stroke-miterlimit:3.79999995;stroke-dasharray:none;stroke-opacity:1"
         d="m 5092,4827 -31,0 m -4140,0 31,0 m 4140,364 -63,0 m -4108,0 63,0" /><g
         transform="scale(10,10)"
         id="g100"><text
           id="text102"
           style="font-variant:normal;font-weight:normal;font-size:14px;font-family:Helvetica;-inkscape-font-specification:Helvetica;writing-mode:lr-tb;fill:#000000;fill-opacity:1;fill-rule:nonzero;stroke:none"
           transform="matrix(0,1,1,0,527.87,501.586)"><tspan
             id="tspan104"
             y="0"
             x="0 7.7839999 15.568 23.351999 31.136">16384</tspan></text>
</g><path
         id="path106"
         style="fill:none;stroke:#000000;stroke-width:5;stroke-linecap:butt;stroke-linejoin:miter;stroke-miterlimit:3.79999995;stroke-dasharray:none;stroke-opacity:1"
         d="m 5092,5556 -31,0 m -4140,0 31,0 m 4140,364 -63,0 m -4108,0 63,0" /><g
         transform="scale(10,10)"
         id="g108"><text
           id="text110"
           style="font-variant:normal;font-weight:normal;font-size:14px;font-family:Helvetica;-inkscape-font-specification:Helvetica;writing-mode:lr-tb;fill:#000000;fill-opacity:1;fill-rule:nonzero;stroke:none"
           transform="matrix(0,1,1,0,527.87,574.486)"><tspan
             id="tspan112"
             y="0"
             x="0 7.7839999 15.568 23.351999 31.136">65536</tspan></text>
</g><path
         id="path114"
         style="fill:none;stroke:#000000;stroke-width:5;stroke-linecap:butt;stroke-linejoin:miter;stroke-miterlimit:3.79999995;stroke-dasharray:none;stroke-opacity:1"
         d="m 5092,6284 -31,0 m -4140,0 31,0 m 4140,364 -63,0 m -4108,0 63,0" /><g
         transform="scale(10,10)"
         id="g116"><text
           id="text118"
           style="font-variant:normal;font-weight:normal;font-size:14px;font-family:Helvetica;-inkscape-font-specification:Helvetica;writing-mode:lr-tb;fill:#000000;fill-opacity:1;fill-rule:nonzero;stroke:none"
           transform="matrix(0,1,1,0,527.87,643.394)"><tspan
             id="tspan120"
             y="0"
             x="0 7.7839999 15.568 23.351999 31.136 38.919998">262144</tspan></text>
</g><path
         id="path122"
         style="fill:none;stroke:#000000;stroke-width:5;stroke-linecap:butt;stroke-linejoin:miter;stroke-miterlimit:3.79999995;stroke-dasharray:none;stroke-opacity:1"
         d="m 5092,7012 -31,0 m -4140,0 31,0 m 4140,364 -63,0 m -4108,0 63,0" /><g
         transform="scale(10,10)"
         id="g124"><text
           id="text126"
           style="font-variant:normal;font-weight:normal;font-size:14px;font-family:Helvetica;-inkscape-font-specification:Helvetica;writing-mode:lr-tb;fill:#000000;fill-opacity:1;fill-rule:nonzero;stroke:none"
           transform="matrix(0,1,1,0,529.27,699.851)"><tspan
             id="tspan128"
             y="0"
             x="0 7.7839999 11.676 19.459999 27.243999 35.028 42.812 50.596001 57.596001 65.379997">1.04858x10</tspan></text>
<text
           id="text130"
           style="font-variant:normal;font-weight:normal;font-size:11.19999981px;font-family:Helvetica;-inkscape-font-specification:Helvetica;writing-mode:lr-tb;fill:#000000;fill-opacity:1;fill-rule:nonzero;stroke:none"
           transform="matrix(0,1,1,0,522.27,773.0149)"><tspan
             id="tspan132"
             y="0"
             x="0">6</tspan></text>
</g><path
         id="path134"
         style="fill:none;stroke:#000000;stroke-width:10;stroke-linecap:butt;stroke-linejoin:miter;stroke-miterlimit:3.79999995;stroke-dasharray:none;stroke-opacity:1"
         d="m 921,1186 4171,0 0,6261 -4171,0 0,-6261 z" /><g
         transform="scale(10,10)"
         id="g136"><text
           id="text138"
           style="font-variant:normal;font-weight:normal;font-size:14px;font-family:Helvetica;-inkscape-font-specification:Helvetica;writing-mode:lr-tb;fill:#000000;fill-opacity:1;fill-rule:nonzero;stroke:none"
           transform="matrix(-1,0,0,1,371.12,65.8699)"><tspan
             id="tspan140"
             y="0"
             x="0 7.7839999 15.568 19.459999 27.243999 35.028 42.028 49.028 52.919998 57.582001 67.690002 75.473999 83.258003 91.042 98.042 105.826 112.826 120.61 128.394 136.17799">Latency (Nanosecond)</tspan></text>
<text
           id="text142"
           style="font-variant:normal;font-weight:normal;font-size:14px;font-family:Helvetica;-inkscape-font-specification:Helvetica;writing-mode:lr-tb;fill:#000000;fill-opacity:1;fill-rule:nonzero;stroke:none"
           transform="matrix(0,1,1,0,548.87,346.412)"><tspan
             id="tspan144"
             y="0"
             x="0 13.216 21 25.662001 32.661999 35.77 43.554001 51.338001 55.23 64.568001 72.351997 76.244003 80.136002 89.473999 92.582001 99.582001 107.366 111.258 115.92 125.258 128.366 131.474 139.258 147.04201 154.04201 157.93401 165.718">Working Set Size (Kilobyte)</tspan><tspan
             id="tspan146"
             y="-473.10001"
             x="13.6 23.708 31.492001 39.276001 47.060001 54.844002 66.505997 70.398003 80.505997 88.290001 96.073997 103.858 107.75 115.534 123.318 127.21 134.994 142.778 149.778">Random Read Latency</tspan><tspan
             id="tspan148"
             y="-438.79999"
             x="253.039 260.823 268.60699 272.49899 280.28299 288.06699 292.729 299.729 307.513 315.297 319.189 322.297 325.405">50 percentile</tspan></text>
</g><path
         id="path150"
         style="fill:none;stroke:#9400d4;stroke-width:5;stroke-linecap:butt;stroke-linejoin:miter;stroke-miterlimit:3.79999995;stroke-dasharray:none;stroke-opacity:1"
         d="m 1054,6880 0,399 m 4007,-6031 0,596 -7,36 0,50 -6,61 -6,40 0,107 -6,51 0,151 -7,49 0,51 -6,46 0,100 -6,52 0,52 -13,50 0,48 -6,51 6,48 -12,52 -19,49 -12,50 -7,50 -18,50 -19,51 -25,49 -6,51 -13,50 -12,50 -13,50 -13,50 -6,51 -12,49 -13,51 -6,49 -13,50 -6,50 -6,51 -6,50 -7,50 -25,50 -6,50 19,50 -6,50 0,50 37,50 -44,50 32,50 -7,50 -62,50 62,50 -12,51 -6,50 -7,50 -6,50 -12,50 12,50 19,50 6,50 -25,50 -19,50 -31,50 -44,50 -87,50 -69,50 -100,51 -119,50 -81,50 -57,50 -56,50 -31,50 -94,50 -57,50 -37,50 -69,50 -37,50 -57,50 -50,50 -25,50 -6,51 -25,50 -50,50 -38,50 -6,50 -50,50 -38,50 13,50 -38,50" /><path
         id="path152"
         style="fill:none;stroke:#9400d4;stroke-width:5;stroke-linecap:butt;stroke-linejoin:miter;stroke-miterlimit:3.79999995;stroke-dasharray:none;stroke-opacity:1"
         d="m 3371,6343 -18,50 -25,50 -13,50 -25,50 -25,50 13,50 -19,51 -19,50 -12,50 0,50 6,50 -6,50 -13,50 -19,50 0,50 -18,50 25,50 -7,50 0,50 -6,50 6,51 -25,50" /><g
         transform="scale(10,10)"
         id="g154"><text
           id="text156"
           style="font-variant:normal;font-weight:normal;font-size:14px;font-family:Helvetica;-inkscape-font-specification:Helvetica;writing-mode:lr-tb;fill:#000000;fill-opacity:1;fill-rule:nonzero;stroke:none"
           transform="matrix(0,1,1,0,124.07,599.451)"><tspan
             id="tspan158"
             y="0"
             x="0 7.7839999 15.568 19.459999 27.243999 35.028 39.689999 46.689999 54.473999 62.257999 66.150002 69.258003 72.365997">80 percentile</tspan></text>
</g><path
         id="path160"
         style="fill:none;stroke:#009e73;stroke-width:5;stroke-linecap:butt;stroke-linejoin:miter;stroke-miterlimit:3.79999995;stroke-dasharray:none;stroke-opacity:1"
         d="m 1194,6880 0,399 m 3860,-6031 0,596 -6,36 0,50 -6,61 -6,40 0,107 -7,51 0,98 -6,53 0,49 -6,51 0,146 -6,52 0,52 -13,50 0,48 -6,51 0,48 -13,52 -18,49 -13,50 -12,50 -19,50 -25,51 -25,49 -6,51 -13,50 -13,50 -18,50 -13,50 -6,51 -13,49 -6,51 -6,49 -6,50 -7,50 -6,51 -6,50 -6,50 -25,50 -7,50 19,50 0,50 -6,50 44,50 -44,50 31,50 -6,50 -63,50 63,50 -6,51 -13,50 0,50 -6,50 -13,50 0,50 32,50 6,50 -31,50 -25,50 -44,50 -50,50 -100,50 -88,50 -131,51 -138,50 -100,50 -75,50 -63,50 -31,50 -100,50 -63,50 -31,50 -56,50 -32,50 -50,50 -37,50 -25,50 -13,51 -12,50 -31,50 -32,50 -19,50 -25,50 -37,50 19,50 -25,50" /><path
         id="path162"
         style="fill:none;stroke:#009e73;stroke-width:5;stroke-linecap:butt;stroke-linejoin:miter;stroke-miterlimit:3.79999995;stroke-dasharray:none;stroke-opacity:1"
         d="m 3303,6343 -19,50 -19,50 -6,50 -19,50 -25,50 13,50 -25,51 0,50 -13,50 0,50 6,50 -6,50 -6,50 -19,50 -6,50 -13,50 25,50 -6,50 0,50 -6,50 0,51 -13,50" /><g
         transform="scale(10,10)"
         id="g164"><text
           id="text166"
           style="font-variant:normal;font-weight:normal;font-size:14px;font-family:Helvetica;-inkscape-font-specification:Helvetica;writing-mode:lr-tb;fill:#000000;fill-opacity:1;fill-rule:nonzero;stroke:none"
           transform="matrix(0,1,1,0,138.07,599.451)"><tspan
             id="tspan168"
             y="0"
             x="0 7.7839999 15.568 19.459999 27.243999 35.028 39.689999 46.689999 54.473999 62.257999 66.150002 69.258003 72.365997">95 percentile</tspan></text>
</g><path
         id="path170"
         style="fill:none;stroke:#57b5e8;stroke-width:5;stroke-linecap:butt;stroke-linejoin:miter;stroke-miterlimit:3.79999995;stroke-dasharray:none;stroke-opacity:1"
         d="m 1334,6880 0,399 m 3714,-6031 0,596 -6,36 0,50 -6,61 -7,40 0,107 -6,51 0,98 -6,53 0,49 -6,51 0,146 -7,52 0,52 -12,50 0,48 -6,51 0,48 -13,52 -25,49 -12,50 -13,50 -19,50 -25,51 -25,49 -6,51 -13,50 -12,50 -19,50 -6,50 -6,51 -13,49 -6,51 -6,49 -7,50 -6,50 -12,51 0,50 -7,50 -25,50 -6,50 19,50 0,50 -6,50 43,50 -43,50 31,50 -6,50 -63,50 63,50 -7,51 -12,50 -19,50 -25,50 -62,50 37,50 75,50 0,50 -31,50 -38,50 -294,50 125,50 -75,50 -81,50 -138,51 -244,50 -75,50 -100,50 -6,50 31,50 -144,50 -44,50 -6,50 -94,50 0,50 -56,50 -56,50 6,50 -25,51 -6,50 -13,50 -37,50 -19,50 -13,50 -43,50 25,50 -38,50" /><path
         id="path172"
         style="fill:none;stroke:#57b5e8;stroke-width:5;stroke-linecap:butt;stroke-linejoin:miter;stroke-miterlimit:3.79999995;stroke-dasharray:none;stroke-opacity:1"
         d="m 3240,6343 -6,50 -31,50 0,50 -38,50 -13,50 19,50 -31,51 -13,50 7,50 0,50 6,50 -13,50 -6,50 -19,50 -6,50 -19,50 25,50 -6,50 6,50 -12,50 6,51 -19,50" /><path
         id="path174"
         style="fill:none;stroke:#000000;stroke-width:10;stroke-linecap:butt;stroke-linejoin:miter;stroke-miterlimit:3.79999995;stroke-dasharray:none;stroke-opacity:1"
         d="m 921,1186 4171,0 0,6261 -4171,0 0,-6261 z" /></g></g></svg>