<?xml version="1.0" encoding="UTF-8" standalone="no"?>
<!-- Created with Inkscape (http://www.inkscape.org/) -->

<svg
   xmlns:dc="http://purl.org/dc/elements/1.1/"
   xmlns:cc="http://creativecommons.org/ns#"
   xmlns:rdf="http://www.w3.org/1999/02/22-rdf-syntax-ns#"
   xmlns:svg="http://www.w3.org/2000/svg"
   xmlns="http://www.w3.org/2000/svg"
   xmlns:inkscape="http://www.inkscape.org/namespaces/inkscape"
   version="1.1"
   width="990"
   height="765"
   id="svg2"
   xml:space="preserve"><metadata
     id="metadata8"><rdf:RDF><cc:Work
         rdf:about=""><dc:format>image/svg+xml</dc:format><dc:type
           rdf:resource="http://purl.org/dc/dcmitype/StillImage" /></cc:Work></rdf:RDF></metadata><defs
     id="defs6"><clipPath
       id="clipPath12"><path
         d="M 0,0 612,0 612,792 0,792 0,0 z"
         inkscape:connector-curvature="0"
         id="path14" /></clipPath></defs><g
     transform="matrix(0,1.25,1.25,0,0,0)"
     clip-path="url(#clipPath12)"
     id="g10"><g
       transform="scale(0.1,0.1)"
       id="g16"><path
         d="m 5092,1186 0,63 m 0,6198 0,-63"
         inkscape:connector-curvature="0"
         id="path18"
         style="fill:none;stroke:#000000;stroke-width:5;stroke-linecap:butt;stroke-linejoin:miter;stroke-miterlimit:3.79999995;stroke-opacity:1;stroke-dasharray:none" /><g
         transform="scale(10,10)"
         id="g20"><text
           transform="matrix(0,1,1,0,513.87,102.4162)"
           id="text22"><tspan
             x="0"
             y="0"
             id="tspan24"
             style="font-size:14px;font-variant:normal;font-weight:normal;writing-mode:lr-tb;fill:#000000;fill-opacity:1;fill-rule:nonzero;stroke:none;font-family:Helvetica;-inkscape-font-specification:Helvetica">0</tspan></text>
</g><path
         d="m 4049,1186 0,63 m 0,6198 0,-63"
         inkscape:connector-curvature="0"
         id="path26"
         style="fill:none;stroke:#000000;stroke-width:5;stroke-linecap:butt;stroke-linejoin:miter;stroke-miterlimit:3.79999995;stroke-opacity:1;stroke-dasharray:none" /><g
         transform="scale(10,10)"
         id="g28"><text
           transform="matrix(0,1,1,0,409.57,94.6322)"
           id="text30"><tspan
             x="0 7.7839999"
             y="0"
             id="tspan32"
             style="font-size:14px;font-variant:normal;font-weight:normal;writing-mode:lr-tb;fill:#000000;fill-opacity:1;fill-rule:nonzero;stroke:none;font-family:Helvetica;-inkscape-font-specification:Helvetica">50</tspan></text>
</g><path
         d="m 3006,1186 0,63 m 0,6198 0,-63"
         inkscape:connector-curvature="0"
         id="path34"
         style="fill:none;stroke:#000000;stroke-width:5;stroke-linecap:butt;stroke-linejoin:miter;stroke-miterlimit:3.79999995;stroke-opacity:1;stroke-dasharray:none" /><g
         transform="scale(10,10)"
         id="g36"><text
           transform="matrix(0,1,1,0,305.27,86.8483)"
           id="text38"><tspan
             x="0 7.7839999 15.568"
             y="0"
             id="tspan40"
             style="font-size:14px;font-variant:normal;font-weight:normal;writing-mode:lr-tb;fill:#000000;fill-opacity:1;fill-rule:nonzero;stroke:none;font-family:Helvetica;-inkscape-font-specification:Helvetica">100</tspan></text>
</g><path
         d="m 1964,1186 0,63 m 0,6198 0,-63"
         inkscape:connector-curvature="0"
         id="path42"
         style="fill:none;stroke:#000000;stroke-width:5;stroke-linecap:butt;stroke-linejoin:miter;stroke-miterlimit:3.79999995;stroke-opacity:1;stroke-dasharray:none" /><g
         transform="scale(10,10)"
         id="g44"><text
           transform="matrix(0,1,1,0,201.07,86.8483)"
           id="text46"><tspan
             x="0 7.7839999 15.568"
             y="0"
             id="tspan48"
             style="font-size:14px;font-variant:normal;font-weight:normal;writing-mode:lr-tb;fill:#000000;fill-opacity:1;fill-rule:nonzero;stroke:none;font-family:Helvetica;-inkscape-font-specification:Helvetica">150</tspan></text>
</g><path
         d="m 921,1186 0,63 m 0,6198 0,-63"
         inkscape:connector-curvature="0"
         id="path50"
         style="fill:none;stroke:#000000;stroke-width:5;stroke-linecap:butt;stroke-linejoin:miter;stroke-miterlimit:3.79999995;stroke-opacity:1;stroke-dasharray:none" /><g
         transform="scale(10,10)"
         id="g52"><text
           transform="matrix(0,1,1,0,96.7699,86.8483)"
           id="text54"><tspan
             x="0 7.7839999 15.568"
             y="0"
             id="tspan56"
             style="font-size:14px;font-variant:normal;font-weight:normal;writing-mode:lr-tb;fill:#000000;fill-opacity:1;fill-rule:nonzero;stroke:none;font-family:Helvetica;-inkscape-font-specification:Helvetica">200</tspan></text>
</g><path
         d="m 5092,1186 -31,0 m -4140,0 31,0 m 4140,364 -63,0 m -4108,0 63,0"
         inkscape:connector-curvature="0"
         id="path58"
         style="fill:none;stroke:#000000;stroke-width:5;stroke-linecap:butt;stroke-linejoin:miter;stroke-miterlimit:3.79999995;stroke-opacity:1;stroke-dasharray:none" /><g
         transform="scale(10,10)"
         id="g60"><text
           transform="matrix(0,1,1,0,527.87,149.162)"
           id="text62"><tspan
             x="0 7.7839999"
             y="0"
             id="tspan64"
             style="font-size:14px;font-variant:normal;font-weight:normal;writing-mode:lr-tb;fill:#000000;fill-opacity:1;fill-rule:nonzero;stroke:none;font-family:Helvetica;-inkscape-font-specification:Helvetica">16</tspan></text>
</g><path
         d="m 5092,1914 -31,0 m -4140,0 31,0 m 4140,364 -63,0 m -4108,0 63,0"
         inkscape:connector-curvature="0"
         id="path66"
         style="fill:none;stroke:#000000;stroke-width:5;stroke-linecap:butt;stroke-linejoin:miter;stroke-miterlimit:3.79999995;stroke-opacity:1;stroke-dasharray:none" /><g
         transform="scale(10,10)"
         id="g68"><text
           transform="matrix(0,1,1,0,527.87,221.962)"
           id="text70"><tspan
             x="0 7.7839999"
             y="0"
             id="tspan72"
             style="font-size:14px;font-variant:normal;font-weight:normal;writing-mode:lr-tb;fill:#000000;fill-opacity:1;fill-rule:nonzero;stroke:none;font-family:Helvetica;-inkscape-font-specification:Helvetica">64</tspan></text>
</g><path
         d="m 5092,2643 -31,0 m -4140,0 31,0 m 4140,364 -63,0 m -4108,0 63,0"
         inkscape:connector-curvature="0"
         id="path74"
         style="fill:none;stroke:#000000;stroke-width:5;stroke-linecap:butt;stroke-linejoin:miter;stroke-miterlimit:3.79999995;stroke-opacity:1;stroke-dasharray:none" /><g
         transform="scale(10,10)"
         id="g76"><text
           transform="matrix(0,1,1,0,527.87,290.97)"
           id="text78"><tspan
             x="0 7.7839999 15.568"
             y="0"
             id="tspan80"
             style="font-size:14px;font-variant:normal;font-weight:normal;writing-mode:lr-tb;fill:#000000;fill-opacity:1;fill-rule:nonzero;stroke:none;font-family:Helvetica;-inkscape-font-specification:Helvetica">256</tspan></text>
</g><path
         d="m 5092,3371 -31,0 m -4140,0 31,0 m 4140,364 -63,0 m -4108,0 63,0"
         inkscape:connector-curvature="0"
         id="path82"
         style="fill:none;stroke:#000000;stroke-width:5;stroke-linecap:butt;stroke-linejoin:miter;stroke-miterlimit:3.79999995;stroke-opacity:1;stroke-dasharray:none" /><g
         transform="scale(10,10)"
         id="g84"><text
           transform="matrix(0,1,1,0,527.87,359.878)"
           id="text86"><tspan
             x="0 7.7839999 15.568 23.351999"
             y="0"
             id="tspan88"
             style="font-size:14px;font-variant:normal;font-weight:normal;writing-mode:lr-tb;fill:#000000;fill-opacity:1;fill-rule:nonzero;stroke:none;font-family:Helvetica;-inkscape-font-specification:Helvetica">1024</tspan></text>
</g><path
         d="m 5092,4099 -31,0 m -4140,0 31,0 m 4140,364 -63,0 m -4108,0 63,0"
         inkscape:connector-curvature="0"
         id="path90"
         style="fill:none;stroke:#000000;stroke-width:5;stroke-linecap:butt;stroke-linejoin:miter;stroke-miterlimit:3.79999995;stroke-opacity:1;stroke-dasharray:none" /><g
         transform="scale(10,10)"
         id="g92"><text
           transform="matrix(0,1,1,0,527.87,432.678)"
           id="text94"><tspan
             x="0 7.7839999 15.568 23.351999"
             y="0"
             id="tspan96"
             style="font-size:14px;font-variant:normal;font-weight:normal;writing-mode:lr-tb;fill:#000000;fill-opacity:1;fill-rule:nonzero;stroke:none;font-family:Helvetica;-inkscape-font-specification:Helvetica">4096</tspan></text>
</g><path
         d="m 5092,4827 -31,0 m -4140,0 31,0 m 4140,364 -63,0 m -4108,0 63,0"
         inkscape:connector-curvature="0"
         id="path98"
         style="fill:none;stroke:#000000;stroke-width:5;stroke-linecap:butt;stroke-linejoin:miter;stroke-miterlimit:3.79999995;stroke-opacity:1;stroke-dasharray:none" /><g
         transform="scale(10,10)"
         id="g100"><text
           transform="matrix(0,1,1,0,527.87,501.586)"
           id="text102"><tspan
             x="0 7.7839999 15.568 23.351999 31.136"
             y="0"
             id="tspan104"
             style="font-size:14px;font-variant:normal;font-weight:normal;writing-mode:lr-tb;fill:#000000;fill-opacity:1;fill-rule:nonzero;stroke:none;font-family:Helvetica;-inkscape-font-specification:Helvetica">16384</tspan></text>
</g><path
         d="m 5092,5556 -31,0 m -4140,0 31,0 m 4140,364 -63,0 m -4108,0 63,0"
         inkscape:connector-curvature="0"
         id="path106"
         style="fill:none;stroke:#000000;stroke-width:5;stroke-linecap:butt;stroke-linejoin:miter;stroke-miterlimit:3.79999995;stroke-opacity:1;stroke-dasharray:none" /><g
         transform="scale(10,10)"
         id="g108"><text
           transform="matrix(0,1,1,0,527.87,574.486)"
           id="text110"><tspan
             x="0 7.7839999 15.568 23.351999 31.136"
             y="0"
             id="tspan112"
             style="font-size:14px;font-variant:normal;font-weight:normal;writing-mode:lr-tb;fill:#000000;fill-opacity:1;fill-rule:nonzero;stroke:none;font-family:Helvetica;-inkscape-font-specification:Helvetica">65536</tspan></text>
</g><path
         d="m 5092,6284 -31,0 m -4140,0 31,0 m 4140,364 -63,0 m -4108,0 63,0"
         inkscape:connector-curvature="0"
         id="path114"
         style="fill:none;stroke:#000000;stroke-width:5;stroke-linecap:butt;stroke-linejoin:miter;stroke-miterlimit:3.79999995;stroke-opacity:1;stroke-dasharray:none" /><g
         transform="scale(10,10)"
         id="g116"><text
           transform="matrix(0,1,1,0,527.87,643.394)"
           id="text118"><tspan
             x="0 7.7839999 15.568 23.351999 31.136 38.919998"
             y="0"
             id="tspan120"
             style="font-size:14px;font-variant:normal;font-weight:normal;writing-mode:lr-tb;fill:#000000;fill-opacity:1;fill-rule:nonzero;stroke:none;font-family:Helvetica;-inkscape-font-specification:Helvetica">262144</tspan></text>
</g><path
         d="m 5092,7012 -31,0 m -4140,0 31,0 m 4140,364 -63,0 m -4108,0 63,0"
         inkscape:connector-curvature="0"
         id="path122"
         style="fill:none;stroke:#000000;stroke-width:5;stroke-linecap:butt;stroke-linejoin:miter;stroke-miterlimit:3.79999995;stroke-opacity:1;stroke-dasharray:none" /><g
         transform="scale(10,10)"
         id="g124"><text
           transform="matrix(0,1,1,0,529.27,699.851)"
           id="text126"><tspan
             x="0 7.7839999 11.676 19.459999 27.243999 35.028 42.812 50.596001 57.596001 65.379997"
             y="0"
             id="tspan128"
             style="font-size:14px;font-variant:normal;font-weight:normal;writing-mode:lr-tb;fill:#000000;fill-opacity:1;fill-rule:nonzero;stroke:none;font-family:Helvetica;-inkscape-font-specification:Helvetica">1.04858x10</tspan></text>
<text
           transform="matrix(0,1,1,0,522.27,773.0149)"
           id="text130"><tspan
             x="0"
             y="0"
             id="tspan132"
             style="font-size:11.19999981px;font-variant:normal;font-weight:normal;writing-mode:lr-tb;fill:#000000;fill-opacity:1;fill-rule:nonzero;stroke:none;font-family:Helvetica;-inkscape-font-specification:Helvetica">6</tspan></text>
</g><path
         d="m 921,1186 4171,0 0,6261 -4171,0 0,-6261 z"
         inkscape:connector-curvature="0"
         id="path134"
         style="fill:none;stroke:#000000;stroke-width:10;stroke-linecap:butt;stroke-linejoin:miter;stroke-miterlimit:3.79999995;stroke-opacity:1;stroke-dasharray:none" /><g
         transform="scale(10,10)"
         id="g136"><text
           transform="matrix(-1,0,0,1,371.12,65.8699)"
           id="text138"><tspan
             x="0 7.7839999 15.568 19.459999 27.243999 35.028 42.028 49.028 52.919998 57.582001 67.690002 75.473999 83.258003 91.042 98.042 105.826 112.826 120.61 128.394 136.17799"
             y="0"
             id="tspan140"
             style="font-size:14px;font-variant:normal;font-weight:normal;writing-mode:lr-tb;fill:#000000;fill-opacity:1;fill-rule:nonzero;stroke:none;font-family:Helvetica;-inkscape-font-specification:Helvetica">Latency (Nanosecond)</tspan></text>
<text
           transform="matrix(0,1,1,0,548.87,346.412)"
           id="text142"><tspan
             x="0 13.216 21 25.662001 32.661999 35.77 43.554001 51.338001 55.23 64.568001 72.351997 76.244003 80.136002 89.473999 92.582001 99.582001 107.366 111.258 115.92 125.258 128.366 131.474 139.258 147.04201 154.04201 157.93401 165.718"
             y="0"
             id="tspan144"
             style="font-size:14px;font-variant:normal;font-weight:normal;writing-mode:lr-tb;fill:#000000;fill-opacity:1;fill-rule:nonzero;stroke:none;font-family:Helvetica;-inkscape-font-specification:Helvetica">Working Set Size (Kilobyte)</tspan><tspan
             x="13.6 23.708 31.492001 39.276001 47.060001 54.844002 66.505997 70.398003 80.505997 88.290001 96.073997 103.858 107.75 115.534 123.318 127.21 134.994 142.778 149.778"
             y="-473.10001"
             id="tspan146"
             style="font-size:14px;font-variant:normal;font-weight:normal;writing-mode:lr-tb;fill:#000000;fill-opacity:1;fill-rule:nonzero;stroke:none;font-family:Helvetica;-inkscape-font-specification:Helvetica">Random Read Latency</tspan><tspan
             x="260.823 268.60699 272.49899 280.28299 288.06699 292.729 299.729 307.513 315.297 319.189 322.297 325.405"
             y="-438.79999"
             id="tspan148"
             style="font-size:14px;font-variant:normal;font-weight:normal;writing-mode:lr-tb;fill:#000000;fill-opacity:1;fill-rule:nonzero;stroke:none;font-family:Helvetica;-inkscape-font-specification:Helvetica">5 percentile</tspan></text>
</g><path
         d="m 1054,6880 0,399 m 4013,-6031 6,55 -6,50 6,46 -6,42 0,550 -6,40 0,256 -7,53 0,448 -6,51 -6,48 6,52 0,49 -6,50 -13,50 -6,50 -6,51 -6,49 -7,51 -12,50 0,100 -6,50 -7,51 -6,49 0,100 -6,50 -6,50 0,101 -13,50 0,50 -6,50 0,50 -13,50 32,50 -44,50 31,50 0,50 -6,50 -6,50 -13,50 -6,51 -6,50 -13,50 19,50 12,50 -12,50 -6,50 6,50 0,100 -6,50 -13,50 13,50 -13,50 0,51 -12,50 -51,50 -62,50 -63,50 -37,50 -38,50 -18,50 -19,50 -19,50 -19,50 -19,50 -12,50 -25,50 -13,51 -31,50 -19,50 -25,50 -25,50 -37,50 -38,50 -6,50 -50,50"
         inkscape:connector-curvature="0"
         id="path150"
         style="fill:none;stroke:#9400d4;stroke-width:5;stroke-linecap:butt;stroke-linejoin:miter;stroke-miterlimit:3.79999995;stroke-opacity:1;stroke-dasharray:none" /><path
         d="m 4260,6343 -13,50 -56,50 -6,50 -82,50 0,151 -125,50 7,50 -7,50 7,50 -163,50 -44,50 6,50 13,50 -13,50 38,50 31,50 -294,50 -37,50 -7,51 -18,50"
         inkscape:connector-curvature="0"
         id="path152"
         style="fill:none;stroke:#9400d4;stroke-width:5;stroke-linecap:butt;stroke-linejoin:miter;stroke-miterlimit:3.79999995;stroke-opacity:1;stroke-dasharray:none" /><g
         transform="scale(10,10)"
         id="g154"><text
           transform="matrix(0,1,1,0,124.07,599.451)"
           id="text156"><tspan
             x="0 7.7839999 15.568 19.459999 27.243999 35.028 39.689999 46.689999 54.473999 62.257999 66.150002 69.258003 72.365997"
             y="0"
             id="tspan158"
             style="font-size:14px;font-variant:normal;font-weight:normal;writing-mode:lr-tb;fill:#000000;fill-opacity:1;fill-rule:nonzero;stroke:none;font-family:Helvetica;-inkscape-font-specification:Helvetica">50 percentile</tspan></text>
</g><path
         d="m 1194,6880 0,399 m 3867,-6031 6,55 -6,50 6,46 -6,42 0,550 -7,40 0,158 -6,47 0,204 -6,46 0,152 -6,52 0,98 -13,51 -6,48 12,52 0,49 -12,50 -13,50 -18,50 -7,51 -6,49 -12,51 -13,50 -6,50 -6,50 -7,50 -6,51 -6,49 -6,51 -7,49 -6,50 -6,50 0,51 -6,50 -7,50 0,50 -6,50 -6,50 -6,50 37,50 -50,50 38,50 0,50 -7,50 -6,50 -6,50 -6,51 -7,50 -12,50 31,50 6,50 0,50 -6,50 6,50 -6,50 6,50 -6,50 -12,50 18,50 -6,50 0,51 -12,50 -63,50 -100,50 -100,50 -88,50 -69,50 -62,50 -63,50 -56,50 -56,50 -57,50 -37,50 -50,50 -38,51 -44,50 -31,50 -44,50 -50,50 -50,50 -31,50 -13,50 -43,50"
         inkscape:connector-curvature="0"
         id="path160"
         style="fill:none;stroke:#009e73;stroke-width:5;stroke-linecap:butt;stroke-linejoin:miter;stroke-miterlimit:3.79999995;stroke-opacity:1;stroke-dasharray:none" /><path
         d="m 3716,6343 -19,50 -6,50 -44,50 -13,50 -50,50 0,50 6,51 -50,50 -12,50 0,100 -6,50 -13,50 -31,50 -6,50 0,150 -13,50 -6,50 -6,51 0,50"
         inkscape:connector-curvature="0"
         id="path162"
         style="fill:none;stroke:#009e73;stroke-width:5;stroke-linecap:butt;stroke-linejoin:miter;stroke-miterlimit:3.79999995;stroke-opacity:1;stroke-dasharray:none" /><g
         transform="scale(10,10)"
         id="g164"><text
           transform="matrix(0,1,1,0,138.07,599.451)"
           id="text166"><tspan
             x="0 7.7839999 15.568 19.459999 27.243999 35.028 39.689999 46.689999 54.473999 62.257999 66.150002 69.258003 72.365997"
             y="0"
             id="tspan168"
             style="font-size:14px;font-variant:normal;font-weight:normal;writing-mode:lr-tb;fill:#000000;fill-opacity:1;fill-rule:nonzero;stroke:none;font-family:Helvetica;-inkscape-font-specification:Helvetica">95 percentile</tspan></text>
</g><path
         d="m 1334,6880 0,399 m 3720,-6031 7,55 -7,50 7,46 -7,42 0,550 -6,40 0,158 -6,47 0,204 -6,46 0,152 -7,52 0,98 -12,51 -6,48 12,52 -6,49 -13,50 -18,50 -13,50 -12,51 -13,49 -12,51 -13,50 0,50 -6,50 -13,50 -6,51 -6,49 -6,51 0,49 -7,50 -6,50 0,51 -6,50 0,50 -6,50 0,50 -7,50 -6,50 38,50 -51,50 44,50 -6,50 -6,50 0,50 -6,50 -13,51 -6,50 -7,50 32,50 6,50 0,50 -6,50 6,50 -6,50 6,50 -6,50 -13,50 19,50 -6,50 -13,51 -12,50 -94,50 -138,50 -144,50 -119,50 -93,50 -69,50 -69,50 -69,50 -44,50 -56,50 -44,50 -37,50 -38,51 -37,50 -38,50 -31,50 -31,50 -32,50 -25,50 -19,50 -25,50"
         inkscape:connector-curvature="0"
         id="path170"
         style="fill:none;stroke:#57b5e8;stroke-width:5;stroke-linecap:butt;stroke-linejoin:miter;stroke-miterlimit:3.79999995;stroke-opacity:1;stroke-dasharray:none" /><path
         d="m 3590,6343 -18,50 -13,50 -19,50 -12,50 -13,50 -12,50 -13,51 -12,50 -13,50 -6,50 -6,50 0,50 -6,50 -19,50 -13,50 -12,50 0,50 12,50 -31,50 -6,50 0,51 -13,50"
         inkscape:connector-curvature="0"
         id="path172"
         style="fill:none;stroke:#57b5e8;stroke-width:5;stroke-linecap:butt;stroke-linejoin:miter;stroke-miterlimit:3.79999995;stroke-opacity:1;stroke-dasharray:none" /><path
         d="m 921,1186 4171,0 0,6261 -4171,0 0,-6261 z"
         inkscape:connector-curvature="0"
         id="path174"
         style="fill:none;stroke:#000000;stroke-width:10;stroke-linecap:butt;stroke-linejoin:miter;stroke-miterlimit:3.79999995;stroke-opacity:1;stroke-dasharray:none" /></g></g></svg>