<?xml version="1.0" encoding="UTF-8" standalone="no"?>
<svg
   xmlns:dc="http://purl.org/dc/elements/1.1/"
   xmlns:cc="http://creativecommons.org/ns#"
   xmlns:rdf="http://www.w3.org/1999/02/22-rdf-syntax-ns#"
   xmlns:svg="http://www.w3.org/2000/svg"
   xmlns="http://www.w3.org/2000/svg"
   viewBox="0 0 990 765"
   height="765"
   width="990"
   xml:space="preserve"
   version="1.1"
   id="svg2"><metadata
     id="metadata8"><rdf:RDF><cc:Work
         rdf:about=""><dc:format>image/svg+xml</dc:format><dc:type
           rdf:resource="http://purl.org/dc/dcmitype/StillImage" /></cc:Work></rdf:RDF></metadata><defs
     id="defs6"><clipPath
       id="clipPath12"
       clipPathUnits="userSpaceOnUse"><path
         id="path14"
         d="M 0,0 612,0 612,792 0,792 0,0 Z" /></clipPath></defs><g
     clip-path="url(#clipPath12)"
     transform="matrix(0,1.25,1.25,0,0,0)"
     id="g10"><g
       transform="scale(0.1,0.1)"
       id="g16"><path
         id="path18"
         style="fill:none;stroke:#000000;stroke-width:5;stroke-linecap:butt;stroke-linejoin:miter;stroke-miterlimit:3.79999995;stroke-dasharray:none;stroke-opacity:1"
         d="m 4011,1186 0,63 m 0,5554 0,-63" /><g
         transform="scale(10,10)"
         id="g20"><text
           id="text22"
           style="font-variant:normal;font-weight:normal;font-size:14px;font-family:Helvetica;-inkscape-font-specification:Helvetica;writing-mode:lr-tb;fill:#000000;fill-opacity:1;fill-rule:nonzero;stroke:none"
           transform="matrix(0,1,1,0,405.77,102.4162)"><tspan
             id="tspan24"
             y="0"
             x="0">1</tspan></text>
</g><path
         id="path26"
         style="fill:none;stroke:#000000;stroke-width:5;stroke-linecap:butt;stroke-linejoin:miter;stroke-miterlimit:3.79999995;stroke-dasharray:none;stroke-opacity:1"
         d="m 3625,1186 0,63 m 0,5554 0,-63" /><g
         transform="scale(10,10)"
         id="g28"><text
           id="text30"
           style="font-variant:normal;font-weight:normal;font-size:14px;font-family:Helvetica;-inkscape-font-specification:Helvetica;writing-mode:lr-tb;fill:#000000;fill-opacity:1;fill-rule:nonzero;stroke:none"
           transform="matrix(0,1,1,0,367.17,102.4162)"><tspan
             id="tspan32"
             y="0"
             x="0">2</tspan></text>
</g><path
         id="path34"
         style="fill:none;stroke:#000000;stroke-width:5;stroke-linecap:butt;stroke-linejoin:miter;stroke-miterlimit:3.79999995;stroke-dasharray:none;stroke-opacity:1"
         d="m 3238,1186 0,63 m 0,5554 0,-63" /><g
         transform="scale(10,10)"
         id="g36"><text
           id="text38"
           style="font-variant:normal;font-weight:normal;font-size:14px;font-family:Helvetica;-inkscape-font-specification:Helvetica;writing-mode:lr-tb;fill:#000000;fill-opacity:1;fill-rule:nonzero;stroke:none"
           transform="matrix(0,1,1,0,328.47,102.4162)"><tspan
             id="tspan40"
             y="0"
             x="0">4</tspan></text>
</g><path
         id="path42"
         style="fill:none;stroke:#000000;stroke-width:5;stroke-linecap:butt;stroke-linejoin:miter;stroke-miterlimit:3.79999995;stroke-dasharray:none;stroke-opacity:1"
         d="m 2852,1186 0,63 m 0,5554 0,-63" /><g
         transform="scale(10,10)"
         id="g44"><text
           id="text46"
           style="font-variant:normal;font-weight:normal;font-size:14px;font-family:Helvetica;-inkscape-font-specification:Helvetica;writing-mode:lr-tb;fill:#000000;fill-opacity:1;fill-rule:nonzero;stroke:none"
           transform="matrix(0,1,1,0,289.87,102.4162)"><tspan
             id="tspan48"
             y="0"
             x="0">8</tspan></text>
</g><path
         id="path50"
         style="fill:none;stroke:#000000;stroke-width:5;stroke-linecap:butt;stroke-linejoin:miter;stroke-miterlimit:3.79999995;stroke-dasharray:none;stroke-opacity:1"
         d="m 2466,1186 0,63 m 0,5554 0,-63" /><g
         transform="scale(10,10)"
         id="g52"><text
           id="text54"
           style="font-variant:normal;font-weight:normal;font-size:14px;font-family:Helvetica;-inkscape-font-specification:Helvetica;writing-mode:lr-tb;fill:#000000;fill-opacity:1;fill-rule:nonzero;stroke:none"
           transform="matrix(0,1,1,0,251.27,94.6322)"><tspan
             id="tspan56"
             y="0"
             x="0 7.7839999">16</tspan></text>
</g><path
         id="path58"
         style="fill:none;stroke:#000000;stroke-width:5;stroke-linecap:butt;stroke-linejoin:miter;stroke-miterlimit:3.79999995;stroke-dasharray:none;stroke-opacity:1"
         d="m 2080,1186 0,63 m 0,5554 0,-63" /><g
         transform="scale(10,10)"
         id="g60"><text
           id="text62"
           style="font-variant:normal;font-weight:normal;font-size:14px;font-family:Helvetica;-inkscape-font-specification:Helvetica;writing-mode:lr-tb;fill:#000000;fill-opacity:1;fill-rule:nonzero;stroke:none"
           transform="matrix(0,1,1,0,212.67,94.6322)"><tspan
             id="tspan64"
             y="0"
             x="0 7.7839999">32</tspan></text>
</g><path
         id="path66"
         style="fill:none;stroke:#000000;stroke-width:5;stroke-linecap:butt;stroke-linejoin:miter;stroke-miterlimit:3.79999995;stroke-dasharray:none;stroke-opacity:1"
         d="m 1693,1186 0,63 m 0,5554 0,-63" /><g
         transform="scale(10,10)"
         id="g68"><text
           id="text70"
           style="font-variant:normal;font-weight:normal;font-size:14px;font-family:Helvetica;-inkscape-font-specification:Helvetica;writing-mode:lr-tb;fill:#000000;fill-opacity:1;fill-rule:nonzero;stroke:none"
           transform="matrix(0,1,1,0,173.97,94.6322)"><tspan
             id="tspan72"
             y="0"
             x="0 7.7839999">64</tspan></text>
</g><path
         id="path74"
         style="fill:none;stroke:#000000;stroke-width:5;stroke-linecap:butt;stroke-linejoin:miter;stroke-miterlimit:3.79999995;stroke-dasharray:none;stroke-opacity:1"
         d="m 1307,1186 0,63 m 0,5554 0,-63" /><g
         transform="scale(10,10)"
         id="g76"><text
           id="text78"
           style="font-variant:normal;font-weight:normal;font-size:14px;font-family:Helvetica;-inkscape-font-specification:Helvetica;writing-mode:lr-tb;fill:#000000;fill-opacity:1;fill-rule:nonzero;stroke:none"
           transform="matrix(0,1,1,0,135.37,86.8483)"><tspan
             id="tspan80"
             y="0"
             x="0 7.7839999 15.568">128</tspan></text>
</g><path
         id="path82"
         style="fill:none;stroke:#000000;stroke-width:5;stroke-linecap:butt;stroke-linejoin:miter;stroke-miterlimit:3.79999995;stroke-dasharray:none;stroke-opacity:1"
         d="m 921,1186 0,63 m 0,5554 0,-63" /><g
         transform="scale(10,10)"
         id="g84"><text
           id="text86"
           style="font-variant:normal;font-weight:normal;font-size:14px;font-family:Helvetica;-inkscape-font-specification:Helvetica;writing-mode:lr-tb;fill:#000000;fill-opacity:1;fill-rule:nonzero;stroke:none"
           transform="matrix(0,1,1,0,96.7699,86.8483)"><tspan
             id="tspan88"
             y="0"
             x="0 7.7839999 15.568">256</tspan></text>
<text
           id="text90"
           style="font-variant:normal;font-weight:normal;font-size:13.99999809px;font-family:Helvetica;-inkscape-font-specification:Helvetica;writing-mode:lr-tb;fill:#000000;fill-opacity:1;fill-rule:nonzero;stroke:none"
           transform="matrix(0.71934,0.694658,0.694658,-0.71934,412.744,166.341)"><tspan
             id="tspan92"
             y="0"
             x="0 9.3379993 20.999998 28.783997 35.783997 43.567993 51.351994 55.243992 66.905991 74.689995 78.581993 90.243988 98.027992 105.81199 108.91999 116.70399">Amazon m3.medium</tspan><tspan
             id="tspan94"
             y="-36.686295"
             x="35.427597 44.765594 56.427593 64.211594 71.211594 78.99559 86.779587 90.671593 97.671585 105.45559 109.34759 112.45559 120.23959 124.90159 132.68558">Amazon c3.large</tspan><tspan
             id="tspan96"
             y="-73.444595"
             x="70.924591 80.262589 91.924591 99.708588 106.70859 114.49258 122.27659 126.16859 133.16858 140.95259 144.84459 147.95258 155.73659 160.39857 168.18259">Amazon c4.large</tspan><tspan
             id="tspan98"
             y="-110.20289"
             x="106.42159 117.31358 125.09759 132.88159 140.66559 143.77359 151.55759 155.44958 163.23358 171.01758 175.67958 182.67958 186.57158 194.35558 202.13957 209.92357 217.70758 222.36957 230.15358">Google n1-standard1</tspan><tspan
             id="tspan100"
             y="-146.88918"
             x="141.84918 152.74118 160.52518 168.30917 176.09319 179.20119 186.98518 190.87718 198.66118 206.44518 211.10718 218.10718 221.99918 229.78317 237.56717 245.35117 253.13518 257.79718 265.58118">Google n1-standard2</tspan><tspan
             id="tspan102"
             y="-183.64748"
             x="177.34618 189.00818 192.11618 199.11618 203.77818 211.56218 218.56218 226.34618 230.23817 234.13017 238.02217 247.36017 254.36017 262.14417 266.80618 274.59018 278.48218 288.59018 297.92816">Microsoft Azure DS1</tspan><tspan
             id="tspan104"
             y="-220.33377"
             x="212.77377 224.43578 227.54378 234.54378 239.20578 246.98978 253.98978 261.77377 265.66577 269.55777 273.44977 282.78778 289.78778 297.57178 302.23376 310.01776 313.90976 324.01776 333.35577">Microsoft Azure DS2</tspan><tspan
             id="tspan106"
             y="-257.09207"
             x="248.27077 256.82477 261.48676 269.27078 276.27078 280.16278 287.94678 294.94678 298.83878 308.17676 311.28476 315.94678 319.83878 327.62277 335.40677 338.51477 342.40677 354.06876 361.85275 368.85275 376.63675 379.74475 387.52875">Fractus Virtual Machine</tspan><tspan
             id="tspan108"
             y="-293.85037"
             x="283.76776 292.32178 296.98376 304.76776 311.76776 315.65976 323.44376 330.44376 334.33575 343.67377 351.45776 356.11975 363.90375 367.79575 379.45776 387.24176 391.13376 398.91776">Fractus Bare Metal</tspan><tspan
             id="tspan110"
             y="-330.53665"
             x="319.19537 329.30338 337.08737 340.19537 343.30338 347.19537 358.08737 365.87137 369.76337 372.87137 380.65536 383.76337 391.54736 398.54736 402.43936 410.22336 418.00735">Dell Optiplex 760</tspan></text>
</g><path
         id="path112"
         style="fill:none;stroke:#000000;stroke-width:5;stroke-linecap:butt;stroke-linejoin:miter;stroke-miterlimit:3.79999995;stroke-dasharray:none;stroke-opacity:1"
         d="m 4011,6803 0,-63" /><g
         transform="scale(10,10)"
         id="g114"><text
           id="text116"
           style="font-variant:normal;font-weight:normal;font-size:14px;font-family:Helvetica;-inkscape-font-specification:Helvetica;writing-mode:lr-tb;fill:#000000;fill-opacity:1;fill-rule:nonzero;stroke:none"
           transform="matrix(0,1,1,0,405.77,692.592)"><tspan
             id="tspan118"
             y="0"
             x="0">0</tspan></text>
</g><path
         id="path120"
         style="fill:none;stroke:#000000;stroke-width:5;stroke-linecap:butt;stroke-linejoin:miter;stroke-miterlimit:3.79999995;stroke-dasharray:none;stroke-opacity:1"
         d="m 3238,6803 0,-63" /><g
         transform="scale(10,10)"
         id="g122"><text
           id="text124"
           style="font-variant:normal;font-weight:normal;font-size:14px;font-family:Helvetica;-inkscape-font-specification:Helvetica;writing-mode:lr-tb;fill:#000000;fill-opacity:1;fill-rule:nonzero;stroke:none"
           transform="matrix(0,1,1,0,328.47,692.592)"><tspan
             id="tspan126"
             y="0"
             x="0 7.7839999">50</tspan></text>
</g><path
         id="path128"
         style="fill:none;stroke:#000000;stroke-width:5;stroke-linecap:butt;stroke-linejoin:miter;stroke-miterlimit:3.79999995;stroke-dasharray:none;stroke-opacity:1"
         d="m 2466,6803 0,-63" /><g
         transform="scale(10,10)"
         id="g130"><text
           id="text132"
           style="font-variant:normal;font-weight:normal;font-size:14px;font-family:Helvetica;-inkscape-font-specification:Helvetica;writing-mode:lr-tb;fill:#000000;fill-opacity:1;fill-rule:nonzero;stroke:none"
           transform="matrix(0,1,1,0,251.27,692.592)"><tspan
             id="tspan134"
             y="0"
             x="0 7.7839999 15.568">100</tspan></text>
</g><path
         id="path136"
         style="fill:none;stroke:#000000;stroke-width:5;stroke-linecap:butt;stroke-linejoin:miter;stroke-miterlimit:3.79999995;stroke-dasharray:none;stroke-opacity:1"
         d="m 1693,6803 0,-63" /><g
         transform="scale(10,10)"
         id="g138"><text
           id="text140"
           style="font-variant:normal;font-weight:normal;font-size:14px;font-family:Helvetica;-inkscape-font-specification:Helvetica;writing-mode:lr-tb;fill:#000000;fill-opacity:1;fill-rule:nonzero;stroke:none"
           transform="matrix(0,1,1,0,173.97,692.592)"><tspan
             id="tspan142"
             y="0"
             x="0 7.7839999 15.568">150</tspan></text>
</g><path
         id="path144"
         style="fill:none;stroke:#000000;stroke-width:5;stroke-linecap:butt;stroke-linejoin:miter;stroke-miterlimit:3.79999995;stroke-dasharray:none;stroke-opacity:1"
         d="m 921,6803 0,-63" /><g
         transform="scale(10,10)"
         id="g146"><text
           id="text148"
           style="font-variant:normal;font-weight:normal;font-size:14px;font-family:Helvetica;-inkscape-font-specification:Helvetica;writing-mode:lr-tb;fill:#000000;fill-opacity:1;fill-rule:nonzero;stroke:none"
           transform="matrix(0,1,1,0,96.7699,692.592)"><tspan
             id="tspan150"
             y="0"
             x="0 7.7839999 15.568">200</tspan></text>
</g><path
         id="path152"
         style="fill:none;stroke:#000000;stroke-width:10;stroke-linecap:butt;stroke-linejoin:miter;stroke-miterlimit:3.79999995;stroke-dasharray:none;stroke-opacity:1"
         d="m 921,1186 3090,0 0,5617 -3090,0 0,-5617 z" /><g
         transform="scale(10,10)"
         id="g154"><text
           id="text156"
           style="font-variant:normal;font-weight:normal;font-size:14px;font-family:Helvetica;-inkscape-font-specification:Helvetica;writing-mode:lr-tb;fill:#000000;fill-opacity:1;fill-rule:nonzero;stroke:none"
           transform="matrix(-1,0,0,1,337.227,65.8699)"><tspan
             id="tspan158"
             y="0"
             x="0 11.662 19.445999 27.23 34.23 42.014 46.675999 54.459999 62.243999 66.136002 77.797997 85.582001 97.244003 105.028 109.69 116.69 120.582 129.92 133.028 140.028 147.812 151.70399 156.366 167.258 176.59599">Measured Memory Size (GB)</tspan><tspan
             id="tspan160"
             y="676.40002"
             x="0.37031299 12.032313 19.816313 27.600313 34.600311 42.384312 47.046314 54.830315 62.614311 66.50631 76.614311 84.398315 92.182312 99.966316 103.85831 111.64231 119.42632 123.31831 131.10231 138.88631 145.88631 152.88631 156.77832 161.44031 169.22432 176.22432">Measured Read Latency (ns)</tspan></text>
<text
           id="text162"
           style="font-variant:normal;font-weight:normal;font-size:14px;font-family:Helvetica;-inkscape-font-specification:Helvetica;writing-mode:lr-tb;fill:#000000;fill-opacity:1;fill-rule:nonzero;stroke:none"
           transform="matrix(0,1,1,0,75.7699,276.86)"><tspan
             id="tspan164"
             y="0"
             x="0 10.108 17.892 29.554001 37.338001 45.122002 49.784 52.891998 59.891998 67.676003 75.459999 79.351997 83.244003 94.905998 102.69 114.352 122.136 126.798 133.798 137.69 147.028 150.136 157.136 164.92 168.812 176.59599 184.38 192.164 196.056 203.84 211.62399 215.51601 223.3 231.084 238.084">Comparison: Memory Size and Latency</tspan><tspan
             id="tspan166"
             y="34.299999"
             x="311.11099 320.44901 323.55701 330.55701">Size</tspan></text>
</g><path
         id="path168"
         style="fill:#0000ff;fill-opacity:1;fill-rule:nonzero;stroke:none"
         d="m 1019,6236 70,0 0,399 -70,0 0,-399 z" /><path
         id="path170"
         style="fill:none;stroke:#000000;stroke-width:5;stroke-linecap:butt;stroke-linejoin:miter;stroke-miterlimit:3.79999995;stroke-dasharray:none;stroke-opacity:1"
         d="m 1019,6236 70,0 0,399 -70,0 0,-399 z" /><path
         id="path172"
         style="fill:#0000ff;fill-opacity:1;fill-rule:nonzero;stroke:none"
         d="m 3273,1705 738,0 0,154 -738,0 0,-154 z" /><path
         id="path174"
         style="fill:none;stroke:#000000;stroke-width:5;stroke-linecap:butt;stroke-linejoin:miter;stroke-miterlimit:3.79999995;stroke-dasharray:none;stroke-opacity:1"
         d="m 3274,1705 737,0 0,153 -737,0 0,-153 z" /><path
         id="path176"
         style="fill:#0000ff;fill-opacity:1;fill-rule:nonzero;stroke:none"
         d="m 3273,2216 738,0 0,154 -738,0 0,-154 z" /><path
         id="path178"
         style="fill:none;stroke:#000000;stroke-width:5;stroke-linecap:butt;stroke-linejoin:miter;stroke-miterlimit:3.79999995;stroke-dasharray:none;stroke-opacity:1"
         d="m 3274,2216 737,0 0,153 -737,0 0,-153 z" /><path
         id="path180"
         style="fill:#0000ff;fill-opacity:1;fill-rule:nonzero;stroke:none"
         d="m 3273,2726 738,0 0,155 -738,0 0,-155 z" /><path
         id="path182"
         style="fill:none;stroke:#000000;stroke-width:5;stroke-linecap:butt;stroke-linejoin:miter;stroke-miterlimit:3.79999995;stroke-dasharray:none;stroke-opacity:1"
         d="m 3274,2726 737,0 0,154 -737,0 0,-154 z" /><path
         id="path184"
         style="fill:#0000ff;fill-opacity:1;fill-rule:nonzero;stroke:none"
         d="m 3273,3237 738,0 0,154 -738,0 0,-154 z" /><path
         id="path186"
         style="fill:none;stroke:#000000;stroke-width:5;stroke-linecap:butt;stroke-linejoin:miter;stroke-miterlimit:3.79999995;stroke-dasharray:none;stroke-opacity:1"
         d="m 3274,3237 737,0 0,153 -737,0 0,-153 z" /><path
         id="path188"
         style="fill:#0000ff;fill-opacity:1;fill-rule:nonzero;stroke:none"
         d="m 2887,3748 1124,0 0,154 -1124,0 0,-154 z" /><path
         id="path190"
         style="fill:none;stroke:#000000;stroke-width:5;stroke-linecap:butt;stroke-linejoin:miter;stroke-miterlimit:3.79999995;stroke-dasharray:none;stroke-opacity:1"
         d="m 2888,3748 1123,0 0,153 -1123,0 0,-153 z" /><path
         id="path192"
         style="fill:#0000ff;fill-opacity:1;fill-rule:nonzero;stroke:none"
         d="m 3312,4258 699,0 0,155 -699,0 0,-155 z" /><path
         id="path194"
         style="fill:none;stroke:#000000;stroke-width:5;stroke-linecap:butt;stroke-linejoin:miter;stroke-miterlimit:3.79999995;stroke-dasharray:none;stroke-opacity:1"
         d="m 3313,4258 698,0 0,154 -698,0 0,-154 z" /><path
         id="path196"
         style="fill:#0000ff;fill-opacity:1;fill-rule:nonzero;stroke:none"
         d="m 2926,4769 1085,0 0,154 -1085,0 0,-154 z" /><path
         id="path198"
         style="fill:none;stroke:#000000;stroke-width:5;stroke-linecap:butt;stroke-linejoin:miter;stroke-miterlimit:3.79999995;stroke-dasharray:none;stroke-opacity:1"
         d="m 2927,4769 1084,0 0,153 -1084,0 0,-153 z" /><path
         id="path200"
         style="fill:#0000ff;fill-opacity:1;fill-rule:nonzero;stroke:none"
         d="m 3237,5280 774,0 0,154 -774,0 0,-154 z" /><path
         id="path202"
         style="fill:none;stroke:#000000;stroke-width:5;stroke-linecap:butt;stroke-linejoin:miter;stroke-miterlimit:3.79999995;stroke-dasharray:none;stroke-opacity:1"
         d="m 3238,5280 773,0 0,153 -773,0 0,-153 z" /><path
         id="path204"
         style="fill:#0000ff;fill-opacity:1;fill-rule:nonzero;stroke:none"
         d="m 1467,5790 2544,0 0,154 -2544,0 0,-154 z" /><path
         id="path206"
         style="fill:none;stroke:#000000;stroke-width:5;stroke-linecap:butt;stroke-linejoin:miter;stroke-miterlimit:3.79999995;stroke-dasharray:none;stroke-opacity:1"
         d="m 1468,5790 2543,0 0,153 -2543,0 0,-153 z" /><path
         id="path208"
         style="fill:#0000ff;fill-opacity:1;fill-rule:nonzero;stroke:none"
         d="m 2851,6301 1160,0 0,154 -1160,0 0,-154 z" /><path
         id="path210"
         style="fill:none;stroke:#000000;stroke-width:5;stroke-linecap:butt;stroke-linejoin:miter;stroke-miterlimit:3.79999995;stroke-dasharray:none;stroke-opacity:1"
         d="m 2852,6301 1159,0 0,153 -1159,0 0,-153 z" /><g
         transform="scale(10,10)"
         id="g212"><text
           id="text214"
           style="font-variant:normal;font-weight:normal;font-size:14px;font-family:Helvetica;-inkscape-font-specification:Helvetica;writing-mode:lr-tb;fill:#000000;fill-opacity:1;fill-rule:nonzero;stroke:none"
           transform="matrix(0,1,1,0,124.07,566.172)"><tspan
             id="tspan216"
             y="0"
             x="0 7.7839999 15.568 19.459999 27.243999 35.028 42.028">Latency</tspan></text>
</g><path
         id="path218"
         style="fill:none;stroke:#ff0000;stroke-width:15;stroke-linecap:butt;stroke-linejoin:miter;stroke-miterlimit:3.79999995;stroke-dasharray:none;stroke-opacity:1"
         d="m 1194,6236 0,399 m 241,-4938 1271,510 24,511 -314,511 166,510 -14,511 10,510 -142,511 354,511 -205,510" /><path
         id="path220"
         style="fill:none;stroke:#ff0000;stroke-width:15;stroke-linecap:butt;stroke-linejoin:miter;stroke-miterlimit:3.79999995;stroke-dasharray:none;stroke-opacity:1"
         d="m 1403.5,1665.5 63,63" /><path
         id="path222"
         style="fill:none;stroke:#ff0000;stroke-width:15;stroke-linecap:butt;stroke-linejoin:miter;stroke-miterlimit:3.79999995;stroke-dasharray:none;stroke-opacity:1"
         d="m 1466.5,1665.5 -63,63" /><path
         id="path224"
         style="fill:none;stroke:#ff0000;stroke-width:15;stroke-linecap:butt;stroke-linejoin:miter;stroke-miterlimit:3.79999995;stroke-dasharray:none;stroke-opacity:1"
         d="m 2674.5,2175.5 63,63" /><path
         id="path226"
         style="fill:none;stroke:#ff0000;stroke-width:15;stroke-linecap:butt;stroke-linejoin:miter;stroke-miterlimit:3.79999995;stroke-dasharray:none;stroke-opacity:1"
         d="m 2737.5,2175.5 -63,63" /><path
         id="path228"
         style="fill:none;stroke:#ff0000;stroke-width:15;stroke-linecap:butt;stroke-linejoin:miter;stroke-miterlimit:3.79999995;stroke-dasharray:none;stroke-opacity:1"
         d="m 2698.5,2686.5 63,63" /><path
         id="path230"
         style="fill:none;stroke:#ff0000;stroke-width:15;stroke-linecap:butt;stroke-linejoin:miter;stroke-miterlimit:3.79999995;stroke-dasharray:none;stroke-opacity:1"
         d="m 2761.5,2686.5 -63,63" /><path
         id="path232"
         style="fill:none;stroke:#ff0000;stroke-width:15;stroke-linecap:butt;stroke-linejoin:miter;stroke-miterlimit:3.79999995;stroke-dasharray:none;stroke-opacity:1"
         d="m 2384.5,3197.5 63,63" /><path
         id="path234"
         style="fill:none;stroke:#ff0000;stroke-width:15;stroke-linecap:butt;stroke-linejoin:miter;stroke-miterlimit:3.79999995;stroke-dasharray:none;stroke-opacity:1"
         d="m 2447.5,3197.5 -63,63" /><path
         id="path236"
         style="fill:none;stroke:#ff0000;stroke-width:15;stroke-linecap:butt;stroke-linejoin:miter;stroke-miterlimit:3.79999995;stroke-dasharray:none;stroke-opacity:1"
         d="m 2550.5,3707.5 63,63" /><path
         id="path238"
         style="fill:none;stroke:#ff0000;stroke-width:15;stroke-linecap:butt;stroke-linejoin:miter;stroke-miterlimit:3.79999995;stroke-dasharray:none;stroke-opacity:1"
         d="m 2613.5,3707.5 -63,63" /><path
         id="path240"
         style="fill:none;stroke:#ff0000;stroke-width:15;stroke-linecap:butt;stroke-linejoin:miter;stroke-miterlimit:3.79999995;stroke-dasharray:none;stroke-opacity:1"
         d="m 2536.5,4218.5 63,63" /><path
         id="path242"
         style="fill:none;stroke:#ff0000;stroke-width:15;stroke-linecap:butt;stroke-linejoin:miter;stroke-miterlimit:3.79999995;stroke-dasharray:none;stroke-opacity:1"
         d="m 2599.5,4218.5 -63,63" /><path
         id="path244"
         style="fill:none;stroke:#ff0000;stroke-width:15;stroke-linecap:butt;stroke-linejoin:miter;stroke-miterlimit:3.79999995;stroke-dasharray:none;stroke-opacity:1"
         d="m 2546.5,4728.5 63,63" /><path
         id="path246"
         style="fill:none;stroke:#ff0000;stroke-width:15;stroke-linecap:butt;stroke-linejoin:miter;stroke-miterlimit:3.79999995;stroke-dasharray:none;stroke-opacity:1"
         d="m 2609.5,4728.5 -63,63" /><path
         id="path248"
         style="fill:none;stroke:#ff0000;stroke-width:15;stroke-linecap:butt;stroke-linejoin:miter;stroke-miterlimit:3.79999995;stroke-dasharray:none;stroke-opacity:1"
         d="m 2404.5,5239.5 63,63" /><path
         id="path250"
         style="fill:none;stroke:#ff0000;stroke-width:15;stroke-linecap:butt;stroke-linejoin:miter;stroke-miterlimit:3.79999995;stroke-dasharray:none;stroke-opacity:1"
         d="m 2467.5,5239.5 -63,63" /><path
         id="path252"
         style="fill:none;stroke:#ff0000;stroke-width:15;stroke-linecap:butt;stroke-linejoin:miter;stroke-miterlimit:3.79999995;stroke-dasharray:none;stroke-opacity:1"
         d="m 2758.5,5750.5 63,63" /><path
         id="path254"
         style="fill:none;stroke:#ff0000;stroke-width:15;stroke-linecap:butt;stroke-linejoin:miter;stroke-miterlimit:3.79999995;stroke-dasharray:none;stroke-opacity:1"
         d="m 2821.5,5750.5 -63,63" /><path
         id="path256"
         style="fill:none;stroke:#ff0000;stroke-width:15;stroke-linecap:butt;stroke-linejoin:miter;stroke-miterlimit:3.79999995;stroke-dasharray:none;stroke-opacity:1"
         d="m 2553.5,6260.5 63,63" /><path
         id="path258"
         style="fill:none;stroke:#ff0000;stroke-width:15;stroke-linecap:butt;stroke-linejoin:miter;stroke-miterlimit:3.79999995;stroke-dasharray:none;stroke-opacity:1"
         d="m 2616.5,6260.5 -63,63" /><path
         id="path260"
         style="fill:none;stroke:#ff0000;stroke-width:15;stroke-linecap:butt;stroke-linejoin:miter;stroke-miterlimit:3.79999995;stroke-dasharray:none;stroke-opacity:1"
         d="m 1162.5,6403.5 63,63" /><path
         id="path262"
         style="fill:none;stroke:#ff0000;stroke-width:15;stroke-linecap:butt;stroke-linejoin:miter;stroke-miterlimit:3.79999995;stroke-dasharray:none;stroke-opacity:1"
         d="m 1225.5,6403.5 -63,63" /><path
         id="path264"
         style="fill:none;stroke:#000000;stroke-width:10;stroke-linecap:butt;stroke-linejoin:miter;stroke-miterlimit:3.79999995;stroke-dasharray:none;stroke-opacity:1"
         d="m 921,1186 3090,0 0,5617 -3090,0 0,-5617 z" /></g></g></svg>